SplineFontDB: 3.2
FontName: ZameroSans-Regular
FullName: Zamero Sans Regular
FamilyName: Zamero Sans
Weight: Regular
Copyright: Copyright (c) 2024, Zamero Type Foundry
UComments: "2024-1-17: Created with FontForge (http://fontforge.org)+AAoACgAK-Instead of Charlie and the Alphabet and Charlie and the Numbers, how about Charlie and the Fonts? :)"
Version: 001.100
ItalicAngle: 0
UnderlinePosition: -100
UnderlineWidth: 50
Ascent: 800
Descent: 200
InvalidEm: 0
LayerCount: 2
Layer: 0 0 "Back" 1
Layer: 1 0 "Fore" 0
XUID: [1021 474 1118879153 20760]
StyleMap: 0x0040
FSType: 0
OS2Version: 0
OS2_WeightWidthSlopeOnly: 0
OS2_UseTypoMetrics: 1
CreationTime: 1705525712
ModificationTime: 1743120594
PfmFamily: 33
TTFWeight: 400
TTFWidth: 5
LineGap: 90
VLineGap: 90
OS2TypoAscent: 0
OS2TypoAOffset: 1
OS2TypoDescent: 0
OS2TypoDOffset: 1
OS2TypoLinegap: 90
OS2WinAscent: 0
OS2WinAOffset: 1
OS2WinDescent: 0
OS2WinDOffset: 1
HheadAscent: 0
HheadAOffset: 1
HheadDescent: 0
HheadDOffset: 1
OS2Vendor: 'ZAM '
Lookup: 1 0 0 "'ss15' Style Set 15 lookup 20" { "'ss15' Style Set 15 lookup 20-1" ("ss15") } ['ss15' ('DFLT' <'dflt' > 'grek' <'dflt' > 'latn' <'dflt' > ) ]
Lookup: 1 0 0 "'ss14' Style Set 14 lookup 19" { "'ss14' Style Set 14 lookup 19-1" ("ss14") } ['ss14' ('DFLT' <'dflt' > 'grek' <'dflt' > 'latn' <'dflt' > ) ]
Lookup: 1 0 0 "'onum' Oldstyle Figures lookup 18" { "'onum' Oldstyle Figures lookup 18-1" ("osf") } ['onum' ('DFLT' <'dflt' > 'grek' <'dflt' > 'latn' <'dflt' > ) ]
Lookup: 1 0 0 "'tnum' Tabular Numbers lookup 17" { "'tnum' Tabular Numbers lookup 17-1" ("tf") } ['tnum' ('DFLT' <'dflt' > 'grek' <'dflt' > 'latn' <'dflt' > ) ]
Lookup: 1 0 0 "'dnom' Denominators lookup 0" { "'dnom' Denominators lookup 0 subtable" ("dnom") } ['dnom' ('DFLT' <'dflt' > 'latn' <'dflt' > ) ]
Lookup: 1 0 0 "'numr' Numerators lookup 0" { "'numr' Numerators lookup 0 subtable" ("numr") } ['numr' ('DFLT' <'dflt' > 'latn' <'dflt' > ) ]

StartChar: I
Encoding: 73 73 0
Width: 434
Flags: W
HStem: 0 100<40 158.5 275.5 394> 30 70<158.5 275.5> 630 101<40 158.5 275.5 394> 630 71<158.5 275.5>
VStem: 158.5 117<30 701>
AnchorPoint: "Anchor-3" 271 0 basechar 0
AnchorPoint: "Anchor-2" 218 0 basechar 0
AnchorPoint: "Anchor-0" 216 731 basechar 0
LayerCount: 2
Fore
SplineSet
394 0 m 1x88
 40 0 l 1
 40 100 l 1
 394 100 l 1
 394 0 l 1x88
394 630 m 1x28
 40 630 l 1
 40 731 l 1
 394 731 l 1
 394 630 l 1x28
158.5 30 m 1x58
 158.5 701 l 1
 275.5 701 l 5
 275.5 30 l 5
 158.5 30 l 1x58
EndSplineSet
EndChar

StartChar: O
Encoding: 79 79 1
Width: 797
Flags: W
HStem: -9.99805 108.147<291.178 506.6> 630.974 108.147<291.178 506.6>
VStem: 46.35 119.049<234.378 494.745> 632.379 119.049<234.378 494.745>
AnchorPoint: "Anchor-0" 399 731 basechar 0
AnchorPoint: "Anchor-2" 398 0 basechar 0
AnchorPoint: "Anchor-3" 471 20 basechar 0
LayerCount: 2
Back
SplineSet
104.848632812 364.561523438 m 0
 104.848632812 169.015917071 203.263968617 38.4638671875 398.888671875 38.4638671875 c 4
 594.513375133 38.4638671875 692.928710938 169.015917071 692.928710938 364.561523438 c 0
 692.928710938 560.107129798 594.513375133 690.659179688 398.888671875 690.659179688 c 0
 203.263968617 690.659179688 104.848632812 560.107129798 104.848632812 364.561523438 c 0
55 364.561523438 m 0
 55 591.206054688 185.120861123 739.12109375 398.888671875 739.12109375 c 0
 612.656482627 739.12109375 742.77734375 591.206054688 742.77734375 364.561523438 c 0
 742.77734375 137.916992188 612.656482627 -9.998046875 398.888671875 -9.998046875 c 0
 185.120861123 -9.998046875 55 137.916992188 55 364.561523438 c 0
EndSplineSet
Fore
SplineSet
165.398632812 364.561523438 m 0
 165.398632812 204.806237218 236.947534546 98.1488671879 398.888671875 98.1488671879 c 0
 560.829809204 98.1488671879 632.378710938 204.806237218 632.378710938 364.561523438 c 0
 632.378710938 524.316809654 560.829809204 630.974179688 398.888671875 630.974179688 c 0
 236.947534546 630.974179688 165.398632812 524.316809654 165.398632812 364.561523438 c 0
46.35 364.561523438 m 0
 46.35 591.206054688 179.7438548 739.12109375 398.888671875 739.12109375 c 0
 618.03348895 739.12109375 751.42734375 591.206054688 751.42734375 364.561523438 c 0
 751.42734375 137.916992188 618.03348895 -9.998046875 398.888671875 -9.998046875 c 0
 179.7438548 -9.998046875 46.35 137.916992188 46.35 364.561523438 c 0
EndSplineSet
EndChar

StartChar: H
Encoding: 72 72 2
Width: 719
Flags: W
HStem: 0 21G<66.35 184.55 534.45 652.65> 309.05 97.9<124.6 579.4> 711.008 20G<66.35 184.55 534.45 652.65>
VStem: 66.35 118.2<0 309.05 406.95 731.008> 124.6 59.95<309.05 406.95> 534.45 118.2<0 309.05 406.95 731.008> 534.45 44.95<309.05 406.95>
AnchorPoint: "Anchor-0" 357 731 basechar 0
AnchorPoint: "Anchor-2" 357 0 basechar 0
LayerCount: 2
Fore
SplineSet
579.4 309.05 m 1xea
 124.6 309.05 l 1
 124.6 406.95 l 1
 579.4 406.95 l 1
 579.4 309.05 l 1xea
534.45 0 m 1xe4
 534.45 731.0078125 l 1
 652.65 731.0078125 l 1
 652.65 0 l 1
 534.45 0 l 1xe4
66.35 0 m 1xf0
 66.35 731.0078125 l 1
 184.55 731.0078125 l 1
 184.55 0 l 1
 66.35 0 l 1xf0
EndSplineSet
EndChar

StartChar: V
Encoding: 86 86 4
Width: 699
Flags: W
HStem: 0 21G<274.751 433.975> 711.008 20G<16.35 146.29 552.979 682.65>
AnchorPoint: "Anchor-0" 353 731 basechar 0
AnchorPoint: "Anchor-2" 354 0.0117188 basechar 0
LayerCount: 2
Fore
SplineSet
282.02 0 m 1
 16.35 731.0078125 l 1
 139.28 731.0078125 l 1
 353.606445312 119.489335938 l 1
 559.72 731.0078125 l 1
 682.65 731.0078125 l 1
 426.98 0 l 1
 282.02 0 l 1
EndSplineSet
EndChar

StartChar: D
Encoding: 68 68 5
Width: 727
Flags: W
HStem: 0 105.767<184.55 424.161> 625.234 105.773<184.55 424.605>
VStem: 66.35 118.2<105.767 625.234> 562.379 119.049<238.732 490.546>
AnchorPoint: "Anchor-0" 350 731 basechar 0
AnchorPoint: "Anchor-2" 356 0 basechar 0
LayerCount: 2
Fore
SplineSet
66.35 0 m 1
 66.35 731.0078125 l 1
 308.888671875 731.0078125 l 2
 504.899324535 731.0078125 681.42734375 631.206054688 681.42734375 364.561523438 c 0
 681.42734375 97.9169921873 503.752092691 -2.38661160479e-14 308.888671875 0 c 2
 66.35 0 l 1
184.55 625.234414062 m 1
 184.55 105.7665625 l 1
 283.888671875 105.876914062 l 2
 443.324050775 106.057005943 562.378710938 155.091955574 562.378710938 364.561523438 c 0
 562.378710938 573.71198433 443.324056358 624.962149019 283.888671875 625.130898438 c 2
 184.55 625.234414062 l 1
EndSplineSet
EndChar

StartChar: U
Encoding: 85 85 6
Width: 719
Flags: W
HStem: -9.99805 108.282<256.973 458.805> 711.008 20G<66.35 184.55 531.227 649.427>
VStem: 66.35 118.2<173.075 731.008> 531.227 118.2<173.075 731.008>
AnchorPoint: "Anchor-0" 362 731 basechar 0
AnchorPoint: "Anchor-2" 358 0.0117188 basechar 0
AnchorPoint: "Anchor-3" 451 18 basechar 0
LayerCount: 2
Fore
SplineSet
357.888671875 -9.998046875 m 0
 140.16476655 -9.998046875 66.35 103.441880793 66.35 277.261523438 c 2
 66.35 731.0078125 l 1
 184.55 731.0078125 l 1
 184.55 304.561523438 l 2
 184.55 180.866401446 209.799147456 98.2838671879 357.888671875 98.2838671879 c 0
 505.978196294 98.2838671879 531.22734375 180.866401446 531.22734375 304.561523438 c 2
 531.22734375 731.0078125 l 1
 649.42734375 731.0078125 l 1
 649.42734375 277.261523438 l 2
 649.42734375 103.441880793 575.6125772 -9.998046875 357.888671875 -9.998046875 c 0
EndSplineSet
EndChar

StartChar: L
Encoding: 76 76 7
Width: 568
Flags: W
HStem: 0 102.225<184.55 544> 711.008 20G<66.35 184.55>
VStem: 66.35 118.2<102.225 731.008>
AnchorPoint: "Anchor-0" 139 731 basechar 0
AnchorPoint: "Anchor-2" 308 0 basechar 0
LayerCount: 2
Fore
SplineSet
184.55 102.225 m 1
 544 102.225 l 1
 544 0 l 1
 66.35 0 l 1
 66.35 731.0078125 l 1
 184.55 731.0078125 l 1
 184.55 102.225 l 1
EndSplineSet
EndChar

StartChar: F
Encoding: 70 70 8
Width: 574
Flags: W
HStem: 0 21G<66.35 184.55> 287.75 105.55<124.6 471.3> 628.783 102.225<184.55 531.3>
VStem: 66.35 118.2<0 287.75 393.3 628.783> 124.6 59.95<287.75 393.3>
AnchorPoint: "Anchor-0" 306 731 basechar 0
AnchorPoint: "Anchor-2" 297 0 basechar 0
LayerCount: 2
Fore
SplineSet
471.3 287.75 m 1xe8
 124.6 287.75 l 1
 124.6 393.3 l 1
 471.3 393.3 l 1
 471.3 287.75 l 1xe8
184.55 628.7828125 m 1xf0
 184.55 0 l 1
 66.35 0 l 1
 66.35 731.0078125 l 1
 531.3 731.0078125 l 1
 531.3 628.7828125 l 1
 184.55 628.7828125 l 1xf0
EndSplineSet
EndChar

StartChar: C
Encoding: 67 67 9
Width: 667
Flags: W
HStem: -9.99805 107.607<302.9 552.626> 631.514 107.607<302.99 532.634>
VStem: 46.35 121.699<234.754 489.639>
AnchorPoint: "Anchor-0" 406 731 basechar 0
AnchorPoint: "Anchor-2" 406 0 basechar 0
LayerCount: 2
Fore
SplineSet
46.35 360.561523438 m 0
 46.35 589.626439045 176.576133254 739.12109375 405.888671875 739.12109375 c 0
 569.264302834 739.12109375 638.331640625 672.891601562 638.331640625 672.891601562 c 1
 595.24546875 573.588671875 l 1
 595.24546875 573.588671875 535.975527888 631.514179688 419.888671875 631.514179688 c 0
 243.47338909 631.514179688 168.048828125 523.03923662 168.048828125 360.561523438 c 4
 168.048828125 202.881038385 244.298798889 97.6088671879 418.538671875 97.6088671879 c 0
 541.809388157 97.6088671879 607.098554688 144.280703125 607.098554688 144.280703125 c 1
 641.477148438 44.595703125 l 1
 641.477148438 44.595703125 569.514828007 -9.998046875 405.888671875 -9.998046875 c 0
 176.576133254 -9.998046875 46.35 136.337376545 46.35 360.561523438 c 0
EndSplineSet
Substitution2: "'ss12' Style Set 12 lookup 13-1" C.ss12
EndChar

StartChar: E
Encoding: 69 69 10
Width: 579
Flags: W
HStem: 0 102.225<184.55 537.65> 312.4 106.55<125.95 477.65> 628.783 102.225<184.55 537.65>
VStem: 125.95 58.6<312.4 418.95>
AnchorPoint: "Anchor-0" 306 731 basechar 0
AnchorPoint: "Anchor-2" 306 0 basechar 0
AnchorPoint: "Anchor-3" 471 0 basechar 0
LayerCount: 2
Fore
SplineSet
477.65 312.4 m 1
 125.95 312.4 l 1
 125.95 418.95 l 1
 477.65 418.95 l 1
 477.65 312.4 l 1
184.55 628.7828125 m 1
 184.55 102.225 l 1
 537.65 102.225 l 1
 537.65 0 l 1
 66.35 0 l 1
 66.35 731.0078125 l 1
 537.65 731.0078125 l 1
 537.65 628.7828125 l 1
 184.55 628.7828125 l 1
EndSplineSet
EndChar

StartChar: N
Encoding: 78 78 11
Width: 719
Flags: W
HStem: 0 21G<66.35 182.82 517.168 652.65> 711.008 20G<66.35 202.112 536.18 652.65>
VStem: 66.35 116.47<0 533.905> 536.18 116.47<208.35 731.008>
AnchorPoint: "Anchor-0" 363 731 basechar 0
AnchorPoint: "Anchor-2" 365 0 basechar 0
LayerCount: 2
Fore
SplineSet
66.35 0 m 1
 66.35 731.0078125 l 1
 188.82 731.0078125 l 1
 536.18 208.349609375 l 1
 536.18 731.0078125 l 1
 652.65 731.0078125 l 1
 652.65 0 l 1
 530.18 0 l 1
 182.82 533.904882812 l 1
 182.82 0 l 1
 66.35 0 l 1
EndSplineSet
EndChar

StartChar: M
Encoding: 77 77 12
Width: 830
Flags: W
HStem: 0 21G<66.35 184.55 645.45 763.65> 711.008 20G<66.35 214.899 615.101 763.65>
VStem: 66.35 118.2<0 536.605> 645.45 118.2<0 536.605>
AnchorPoint: "Anchor-0" 412 731 basechar 0
AnchorPoint: "Anchor-2" 411 0 basechar 0
LayerCount: 2
Fore
SplineSet
66.35 0 m 1
 66.35 731.0078125 l 1
 204.55 731.0078125 l 1
 415 324.289609375 l 1
 625.45 731.0078125 l 1
 763.65 731.0078125 l 1
 763.65 0 l 1
 645.45 0 l 1
 645.45 536.604882812 l 1
 460.95 180 l 1
 369.05 180 l 1
 184.55 536.604882812 l 1
 184.55 0 l 1
 66.35 0 l 1
EndSplineSet
EndChar

StartChar: G
Encoding: 71 71 13
Width: 789
Flags: W
HStem: -9.99805 107.607<292.023 514.479> 305.05 99.225<407.35 562.769 674.317 752.65> 305.05 23.5957<562.769 674.317> 631.514 107.607<299.783 536.347>
VStem: 46.35 121.564<234.244 492.004> 578.446 112.336<158.219 304.215>
AnchorPoint: "Anchor-0" 408 731 basechar 0
AnchorPoint: "Anchor-2" 401 0 basechar 0
LayerCount: 2
Fore
SplineSet
752.65 305.05 m 5xdc
 407.35 305.05 l 5
 407.35 404.275 l 5
 752.65 404.275 l 5
 752.65 305.05 l 5xdc
46.35 364.561523438 m 4
 46.35 591.206054688 183.52766252 739.12109375 408.888671875 739.12109375 c 4
 582.118356892 739.12109375 653.331640625 663.891601562 653.331640625 663.891601562 c 5
 606.05546875 569.643671875 l 5
 606.05546875 569.643671875 543.243819442 631.514179688 415.888671875 631.514179688 c 4
 243.979535232 631.514179688 167.9140625 524.640622553 167.9140625 364.561523438 c 4
 167.9140625 204.482424318 235.31409994 97.6088671879 406.888671875 97.6088671879 c 4
 527.978529228 97.6088671879 578.446445312 152.804810839 578.446445312 235.65 c 4
 578.446445312 299.341473783 562.768554688 328.645703125 562.768554688 328.645703125 c 5
 674.317148438 328.645703125 l 5xbc
 674.317148438 328.645703125 690.782421875 302.316610947 690.782421875 222 c 4
 690.782421875 92.8159042083 597.162581658 -9.998046875 399.888671875 -9.998046875 c 4
 174.702044227 -9.998046875 46.35 137.916992188 46.35 364.561523438 c 4
EndSplineSet
Substitution2: "'ss12' Style Set 12 lookup 13-1" G.ss12
Substitution2: "'ss08' Style Set 8 lookup 9-1" G.ss08
EndChar

StartChar: A
Encoding: 65 65 14
Width: 719
Flags: W
HStem: 0 21G<16.35 146.617 572.109 702.65> 159.05 102.495<157.95 560.05> 711.008 20G<284.215 425.058>
AnchorPoint: "Anchor-0" 352 731 basechar 0
AnchorPoint: "Anchor-2" 362 0 basechar 0
AnchorPoint: "Anchor-3" 601 0 basechar 0
LayerCount: 2
Fore
SplineSet
560.05 159.05 m 1
 157.95 159.05 l 1
 157.95 261.545 l 1
 560.05 261.545 l 1
 560.05 159.05 l 1
417.25 731.0078125 m 1
 702.65 0 l 1
 579.585 0 l 1
 355.393554688 599.763476562 l 1
 139.415 0 l 1
 16.35 0 l 1
 291.75 731.0078125 l 1
 417.25 731.0078125 l 1
EndSplineSet
EndChar

StartChar: P
Encoding: 80 80 15
Width: 655
Flags: W
HStem: 0 21G<66.35 184.55> 248.05 98.5766<145.9 430.404> 628.424 102.583<184.55 430.744>
VStem: 66.35 118.2<0 248.05 346.627 628.424> 145.9 38.65<248.05 346.627> 495.379 119.049<404.835 569.061>
AnchorPoint: "Anchor-0" 339 731 basechar 0
AnchorPoint: "Anchor-2" 342 0 basechar 0
LayerCount: 2
Fore
SplineSet
145.9 248.05 m 1xec
 145.9 346.6265625 l 1xec
 316.888671875 346.736914062 l 2
 419.074034575 346.890572918 495.378710937 373.103551401 495.378710937 486.181523438 c 0
 495.378710937 600.409170416 419.074045887 628.175808458 316.888671875 628.320898438 c 2
 184.55 628.424414062 l 1
 184.55 0 l 1
 66.35 0 l 1
 66.35 731.0078125 l 1xf4
 338.888671875 731.0078125 l 2
 483.862922831 731.0078125 614.42734375 664.329298522 614.42734375 486.181523438 c 0
 614.42734375 312.009362195 483.014402228 248.05 338.888671875 248.05 c 2
 145.9 248.05 l 1xec
EndSplineSet
EndChar

StartChar: R
Encoding: 82 82 16
Width: 660
Flags: W
HStem: 0 21G<66.35 184.55 518.8 648.65> 276.05 103.117<145.9 407.458> 627.559 103.448<184.55 435.119>
VStem: 66.35 118.2<0 276.05 379.167 627.559> 145.9 38.65<276.05 379.167> 488.649 120.779<430.077 577.837>
AnchorPoint: "Anchor-0" 325 731 basechar 0
AnchorPoint: "Anchor-2" 342 0.0117188 basechar 0
LayerCount: 2
Back
SplineSet
124 383.3515625 m 1xec
 300.888671875 383.461914062 l 2
 383.403259307 383.509014034 462.928710938 404.697396723 462.928710938 501.561523438 c 0
 462.928710938 596.672668425 383.403268044 618.487535435 300.888671875 618.545898438 c 2
 184 618.649414062 l 1
 184 0 l 1
 55 0 l 1
 55 731.0078125 l 1xf4
 308.888671875 731.0078125 l 2
 457.204101562 731.0078125 590.77734375 670.696715458 590.77734375 509.561523438 c 4
 590.77734375 364.195131811 466.688476562 330.276367188 466.688476562 330.276367188 c 1
 466.688476562 330.276367188 540.174524344 311.767586577 573.702148438 195.399414062 c 2
 630 0 l 1
 492 0 l 1
 447 165 l 2
 420.732434887 256.417062766 391.813913829 266 270 266 c 2
 124 266 l 1
 124 383.3515625 l 1xec
EndSplineSet
Fore
SplineSet
145.9 379.1665625 m 1xec
 309.048671875 379.276914062 l 2
 411.869418318 379.346109831 488.648710938 402.349396535 488.648710938 501.586523438 c 0
 488.648710938 603.11138974 417.046475102 627.383869065 321.158671875 627.455898438 c 2
 184.55 627.559414062 l 1
 184.55 0 l 1
 66.35 0 l 1
 66.35 731.0078125 l 1xf4
 338.888671875 731.0078125 l 2
 481.232310941 731.0078125 609.42734375 670.446152627 609.42734375 508.641523438 c 0
 609.42734375 344.376902478 470.765532227 327.159057617 470.765532227 327.159057617 c 1
 470.765532227 327.159057617 535.363304792 314.541402318 579.322905273 194.604233398 c 2
 648.65 0 l 1
 526.18 0 l 1
 467.339785156 159.449707031 l 2
 430.327397026 257.450433999 405.992217127 276.05 288.24 276.05 c 2
 145.9 276.05 l 1
 145.9 379.1665625 l 1xec
EndSplineSet
Substitution2: "'ss01' Style Set 1 lookup 2-1" R.ss01
EndChar

StartChar: T
Encoding: 84 84 17
Width: 614
Flags: W
HStem: 0 21G<247.9 366.1> 628.775 102.225<40 247.9 366.1 574> 628.775 72.225<247.9 366.1>
VStem: 247.9 118.2<0 701>
AnchorPoint: "Anchor-0" 310 731 basechar 0
AnchorPoint: "Anchor-2" 311 0.0117188 basechar 0
LayerCount: 2
Fore
SplineSet
574 628.775 m 1xd0
 40 628.775 l 1
 40 731 l 1
 574 731 l 1
 574 628.775 l 1xd0
247.9 0 m 1
 247.9 701 l 1
 366.1 701 l 1xb0
 366.1 0 l 1
 247.9 0 l 1
EndSplineSet
EndChar

StartChar: Q
Encoding: 81 81 18
Width: 856
Flags: W
HStem: -9.99805 109.497<293.738 507.566> 630.974 108.147<294.901 509.35>
VStem: 46.35 119.049<237.569 491.875> 632.379 121.049<245.028 493.802>
AnchorPoint: "Anchor-0" 404 731 basechar 0
AnchorPoint: "Anchor-2" 518 0 basechar 0
LayerCount: 2
Fore
SplineSet
46.35 364.561523438 m 0
 46.35 591.206054687 181.63575866 739.12109375 403.888671875 739.12109375 c 0
 621.168874085 739.12109375 753.427734375 587.411701235 753.427734375 380.561523438 c 4
 753.427734375 179.805071964 638.758789062 102.688476562 638.758789062 102.688476562 c 1
 714.719771084 104.10186099 809.213867188 119.90234375 809.213867188 119.90234375 c 1
 820.5390625 19.001953125 l 1
 820.5390625 19.001953125 715.338860371 -9.998046875 444 -9.998046875 c 0
 168.704977209 -9.998046875 46.35 137.916992188 46.35 364.561523438 c 0
165.398632812 364.561523438 m 0
 165.398632812 205.615769465 241.500362961 99.4988671879 403.888671875 99.4988671879 c 0
 559.468095273 99.4988671879 632.37890625 205.615769465 632.37890625 364.561523438 c 0
 632.37890625 524.316809654 559.468095273 630.974179688 403.888671875 630.974179688 c 0
 241.500362961 630.974179688 165.398632812 524.316809654 165.398632812 364.561523438 c 0
EndSplineSet
Substitution2: "'ss10' Style Set 10 lookup 11-1" Q.ss10
Substitution2: "'ss09' Style Set 9 lookup 10-1" Q.ss09
EndChar

StartChar: B
Encoding: 66 66 19
Width: 640
Flags: W
HStem: 0 102.415<179.55 440.374> 318.706 93.5953<145.9 412.35> 628.694 102.313<179.55 412.351>
VStem: 145.9 33.65<318.706 412.302> 461.379 114.049<455.701 583.638> 484.379 114.049<141.449 272.944>
AnchorPoint: "Anchor-0" 320 731 basechar 0
AnchorPoint: "Anchor-2" 343 0 basechar 0
LayerCount: 2
Fore
SplineSet
480.047109375 375.3575 m 1xf8
 480.047109375 375.3575 598.42734375 343.029792529 598.42734375 205.096289062 c 0xf4
 598.42734375 55.8580364443 473.847709119 -1.56638537071e-14 334.538671875 0 c 2
 66.35 0 l 1
 66.35 731.0078125 l 1
 313.538671875 731.0078125 l 2
 451.3309962 731.0078125 575.42734375 675.113008765 575.42734375 525.776523438 c 0
 575.42734375 406.685365574 480.047109375 375.3575 480.047109375 375.3575 c 1xf8
179.55 102.414960938 m 1
 331.538671875 102.416914062 l 2
 418.94511299 102.418014657 484.378710938 122.175891471 484.378710938 208.096289062 c 0xf4
 484.378710938 298.72655279 410.489283685 318.47122586 311.538671875 318.595898438 c 2
 145.9 318.70625 l 1
 145.9 412.3015625 l 1
 289.538671875 412.411914062 l 2
 387.916548526 412.58048289 461.378710938 431.600664786 461.378710938 519.126523438 c 0xf8
 461.378710938 608.124235829 387.916969288 628.51724869 289.538671875 628.590898438 c 2
 179.55 628.694414062 l 1
 179.55 102.414960938 l 1
EndSplineSet
EndChar

StartChar: J
Encoding: 74 74 20
Width: 432
Flags: W
HStem: -10 100.36<22.8961 204.258> 628.783 102.225<51.35 237.45>
VStem: 237.45 118.2<125.038 628.783>
AnchorPoint: "Anchor-0" 216 731 basechar 0
AnchorPoint: "Anchor-2" 175 0 basechar 0
LayerCount: 2
Fore
SplineSet
129.35 90.36 m 0
 205.458100587 90.36 237.45 126.722333868 237.45 212 c 2
 237.45 628.7828125 l 1
 51.35 628.7828125 l 1
 51.35 731.0078125 l 1
 355.65 731.0078125 l 1
 355.65 201 l 2
 355.65 74.4647758463 296.545689655 -10 154 -10 c 0
 69.6744625929 -10 11.35 10.81 11.35 10.81 c 1
 25.215 106.44 l 1
 25.215 106.44 68.6101243709 90.36 129.35 90.36 c 0
EndSplineSet
EndChar

StartChar: K
Encoding: 75 75 21
Width: 669
Flags: W
HStem: 0 21G<66.35 184.55 453.058 628.325> 313.7 84.5996<106 259.215> 711.008 20G<66.35 184.55 451.032 618.325>
VStem: 66.35 118.2<0 313.7 398.3 731.008> 106 153.215<313.7 398.3>
AnchorPoint: "Anchor-0" 329 731 basechar 0
AnchorPoint: "Anchor-2" 335 0 basechar 0
LayerCount: 2
Fore
SplineSet
106 398.299804688 m 1xe8
 259.21484375 398.299804688 l 1
 259.21484375 313.700195312 l 1
 106 313.700195312 l 1
 106 398.299804688 l 1xe8
471.365234375 0 m 1
 182.290039062 315.8046875 l 1
 182.290039062 315.8046875 182.290039062 396.005 182.29 396.005 c 1
 468.094726562 731.0078125 l 1
 618.325195312 731.0078125 l 1
 284.459960938 369.245117188 l 5
 628.325195312 0 l 1
 471.365234375 0 l 1
66.35 0 m 1xf0
 66.35 731.0078125 l 1
 184.55 731.0078125 l 1
 184.55 0 l 1
 66.35 0 l 1xf0
EndSplineSet
EndChar

StartChar: S
Encoding: 83 83 22
Width: 591
Flags: W
HStem: -10 103.687<142.658 383.576> 634.434 104.687<223.882 445.764>
VStem: 60.977 118.512<474.537 593.995> 431.573 113.597<137.91 258.624>
AnchorPoint: "Anchor-0" 303 731 basechar 0
AnchorPoint: "Anchor-2" 292 0.0117188 basechar 0
LayerCount: 2
Fore
SplineSet
283.3828125 313.405625 m 4
 113.030758853 358.228414252 60.976953125 421.730475604 60.976953125 525.295 c 4
 60.976953125 655.364424226 158.696226259 739.12109375 319.233398438 739.12109375 c 4
 458.376469799 739.12109375 526.045117188 688.891601562 526.045117188 688.891601562 c 5
 486.91109375 591.913671875 l 5
 486.91109375 591.913671875 427.721960672 634.434179688 334.87828125 634.434179688 c 4
 227.690185303 634.434179688 179.488476562 599.683993857 179.488476562 534.08 c 4
 179.488476562 478.588197241 209.190662261 448.4887482 321.997070312 418.816054688 c 4
 485.386796757 375.634532495 545.16953125 310.816255244 545.16953125 202.65 c 4
 545.16953125 71.5968417881 454.173834415 -10 283.8046875 -10 c 4
 137.961452531 -10 45.51640625 42.2294921875 45.51640625 42.2294921875 c 5
 79.97265625 142.207421875 l 5
 79.97265625 142.207421875 162.531059794 93.6869140621 268.451289062 93.6869140621 c 4
 377.863773854 93.6869140621 431.572890625 128.666201343 431.572890625 196.515 c 4
 431.572890625 255.797372367 407.115418301 280.913276787 283.3828125 313.405625 c 4
EndSplineSet
EndChar

StartChar: W
Encoding: 87 87 23
Width: 949
Flags: W
HStem: 0 21G<194.392 337.168 605.313 749.56> 711.008 20G<16.35 136.721 803.585 932.65>
AnchorPoint: "Anchor-0" 474 731 basechar 0
AnchorPoint: "Anchor-2" 475 0 basechar 0
LayerCount: 2
Fore
SplineSet
199.4 0 m 1
 16.35 731.0078125 l 1
 131.955 731.0078125 l 1
 271.391445312 145.844335938 l 1
 407.13 671.0078125 l 1
 535.87 671.0078125 l 1
 675.281445312 145.844335938 l 1
 808.125 731.0078125 l 1
 932.65 731.0078125 l 1
 744.41 0 l 1
 610.86 0 l 1
 471.5 502.471484375 l 1
 331.6 0 l 1
 199.4 0 l 1
EndSplineSet
EndChar

StartChar: X
Encoding: 88 88 24
Width: 689
Flags: W
HStem: 0 21G<21.755 178.358 510.642 667.245> 711.008 20G<31.755 181.823 507.177 657.245>
VStem: 326.16 36.68<313.7 401>
AnchorPoint: "Anchor-0" 344 731 basechar 0
AnchorPoint: "Anchor-2" 352 0 basechar 0
LayerCount: 2
Fore
SplineSet
165.795 0 m 1
 21.755 0 l 1
 263.695 371.46 l 1
 31.755 731.0078125 l 1
 170.145 731.0078125 l 1
 362.84 401 l 1
 362.84 313.7 l 1
 165.795 0 l 1
523.205 0 m 1
 326.16 313.7 l 1
 326.16 401 l 1
 518.855 731.0078125 l 1
 657.245 731.0078125 l 1
 425.305 371.46 l 1
 667.245 0 l 1
 523.205 0 l 1
EndSplineSet
EndChar

StartChar: Y
Encoding: 89 89 25
Width: 689
Flags: W
HStem: 0 21G<285.4 403.6> 282 56.3<291.4 397.6> 711.008 20G<31.35 170.342 518.658 657.65>
VStem: 285.4 118.2<0 338.3>
AnchorPoint: "Anchor-0" 346 731 basechar 0
AnchorPoint: "Anchor-2" 345 0 basechar 0
LayerCount: 2
Fore
SplineSet
291.4 282 m 1
 31.35 731.0078125 l 1
 159.28 731.0078125 l 1
 344.5 396.141015625 l 1
 529.72 731.0078125 l 1
 657.65 731.0078125 l 1
 397.6 282 l 1
 291.4 282 l 1
285.4 0 m 1
 285.4 338.3 l 1
 403.6 338.3 l 1
 403.6 0 l 1
 285.4 0 l 1
EndSplineSet
EndChar

StartChar: Z
Encoding: 90 90 26
Width: 594
Flags: W
HStem: 0 102.225<187.85 554> 628.775 102.225<50 406.15>
AnchorPoint: "Anchor-0" 294 731 basechar 0
AnchorPoint: "Anchor-2" 306 0 basechar 0
LayerCount: 2
Fore
SplineSet
554 0 m 1
 40 0 l 1
 40 87.225 l 1
 406.15 628.775 l 1
 50 628.775 l 1
 50 731 l 1
 544 731 l 1
 544 633.775 l 1
 187.85 102.225 l 1
 554 102.225 l 1
 554 0 l 1
EndSplineSet
EndChar

StartChar: ampersand
Encoding: 38 38 27
Width: 754
Flags: W
HStem: -10 99.7778<202.673 374.94 550.347 732.217> 645.132 93.8605<328.126 489.579>
VStem: 46.35 110.442<132.875 263.065> 172.901 112.576<431.98 601.742>
LayerCount: 2
Fore
SplineSet
277.217578125 432.071289062 m 1
 305.401796875 359.363867188 l 0
 305.401796875 359.363867188 156.791914062 303.138162951 156.791914062 199.005 c 0
 156.791914062 129.269415827 206.44812138 89.7777734375 284.888837891 89.7777734375 c 0
 382.26562209 89.7777734375 511.53847933 175.140158286 575.215 448.640078125 c 1
 680.188085938 419.8046875 l 1
 589.172065231 106.417214756 436.793504781 -10 265.928710938 -10 c 0
 126.925652721 -10 46.35 69.8492889998 46.35 185.485546875 c 0
 46.35 366.014135799 277.217578125 432.071289062 277.217578125 432.071289062 c 1
741.101171875 4.5546875 m 1
 741.101171875 4.5546875 712.642256597 -10 636 -10 c 0
 497.110271971 -10 403.547288187 66.6111087534 329.05 157.35 c 0
 226.95250407 281.687793731 172.90078125 416.284602649 172.90078125 522.405 c 0
 172.90078125 664.046031305 256.700435231 738.9921875 395.672460938 738.9921875 c 0
 478.637240425 738.9921875 529.320390625 703.919414062 529.320390625 703.919414062 c 1
 503.5153125 616.218632812 l 1
 503.5153125 616.218632812 457.612766733 645.13171875 402.65 645.13171875 c 0
 325.507626833 645.13171875 285.476757812 602.265985506 285.476757812 521.405 c 0
 285.476757812 441.364774844 327.916892985 336.084782976 402.8875 242.6 c 0
 462.177266855 168.690118358 532.059291104 89.5296875 641.51171875 89.5296875 c 0
 698.142734933 89.5296875 730.54890625 98.9146875 730.54890625 98.9146875 c 1
 741.101171875 4.5546875 l 1
EndSplineSet
EndChar

StartChar: i
Encoding: 105 105 28
Width: 269
Flags: W
HStem: 0 21G<79.995 189.005> 481.011 20G<79.995 189.005> 587.601 138.349<82.4625 186.537>
VStem: 65.9367 137.127<604.274 709.276> 79.995 109.01<0 501.011>
AnchorPoint: "Anchor-2" 137 0 basechar 0
AnchorPoint: "Anchor-3" 141 0 basechar 0
LayerCount: 2
Fore
SplineSet
79.995 0 m 1xe8
 79.995 501.010742188 l 1
 189.005 501.010742188 l 1
 189.005 0 l 1
 79.995 0 l 1xe8
65.93671875 656.775390625 m 0xf0
 65.93671875 698.682487395 92.9622309525 725.95 134.499023438 725.95 c 0
 176.036839251 725.95 203.06328125 698.682487395 203.06328125 656.775390625 c 0
 203.06328125 614.867536739 176.036839251 587.60078125 134.499023438 587.60078125 c 0
 92.9622309525 587.60078125 65.93671875 614.867536739 65.93671875 656.775390625 c 0xf0
EndSplineSet
EndChar

StartChar: o
Encoding: 111 111 29
Width: 589
Flags: W
HStem: -9.99805 94.2269<214.185 374.48> 416.519 94.4144<212.735 375.996>
VStem: 46.35 105.534<151.615 352.395> 437.894 105.534<151.615 349.377>
AnchorPoint: "Anchor-0" 294 501.011 basechar 0
AnchorPoint: "Anchor-2" 294 0 basechar 0
AnchorPoint: "Anchor-3" 357 28 basechar 0
LayerCount: 2
Fore
SplineSet
151.883632812 253.561523438 m 0
 151.883632812 152.020600622 195.791877238 84.2288671875 293.888671875 84.2288671875 c 0
 393.386777255 84.2288671875 437.893710938 152.020600622 437.893710938 253.561523438 c 0
 437.893710938 351.279655083 393.420102896 416.519179688 294 416.519179688 c 0
 195.825202549 416.519179688 151.883632812 351.279655083 151.883632812 253.561523438 c 0
46.35 253.561523438 m 0
 46.35 409.296356709 140.013873747 510.93359375 293.888671875 510.93359375 c 0
 449.006708459 510.93359375 543.42734375 409.296356709 543.42734375 253.561523438 c 0
 543.42734375 94.0826581124 449.006708459 -9.998046875 293.888671875 -9.998046875 c 0
 140.013873747 -9.998046875 46.35 94.0826581124 46.35 253.561523438 c 0
EndSplineSet
EndChar

StartChar: n
Encoding: 110 110 30
Width: 595
Flags: W
HStem: 0 21G<66.62 175.63 421.497 530.507> 422.034 88.8994<233.401 376.576> 481.011 20G<66.62 175.63>
VStem: 66.62 109.01<0 501.011> 421.497 109.01<0 373.644>
AnchorPoint: "Anchor-0" 295 501.011 basechar 0
AnchorPoint: "Anchor-2" 305 0 basechar 0
LayerCount: 2
Fore
SplineSet
175.63 284 m 1xd8
 123.33 293.561523438 l 1
 146.747061424 444 205.088927337 510.93359375 340.65 510.93359375 c 0
 466.029353646 510.93359375 530.50734375 443.210086636 530.50734375 301.861523438 c 2
 530.50734375 0 l 1
 421.49734375 0 l 1
 421.49734375 284.861523438 l 2
 421.49734375 374.455840376 385.782058953 422.034179688 301.7 422.034179688 c 0
 216.23161303 422.034179688 175.63 366.772681277 175.63 284 c 1xd8
66.62 0 m 1
 66.62 501.010742188 l 1
 175.63 501.010742188 l 1xb8
 175.63 0 l 1
 66.62 0 l 1
EndSplineSet
EndChar

StartChar: m
Encoding: 109 109 31
Width: 882
Flags: W
HStem: 0 21G<66.62 175.63 386.772 495.782 708.275 817.285> 422.034 88.8994<219.337 352.747 540.011 674.639> 481.011 20G<66.62 175.63>
VStem: 66.62 109.01<0 501.011> 386.772 109.01<0 377.761> 708.275 109.01<0 386.95>
AnchorPoint: "Anchor-0" 454 501.011 basechar 0
AnchorPoint: "Anchor-2" 445 0 basechar 0
LayerCount: 2
Fore
SplineSet
495.78234375 284 m 1xdc
 425.77734375 296.261523438 l 1
 449.267677775 444.831388793 506.31839543 510.93359375 643.77734375 510.93359375 c 0
 757.009367193 510.93359375 817.2846875 447.323924219 817.2846875 314.561523438 c 2
 817.2846875 0 l 1
 708.2746875 0 l 1
 708.2746875 297.561523438 l 2
 708.2746875 377.760812633 678.924496507 422.034179688 609.82734375 422.034179688 c 0
 529.93815455 422.034179688 495.78234375 366.772681275 495.78234375 284 c 1xdc
175.63 284 m 1
 106.03 293.561523438 l 1
 129.258492228 444 185.688325737 510.93359375 321.6 510.93359375 c 0
 435.292887366 510.93359375 495.78234375 447.323924219 495.78234375 314.561523438 c 2
 495.78234375 0 l 1
 386.77234375 0 l 1
 386.77234375 297.561523438 l 2
 386.77234375 377.760812633 357.220914428 422.034179688 287.65 422.034179688 c 0
 210.529335138 422.034179688 175.63 366.772681277 175.63 284 c 1
66.62 0 m 1
 66.62 501.010742188 l 1
 175.63 501.010742188 l 1xbc
 175.63 0 l 1
 66.62 0 l 1
EndSplineSet
EndChar

StartChar: p
Encoding: 112 112 32
Width: 602
Flags: W
HStem: -9.99805 93.3619<235.336 393.507> 418.384 92.5494<238.547 394.751> 481.011 20G<66.62 175.63>
VStem: 66.62 109.01<-180 501.011> 114.531 61.0986<66.4394 183.562> 134.131 41.4986<283.562 425.747> 452.18 105.399<149.725 354.534>
AnchorPoint: "Anchor-0" 294 501.011 basechar 0
AnchorPoint: "Anchor-2" 136 -179.988 basechar 0
LayerCount: 2
Fore
SplineSet
66.62 -180 m 1xb2
 66.62 501.010742188 l 1
 175.63 501.010742188 l 1
 175.63 -180 l 1
 66.62 -180 l 1xb2
175.63 213.561523438 m 1
 175.63 150.129993158 218.280974181 83.3638671875 318.040039062 83.3638671875 c 0
 412.005920598 83.3638671875 452.180078125 151.501900329 452.180078125 253.561523438 c 0
 452.180078125 352.398008891 412.039262721 418.384179688 318.151367188 418.384179688 c 0
 221.014316304 418.384179688 175.63 364.408403389 175.63 283.561523438 c 1xd2
 134.131367188 283.561523438 l 1xc6
 134.131367188 425.746590474 212.67782804 510.93359375 333.65 510.93359375 c 0
 475.890588621 510.93359375 557.578710938 409.296356709 557.578710938 253.561523438 c 0
 557.578710938 94.0826581124 472.106780901 -9.998046875 331.690039062 -9.998046875 c 0
 196.700033084 -9.998046875 114.531367188 66.4393843716 114.531367188 183.561523438 c 1xca
 175.63 213.561523438 l 1
EndSplineSet
EndChar

StartChar: j
Encoding: 106 106 33
Width: 269
Flags: W
HStem: -190 92.035<-70.9681 58.7338> 481.011 20G<79.995 189.005> 587.601 138.349<82.4625 186.537>
VStem: 65.9367 137.127<604.274 709.276> 79.995 109.01<-75.6896 501.011>
AnchorPoint: "Anchor-2" 17 -179.988 basechar 0
LayerCount: 2
Fore
SplineSet
79.995 -7.89 m 2xe8
 79.995 501.010742188 l 1
 189.005 501.010742188 l 1
 189.005 -10.35 l 2
 189.005 -118.48056872 141.402068966 -190 26.595 -190 c 0
 -37.7915231993 -190 -82.325 -171.865 -82.325 -171.865 c 1
 -68.595 -85.02 l 1
 -68.595 -85.02 -41.3852756441 -97.965 -3.3 -97.965 c 0
 55.3440725097 -97.965 79.995 -70.8339759036 79.995 -7.89 c 2xe8
65.93671875 656.775390625 m 0xf0
 65.93671875 698.682487395 92.9622309525 725.95 134.499023438 725.95 c 0
 176.036839251 725.95 203.06328125 698.682487395 203.06328125 656.775390625 c 0
 203.06328125 614.867536739 176.036839251 587.60078125 134.499023438 587.60078125 c 0
 92.9622309525 587.60078125 65.93671875 614.867536739 65.93671875 656.775390625 c 0xf0
EndSplineSet
EndChar

StartChar: k
Encoding: 107 107 34
Width: 555
Flags: W
HStem: 0 21G<66.62 175.63 350.158 505> 242.62 26.7598<80.6201 165.53> 481.011 20G<345.52 495> 731.002 20G<66.62 175.63>
VStem: 66.62 109.01<0 242.62 269.38 751.002>
AnchorPoint: "Anchor-0" 134 749.002 basechar 0
AnchorPoint: "Anchor-2" 275 0 basechar 0
LayerCount: 2
Fore
SplineSet
165.530273438 269.379882812 m 1
 165.530273438 242.620117188 l 1
 80.6201171875 242.620117188 l 1
 80.6201171875 269.379882812 l 1
 165.530273438 269.379882812 l 1
366.745117188 0 m 1
 165.530273438 242.620117188 l 1
 165.530273438 269.379882812 l 1
 362.530273438 501.010742188 l 1
 495 501.010742188 l 1
 275 263.650390625 l 5
 505 0 l 1
 366.745117188 0 l 1
66.62 0 m 1
 66.62 751.001953125 l 1
 175.63 751.001953125 l 1
 175.63 0 l 1
 66.62 0 l 1
EndSplineSet
EndChar

StartChar: l
Encoding: 108 108 35
Width: 371
Flags: W
HStem: -10.0088 95.9<206.657 321.356> 731.002 20G<75.27 184.28>
VStem: 75.27 109.01<110.748 751.002>
AnchorPoint: "Anchor-0" 134 749.002 basechar 0
AnchorPoint: "Anchor-2" 240 0 basechar 0
LayerCount: 2
Fore
SplineSet
184.28 189.291210938 m 2
 184.28 117.03578925 208.29020166 85.8912109375 265.41 85.8912109375 c 0
 296.732142617 85.8912109375 319.11 97.4312109379 319.11 97.4312109379 c 1
 332.3 5.9912109375 l 1
 332.3 5.9912109375 293.711407085 -10.0087890625 237.92 -10.0087890625 c 0
 122.943275862 -10.0087890625 75.27 56.8520403212 75.27 160.991210938 c 2
 75.27 751.001953125 l 1
 184.28 751.001953125 l 1
 184.28 189.291210938 l 2
EndSplineSet
EndChar

StartChar: h
Encoding: 104 104 36
Width: 595
Flags: W
HStem: 0 21G<66.62 175.63 421.497 530.507> 422.034 88.8994<233.343 376.576> 731.002 20G<66.62 175.63>
VStem: 66.62 109.01<0 751.002> 421.497 109.01<0 373.644>
AnchorPoint: "Anchor-0" 134 751.004 basechar 0
AnchorPoint: "Anchor-2" 299 0 basechar 0
LayerCount: 2
Fore
SplineSet
66.62 0 m 1
 66.62 751.001953125 l 1
 175.63 751.001953125 l 1
 175.63 0 l 1
 66.62 0 l 1
175.63 284 m 9
 123.33 293.561523438 l 17
 146.747061424 444 204.97403372 510.93359375 340.65 510.93359375 c 0
 466.029353646 510.93359375 530.50734375 443.210086636 530.50734375 301.861523438 c 2
 530.50734375 0 l 1
 421.49734375 0 l 1
 421.49734375 284.861523438 l 2
 421.49734375 374.455840376 385.782058953 422.034179688 301.7 422.034179688 c 0
 216.087228004 422.034179688 175.63 366.772681277 175.63 284 c 9
EndSplineSet
EndChar

StartChar: q
Encoding: 113 113 37
Width: 602
Flags: W
HStem: -9.99805 93.3619<219.076 378.222> 418.114 92.8194<217.837 377.24> 481.011 20G<431.37 540.38>
VStem: 49.4213 105.399<151.356 352.873> 431.37 109.01<-180 501.011> 431.37 62.5836<66.4394 183.562 283.562 425.747>
AnchorPoint: "Anchor-0" 308 501.011 basechar 0
AnchorPoint: "Anchor-2" 477 -179.988 basechar 0
LayerCount: 2
Fore
SplineSet
540.38 -180 m 1xb8
 431.37 -180 l 1
 431.37 501.010742188 l 1
 540.38 501.010742188 l 1
 540.38 -180 l 1xb8
431.37 205.561523438 m 1
 493.953632812 183.561523438 l 1xd4
 493.953632812 66.4393843714 411.733885512 -9.998046875 276.659960938 -9.998046875 c 0
 135.404033139 -9.998046875 49.4212890625 94.0826581122 49.4212890625 253.561523438 c 0
 49.4212890625 409.296356709 131.60188492 510.93359375 274.7 510.93359375 c 0
 406.283712602 510.93359375 489.493632812 425.746590474 489.493632812 283.561523438 c 1
 431.37 275.561523438 l 1
 431.37 361.043725074 391.680625237 418.114179688 298.848632812 418.114179688 c 0xd8
 197.95567882 418.114179688 154.819921875 352.236102441 154.819921875 253.561523438 c 0
 154.819921875 151.501900329 197.989020942 83.3638671875 298.959960938 83.3638671875 c 0
 391.713967359 83.3638671875 431.37 146.027545979 431.37 205.561523438 c 1
EndSplineSet
EndChar

StartChar: g
Encoding: 103 103 38
Width: 602
Flags: W
HStem: -190 94.5752<154.206 377.4> 20.002 88.9019<215.941 376.376> 422.439 88.4944<213.872 377.702> 481.011 20G<431.37 540.38>
VStem: 49.4213 105.399<172.32 360.332> 431.37 109.01<-44.1238 37.92 223.562 501.011> 431.37 63.1236<100.388 429.493>
AnchorPoint: "Anchor-0" 308 501.011 basechar 0
AnchorPoint: "Anchor-2" 295 -179.988 basechar 0
LayerCount: 2
Fore
SplineSet
431.37 37.92 m 2xdc
 431.37 501.010742188 l 1
 540.38 501.010742188 l 1
 540.38 31 l 2
 540.38 -102.018957346 468.458275863 -190 295 -190 c 0
 167.521541242 -190 79.35 -146 79.35 -146 c 1
 102.134765625 -51.2900390625 l 5
 102.134765625 -51.2900390625 174.73355385 -95.4248046875 276.349609375 -95.4248046875 c 4
 385.492139278 -95.4248046875 431.37 -55.2607068902 431.37 37.92 c 2xdc
431.37 235.561523438 m 1
 494.493632812 223.561523438 l 1xea
 494.493632812 100.388423477 420.49278268 20.001953125 276.659960938 20.001953125 c 0
 124.878299209 20.001953125 49.4212890625 115.39477208 49.4212890625 261.561523438 c 0
 49.4212890625 412.455587994 121.071334348 510.93359375 274.7 510.93359375 c 0
 413.363247002 510.93359375 489.493632812 429.493180948 489.493632812 293.561523438 c 1
 431.37 285.561523438 l 1
 431.37 367.640691367 387.70079502 422.439179688 294.848632812 422.439179688 c 0xec
 196.757702203 422.439179688 154.819921875 359.233415217 154.819921875 264.561523438 c 0
 154.819921875 171.220862462 197.989020942 108.903867188 298.959960938 108.903867188 c 0
 391.71396736 108.903867188 431.37 173.854660281 431.37 235.561523438 c 1
EndSplineSet
Substitution2: "'ss14' Style Set 14 lookup 19-1" g.ss14
EndChar

StartChar: f
Encoding: 102 102 39
Width: 398
Flags: W
HStem: 0 21G<119.995 229.005> 414.885 86.1257<25.35 370.65> 673.571 87.44<258.55 389.63>
VStem: 119.995 109.01<0 642.055>
AnchorPoint: "Anchor-0" 296 752.002 basechar 0
AnchorPoint: "Anchor-2" 173 0 basechar 0
LayerCount: 2
Fore
SplineSet
25.35 501.010742188 m 1
 370.65 501.010742188 l 1
 370.65 414.885 l 1
 25.35 414.885 l 1
 25.35 501.010742188 l 1
229.005 561.060742188 m 2
 229.005 0 l 1
 119.995 0 l 1
 119.995 574.060742188 l 2
 119.995 686.584982156 170.805800112 761.010742188 293.35 761.010742188 c 0
 356.778873197 761.010742188 400.65 745.010742188 400.65 745.010742188 c 1
 387.46 662.030742188 l 1
 387.46 662.030742188 361.556458984 673.570742188 325.3 673.570742188 c 0
 257.503623179 673.570742188 229.005 639.681680223 229.005 561.060742188 c 2
EndSplineSet
EndChar

StartChar: c
Encoding: 99 99 40
Width: 492
Flags: W
HStem: -9.99805 89.9019<227.245 419.518> 419.114 91.8194<219.598 410.431>
VStem: 46.35 105.588<156.844 348.534>
AnchorPoint: "Anchor-0" 291 501.011 basechar 0
AnchorPoint: "Anchor-2" 297 0 basechar 0
LayerCount: 2
Fore
SplineSet
46.35 253.561523438 m 0
 46.35 409.296356709 133.486336392 510.93359375 294.753671875 510.93359375 c 0
 411.25065858 510.93359375 459.141601562 470.083984375 459.141601562 470.083984375 c 1
 434.895507812 382.701171875 l 5
 434.895507812 382.701171875 393.215077512 419.114179688 308.705 419.114179688 c 0
 200.265473918 419.114179688 151.938476562 352.835755957 151.938476562 253.561523438 c 0
 151.938476562 149.42709916 203.339232216 79.9038671875 318.973671875 79.9038671875 c 0
 393.795275118 79.9038671875 433.423828125 109.305664062 433.423828125 109.305664062 c 1
 463.532148438 27.920703125 l 1
 463.532148438 27.920703125 404.079493473 -9.998046875 300.808671875 -9.998046875 c 0
 135.80423536 -9.998046875 46.35 94.0826581129 46.35 253.561523438 c 0
EndSplineSet
Substitution2: "'ss12' Style Set 12 lookup 13-1" c.ss12
EndChar

StartChar: t
Encoding: 116 116 41
Width: 412
Flags: W
HStem: -10 90.575<252.055 365.991> 415.75 85.2607<25.35 370.65>
VStem: 119.995 109.01<103.178 653.551>
AnchorPoint: "Anchor-0" 173 660 basechar 0
AnchorPoint: "Anchor-2" 208 0.0117188 basechar 0
LayerCount: 2
Fore
SplineSet
25.35 501.010742188 m 1
 370.65 501.010742188 l 1
 370.65 415.75 l 1
 25.35 415.75 l 1
 25.35 501.010742188 l 1
229.005 181.95 m 2
 229.005 111.11009605 253.552674329 80.575 311.95 80.575 c 0
 342.341615112 80.575 364.055 91.575 364.055 91.575 c 1
 375.65 4 l 1
 375.65 4 337.359869291 -10 282 -10 c 0
 150.152347707 -10 119.995 61.7947084118 119.995 166.95 c 2
 119.995 653.550742188 l 1
 229.005 667.335742188 l 1
 229.005 181.95 l 2
EndSplineSet
Substitution2: "'ss11' Style Set 11 lookup 12-1" t.ss11
EndChar

StartChar: r
Encoding: 114 114 42
Width: 420
Flags: W
HStem: 0 21G<66.62 175.63> 419.384 91.5494<221.842 383.788> 481.011 20G<66.62 175.63>
VStem: 66.62 109.01<0 501.011>
AnchorPoint: "Anchor-0" 235 501.011 basechar 0
AnchorPoint: "Anchor-2" 172 0.0117188 basechar 0
LayerCount: 2
Fore
SplineSet
66.62 0 m 1xb0
 66.62 501.010742188 l 1
 175.63 501.010742188 l 1
 175.63 0 l 1
 66.62 0 l 1xb0
308.355 510.93359375 m 0xd0
 380.334528775 510.93359375 402.3 484.93359375 402.3 484.93359375 c 1
 378.055 398.03359375 l 1
 378.055 398.03359375 345.997900509 419.384179688 295.975 419.384179688 c 0
 220.7620147 419.384179688 175.63 373.554559668 175.63 284 c 1
 123.6 293.561523438 l 1
 143.410469566 444 190.997023616 510.93359375 308.355 510.93359375 c 0xd0
EndSplineSet
EndChar

StartChar: e
Encoding: 101 101 43
Width: 551
Flags: W
HStem: -9.99805 88.3069<226.716 453.164> 208.645 80.06<125.225 409.37> 420.844 90.0894<210.094 359.817>
VStem: 125.225 29.1186<208.645 288.705>
AnchorPoint: "Anchor-0" 289 501.011 basechar 0
AnchorPoint: "Anchor-2" 302 0 basechar 0
AnchorPoint: "Anchor-3" 409 14 basechar 0
LayerCount: 2
Fore
SplineSet
46.35 253.561523438 m 4
 46.35 409.296356709 137.743589117 510.93359375 287.888671875 510.93359375 c 4
 460.89018496 510.93359375 515.115820312 374.296678446 515.115820312 276.4659375 c 4
 515.115820312 234.596086681 510.65 208.645 510.65 208.645 c 5
 125.225 208.645 l 5
 125.225 288.705 l 5
 409.37 288.705 l 5
 409.37 288.705 409.190327448 294.915067015 407.775 306.3 c 4
 401.163229111 365.718711145 370.488613564 420.844179688 282.675 420.844179688 c 4
 192.778127071 420.844179688 154.343632812 353.072463575 154.343632812 251.561523438 c 4
 154.343632812 138.347972345 204.84104475 78.3088671875 329.785 78.3088671875 c 4
 417.667795969 78.3088671875 467.748554688 106.440703125 467.748554688 106.440703125 c 5
 485.477148438 18.595703125 l 5
 485.477148438 18.595703125 426.439177111 -9.998046875 323.888671875 -9.998046875 c 4
 132.151066728 -9.998046875 46.35 94.0826581129 46.35 253.561523438 c 4
EndSplineSet
Substitution2: "'ss03' Style Set 3 lookup 4-1" e.ss03
EndChar

StartChar: d
Encoding: 100 100 44
Width: 602
Flags: W
HStem: -9.99805 92.6844<216.662 365.278> 0 21G<431.37 540.38> 417.437 93.4969<217.872 368.949> 731.002 20G<431.37 540.38>
VStem: 49.4213 105.399<146.444 351.169> 431.37 109.01<217.374 751.002> 431.37 41.4986<75.1885 217.374 317.374 434.496>
AnchorPoint: "Anchor-0" 473 750.002 basechar 0
AnchorPoint: "Anchor-2" 316 0 basechar 0
LayerCount: 2
Fore
SplineSet
540.38 0 m 1x7c
 431.37 0 l 1x7a
 431.37 751.001953125 l 1
 540.38 751.001953125 l 1
 540.38 0 l 1x7c
431.37 295.374023438 m 1xbc
 431.37 354.842570998 390.217051034 417.436679688 293.959960938 417.436679688 c 0
 197.842097686 417.436679688 154.819921875 349.353077625 154.819921875 247.374023438 c 0
 154.819921875 148.618772553 197.807656417 82.6863671875 293.848632812 82.6863671875 c 0
 390.182485323 82.6863671875 431.37 139.811173904 431.37 225.374023438 c 1xbc
 472.868632812 217.374023438 l 1xba
 472.868632812 75.1884765623 391.448141835 -9.998046875 266.05 -9.998046875 c 0
 128.446749006 -9.998046875 49.4212890625 91.6396484371 49.4212890625 247.374023438 c 0
 49.4212890625 406.852539062 132.130797206 510.93359375 268.009960938 510.93359375 c 0
 392.245816434 510.93359375 467.868632812 434.49609375 467.868632812 317.374023438 c 1
 431.37 295.374023438 l 1xbc
EndSplineSet
Substitution2: "'ss05' Style Set 5 lookup 6-1" d.ss05
EndChar

StartChar: b
Encoding: 98 98 45
Width: 602
Flags: W
HStem: -9.99805 92.6844<235.015 391.161> 0 21G<66.62 175.63> 417.437 93.4969<238.456 389.954> 731.002 20G<66.62 175.63>
VStem: 66.62 109.01<197.374 751.002> 135.481 40.1486<55.1885 197.374 297.374 424.496> 452.18 105.399<146.444 351.169>
AnchorPoint: "Anchor-0" 134 749.002 basechar 0
AnchorPoint: "Anchor-2" 296 0 basechar 0
LayerCount: 2
Fore
SplineSet
66.62 0 m 1x7a
 66.62 751.001953125 l 1
 175.63 751.001953125 l 1x7a
 175.63 0 l 1x76
 66.62 0 l 1x7a
175.63 295.374023438 m 1
 130.481367188 297.374023438 l 1
 130.481367188 424.49609375 209.887998182 510.93359375 340.340039062 510.93359375 c 0
 475.38001534 510.93359375 557.578710938 406.852539062 557.578710938 247.374023438 c 0
 557.578710938 91.6396484371 479.045726671 -9.998046875 342.3 -9.998046875 c 0
 216.901858165 -9.998046875 135.481367188 55.1884765623 135.481367188 197.374023438 c 1xb6
 175.63 225.374023438 l 1
 175.63 139.811173904 216.817514677 82.6863671875 313.151367188 82.6863671875 c 0xba
 410.542343583 82.6863671875 452.180078125 148.618772553 452.180078125 247.374023438 c 0
 452.180078125 349.353077625 410.507902314 417.436679688 313.040039062 417.436679688 c 0
 216.782948966 417.436679688 175.63 354.842570998 175.63 295.374023438 c 1
EndSplineSet
EndChar

StartChar: a
Encoding: 97 97 46
Width: 566
Flags: W
HStem: -9.99805 88.4419<167.099 315.045 466.145 537.15> 234.524 73.2492<198.974 373.853> 418.436 92.5752<146.386 326.774>
VStem: 36.35 111.859<96.0292 195.316> 358.004 105.55<89.7552 234.524 291.711 383.348> 358.004 42.1486<57.3566 160.562> 358.004 15.8488<234.524 307.774>
AnchorPoint: "Anchor-0" 274 501.011 basechar 0
AnchorPoint: "Anchor-2" 284 0 basechar 0
AnchorPoint: "Anchor-3" 458 0 basechar 0
LayerCount: 2
Back
SplineSet
357.928710938 177.561523438 m 5x7c
 407.77734375 180.561523438 l 5x7a
 407.77734375 65.2546726394 343.443566636 -9.998046875 207.888671875 -9.998046875 c 4
 103.525845263 -9.998046875 40 50 40 141 c 4
 40 286.71747631 179.159368499 309.798279039 373.928710938 309.93359375 c 5
 373.77734375 224.284179688 l 5x79
 214.9215174 224.170106541 164.848632812 210.544945242 164.848632812 148.561523438 c 4
 164.848632812 111.324445486 189.419144912 86.4638671875 246.888671875 86.4638671875 c 4
 313.711369303 86.4638671875 357.928710938 123.027306191 357.928710938 177.561523438 c 5x7c
357.928710938 299.010742188 m 6xbc
 357.928710938 377.97408765 325.670027448 412.010742188 248.928710938 412.010742188 c 4
 170.769677734 412.010742188 114.928710938 368.010742188 114.928710938 368.010742188 c 5
 79.9287109375 467.010742188 l 5
 79.9287109375 467.010742188 159.657226562 511.010742188 274.928710938 511.010742188 c 4
 417.721987032 511.010742188 476.928710938 427.01055301 476.928710938 300.010742188 c 6
 476.928710938 118 l 6
 476.928710938 93.251950046 485.36431245 84 507.928710938 84 c 4
 525.694039812 84 536.928710938 91 536.928710938 91 c 5
 545.928710938 13 l 5
 545.928710938 13 520.8653569 -9.998046875 467.928710938 -9.998046875 c 4
 394.082557091 -9.998046875 357.928710938 33 357.928710938 125 c 6
 357.928710938 299.010742188 l 6xbc
EndSplineSet
Fore
SplineSet
358.003710938 177.561523438 m 1xf8
 400.15234375 160.561523438 l 1xf4
 400.15234375 57.3565944282 341.491138327 -9.998046875 217.888671875 -9.998046875 c 0
 105.0407428 -9.998046875 36.35 49.5708693459 36.35 139.245 c 0
 36.35 284.708189382 187.648823572 307.638603441 374.003710938 307.77359375 c 1
 373.852539062 234.524414062 l 5xf2
 227.102719874 234.392035861 148.208632812 218.756658604 148.208632812 146.650717774 c 0
 148.208632812 106.104869137 173.667145078 78.4438671875 233.213671875 78.4438671875 c 0
 308.310970946 78.4438671875 358.003710938 118.226255974 358.003710938 177.561523438 c 1xf8
358.003710938 291.710742188 m 2xf8
 358.003710938 380.264853082 335.23439598 418.435546875 247.278320312 418.435546875 c 0
 169.483834838 418.435546875 113.903320312 379.435546875 113.903320312 379.435546875 c 1
 84.9287109375 467.010742188 l 1
 84.9287109375 467.010742188 156.336840444 511.010742188 259.578710938 511.010742188 c 0
 403.768109409 511.010742188 463.553710938 428.085436947 463.553710938 302.710742188 c 2
 463.553710938 124.65 l 2
 463.553710938 89.7552495649 473.158051433 76.71 498.848710938 76.71 c 0
 521.349418853 76.71 535.578710938 84.845 535.578710938 84.845 c 1
 544.578710938 10.785 l 1
 544.578710938 10.785 520.044626573 -9.998046875 469.828334961 -9.998046875 c 0
 394.198578718 -9.998046875 358.003710938 32.5700133104 358.003710938 123.65 c 2
 358.003710938 291.710742188 l 2xf8
EndSplineSet
Substitution2: "'ss15' Style Set 15 lookup 20-1" a.ss15
Substitution2: "'ss02' Style Set 2 lookup 3-1" a.ss02
EndChar

StartChar: plus
Encoding: 43 43 47
Width: 450
Flags: W
HStem: 313.78 88.44<30 420>
VStem: 180.78 88.44<163 553>
LayerCount: 2
Fore
SplineSet
269.22 553 m 1
 269.22 163 l 1
 180.78 163 l 1
 180.78 553 l 1
 269.22 553 l 1
420 313.78 m 1
 30 313.78 l 1
 30 402.22 l 1
 420 402.22 l 1
 420 313.78 l 1
EndSplineSet
EndChar

StartChar: s
Encoding: 115 115 48
Width: 476
Flags: W
HStem: -9.99805 86.2295<99.4948 306.633> 423.194 87.7393<178.497 377.422>
VStem: 50.5541 106.608<320.806 402.757> 325.621 104.719<96.3064 178.762>
AnchorPoint: "Anchor-0" 257 501.011 basechar 0
AnchorPoint: "Anchor-2" 235 0.0117188 basechar 0
LayerCount: 2
Fore
SplineSet
213.49581543 210.047114258 m 0
 84.963766635 237.358959923 50.5541015625 283.567284647 50.5541015625 356.35 c 0
 50.5541015625 452.645014872 128.297717113 510.93359375 256.017578125 510.93359375 c 0
 364.31622541 510.93359375 416.984960938 473.225585938 416.984960938 473.225585938 c 1
 393.294921875 394.464335938 l 1
 393.294921875 394.464335938 342.163855342 423.194296875 266.798164062 423.194296875 c 0
 191.172386547 423.194296875 157.16171875 398.95573819 157.16171875 359.868554688 c 0
 157.16171875 327.660041101 179.530524084 309.476851851 255.893168945 292.523652343 c 0
 382.530321435 263.969045612 430.339453125 218.666402652 430.339453125 142.05234375 c 0
 430.339453125 48.3454260815 359.843229704 -9.998046875 227.856445312 -9.998046875 c 0
 114.930423307 -9.998046875 43.35 26.5625 43.35 26.5625 c 1
 65.314453125 112.111328125 l 1
 65.314453125 112.111328125 132.554998645 76.2314453125 214.993164062 76.2314453125 c 0
 289.939410553 76.2314453125 325.620507812 96.8988264946 325.620507812 136.986914062 c 0
 325.620507812 170.475392825 307.223080836 190.297494858 213.49581543 210.047114258 c 0
EndSplineSet
EndChar

StartChar: y
Encoding: 121 121 49
Width: 539
Flags: W
HStem: 481.011 20G<16.35 138.736 400.968 522.65>
AnchorPoint: "Anchor-0" 277 501.011 basechar 0
AnchorPoint: "Anchor-2" 192 -179.994 basechar 0
LayerCount: 2
Fore
SplineSet
215.995 32.895 m 1
 16.35 501.010742188 l 1
 130.36 501.010742188 l 1
 275.606445312 154.194335938 l 1
 408.64 501.010742188 l 1
 522.65 501.010742188 l 1
 250.735 -179.994140625 l 1
 131.265 -179.994140625 l 1
 215.995 32.895 l 1
EndSplineSet
Substitution2: "'ss04' Style Set 4 lookup 5-1" y.ss04
EndChar

StartChar: u
Encoding: 117 117 50
Width: 595
Flags: W
HStem: -9.92285 88.8994<220.552 363.784> 0 21G<421.497 530.507> 481.011 20G<66.62 175.63 421.497 530.507>
VStem: 66.62 109.01<127.367 501.011> 421.497 109.01<207.449 501.011>
AnchorPoint: "Anchor-0" 302 501.011 basechar 0
AnchorPoint: "Anchor-2" 312 0.0117188 basechar 0
AnchorPoint: "Anchor-3" 464 0 basechar 0
LayerCount: 2
Fore
SplineSet
421.49734375 217.010742188 m 9xb8
 473.79734375 207.44921875 l 17
 450.380282326 57.0107421877 392.15331003 -9.9228515625 256.47734375 -9.9228515625 c 0
 131.097990104 -9.9228515625 66.62 57.8006555513 66.62 199.14921875 c 2
 66.62 501.010742188 l 1
 175.63 501.010742188 l 1
 175.63 216.14921875 l 2
 175.63 126.554901811 211.345284797 78.9765625 295.42734375 78.9765625 c 0
 381.040115746 78.9765625 421.49734375 134.238060911 421.49734375 217.010742188 c 9xb8
530.50734375 501.010742188 m 1
 530.50734375 0 l 1
 421.49734375 0 l 1x78
 421.49734375 501.010742188 l 1
 530.50734375 501.010742188 l 1
EndSplineSet
Substitution2: "'ss05' Style Set 5 lookup 6-1" u.ss05
EndChar

StartChar: backslash
Encoding: 92 92 51
Width: 434
Flags: W
LayerCount: 2
Fore
SplineSet
304.455 -171.469726562 m 1
 29.455 761.403320312 l 1
 129.545 761.403320312 l 1
 404.545 -171.469726562 l 1
 304.455 -171.469726562 l 1
EndSplineSet
EndChar

StartChar: equal
Encoding: 61 61 52
Width: 450
Flags: W
HStem: 233.24 79.925<30 420> 402.835 79.925<30 420>
LayerCount: 2
Back
SplineSet
420 285 m 5xea
 30 285 l 5
 30 431 l 5
 420 431 l 5
 420 285 l 5xea
EndSplineSet
Fore
SplineSet
420 233.24 m 1
 30 233.24 l 1
 30 313.165 l 1
 420 313.165 l 1
 420 233.24 l 1
420 402.835 m 1
 30 402.835 l 1
 30 482.76 l 1
 420 482.76 l 1
 420 402.835 l 1
EndSplineSet
EndChar

StartChar: v
Encoding: 118 118 53
Width: 539
Flags: W
HStem: 0 21G<202.654 345.947> 481.011 20G<16.35 137.685 401.735 522.65>
AnchorPoint: "Anchor-0" 272 501.011 basechar 0
AnchorPoint: "Anchor-2" 273 0.0117188 basechar 0
LayerCount: 2
Fore
SplineSet
210.4 0 m 1
 16.35 501.010742188 l 1
 130.36 501.010742188 l 1
 273.606445312 109.894335938 l 1
 408.64 501.010742188 l 1
 522.65 501.010742188 l 1
 338.6 0 l 1
 210.4 0 l 1
EndSplineSet
EndChar

StartChar: w
Encoding: 119 119 54
Width: 735
Flags: W
HStem: 0 21G<146.244 278.145 455.915 587.796> 481.011 20G<16.35 122.17 612.83 718.65>
AnchorPoint: "Anchor-0" 368 501.011 basechar 0
AnchorPoint: "Anchor-2" 370 0 basechar 0
LayerCount: 2
Fore
SplineSet
151.645 0 m 1
 16.35 501.010742188 l 1
 122.17 501.010742188 l 1
 215.256445312 120.544335938 l 1
 303.86 451.010742188 l 1
 431.005 451.010742188 l 1
 519.743554688 120.544335938 l 1
 612.83 501.010742188 l 1
 718.65 501.010742188 l 1
 582.355 0 l 1
 461.535 0 l 1
 367.5 334.641796875 l 1
 272.465 0 l 1
 151.645 0 l 1
EndSplineSet
EndChar

StartChar: x
Encoding: 120 120 55
Width: 528
Flags: W
HStem: 0 21G<16.35 158.213 370.395 511.65> 481.011 20G<26.35 160.709 367.291 501.65>
VStem: 243.97 40.06<203.43 290.46>
AnchorPoint: "Anchor-0" 266 501.011 basechar 0
AnchorPoint: "Anchor-2" 267 0 basechar 0
LayerCount: 2
Fore
SplineSet
144.495 0 m 1
 16.35 0 l 1
 200.13 252.135 l 1
 26.35 501.010742188 l 1
 147.765 501.010742188 l 1
 284.03 290.46 l 1
 284.03 203.43 l 1
 144.495 0 l 1
384.18 0 m 1
 243.97 203.43 l 1
 243.97 290.46 l 1
 380.235 501.010742188 l 1
 501.65 501.010742188 l 1
 327.87 252.135 l 1
 511.65 0 l 1
 384.18 0 l 1
EndSplineSet
EndChar

StartChar: z
Encoding: 122 122 56
Width: 478
Flags: W
HStem: 0 92.575<167.47 438> 408.436 92.575<50 300.53>
AnchorPoint: "Anchor-0" 240 501.011 basechar 0
AnchorPoint: "Anchor-2" 246 0 basechar 0
LayerCount: 2
Fore
SplineSet
438 0 m 1
 40 0 l 1
 40 89.25 l 1
 300.53 408.435742188 l 1
 50 408.435742188 l 1
 50 501.010742188 l 1
 428 501.010742188 l 1
 428 412.435742188 l 1
 167.47 92.575 l 1
 438 92.575 l 1
 438 0 l 1
EndSplineSet
EndChar

StartChar: period
Encoding: 46 46 57
Width: 245
Flags: W
HStem: -10 138.349<70.5759 174.65>
VStem: 54.05 137.127<6.67341 111.676>
LayerCount: 2
Fore
SplineSet
54.05 59.174609375 m 0
 54.05 101.08139961 81.0758456669 128.34921875 122.612304688 128.34921875 c 0
 164.149793941 128.34921875 191.1765625 101.08139961 191.1765625 59.174609375 c 0
 191.1765625 17.2670945106 164.149793941 -10 122.612304688 -10 c 0
 81.0758456671 -10 54.05 17.2670945106 54.05 59.174609375 c 0
EndSplineSet
EndChar

StartChar: two
Encoding: 50 50 58
Width: 608
Flags: W
HStem: 0 100.495<173.878 568.549> 635.184 103.809<175.876 389.886>
VStem: 49.35 124.528<100.495 154.434> 444.531 114.881<452.451 585.279>
LayerCount: 2
Fore
SplineSet
444.53078125 517.485 m 0
 444.53078125 585.020143548 403.896097096 635.183632812 284.678125 635.183632812 c 0
 183.613592657 635.183632812 111.243085938 580.934882812 111.243085938 580.934882812 c 1
 71.537265625 676.336875 l 1
 71.537265625 676.336875 159.71047402 738.9921875 288.04140625 738.9921875 c 0
 457.258508361 738.9921875 559.41171875 663.022308181 559.41171875 513.09359375 c 0
 559.41171875 385.720725256 467.47809792 330.435293413 349.374023438 268.1534375 c 0
 189.302404668 184.684650229 175.720406809 138.732343268 173.878476562 100.495 c 1
 568.548828125 100.495 l 1
 568.548828125 0 l 1
 49.35 0 l 1
 49.35 54 l 2
 49.35 202.547351145 144.801707623 287.200967054 314.821289062 372.206953125 c 0
 393.57326012 411.103354054 444.53078125 453.940267011 444.53078125 517.485 c 0
EndSplineSet
Substitution2: "'onum' Oldstyle Figures lookup 18-1" two.osf
Substitution2: "'tnum' Tabular Numbers lookup 17-1" two.tf
Substitution2: "'numr' Numerators lookup 0 subtable" two.numr
Substitution2: "'dnom' Denominators lookup 0 subtable" two.dnom
Substitution2: "'sups' Superscript lookup 0 subtable" two.superior
Substitution2: "'sinf' Scientific Inferiors lookup 0 subtable" two.inferior
Substitution2: "'sups' Superscript lookup 0 subtable" two.superior
EndChar

StartChar: three
Encoding: 51 51 59
Width: 579
Flags: W
HStem: -9.99805 99.1625<112.736 355.476> 325.05 95.3814<164.139 363.137> 636.049 102.944<122.399 352.417>
VStem: 402.839 114.881<456.374 592.326> 414.087 119.474<141.471 277.584>
LayerCount: 2
Fore
SplineSet
265.138671875 420.431445312 m 2xe8
 366.250269268 420.431445312 402.839375 455.681379758 402.839375 525.81359375 c 0
 402.839375 588.477680957 365.614990217 636.048632812 245.630761719 636.048632812 c 0
 134.857662619 636.048632812 68.0366796875 587.799882812 68.0366796875 587.799882812 c 1
 35.980859375 684.796875 l 1
 35.980859375 684.796875 115.158184759 738.9921875 252.405 738.9921875 c 0
 417.074190007 738.9921875 517.7203125 668.183547634 517.7203125 533.813164062 c 0xf0
 517.7203125 410.548693682 406.113085938 375.292265625 406.113085938 375.292265625 c 1
 406.113085938 375.292265625 533.561132812 342.168896384 533.561132812 204.365327149 c 0
 533.561132812 51.9314457988 420.206025218 -9.998046875 250 -9.998046875 c 0
 103.781039389 -9.998046875 16.801171875 40.9091796875 16.801171875 40.9091796875 c 1
 48.0994140625 141.082695312 l 1
 48.0994140625 141.082695312 122.797380252 89.164453125 241.35 89.164453125 c 0
 360.415355524 89.164453125 414.087148438 131.147497925 414.087148438 206.84 c 0
 414.087148438 286.709077247 362.871097348 324.518253862 265.138671875 324.787304688 c 2
 164 325.05 l 1
 164.138671875 420.431445312 l 1
 265.138671875 420.431445312 l 2xe8
EndSplineSet
Substitution2: "'onum' Oldstyle Figures lookup 18-1" three.osf
Substitution2: "'tnum' Tabular Numbers lookup 17-1" three.tf
Substitution2: "'numr' Numerators lookup 0 subtable" three.numr
Substitution2: "'dnom' Denominators lookup 0 subtable" three.dnom
Substitution2: "'sups' Superscript lookup 0 subtable" three.superior
Substitution2: "'sinf' Scientific Inferiors lookup 0 subtable" three.inferior
Substitution2: "'sups' Superscript lookup 0 subtable" three.superior
EndChar

StartChar: comma
Encoding: 44 44 61
Width: 252
Flags: W
HStem: -112.76 241.109
VStem: 54.05 144.127<9.72613 108.331>
LayerCount: 2
Fore
SplineSet
54.05 59.174609375 m 0
 54.05 101.08139961 81.0758456669 128.34921875 122.612304688 128.34921875 c 0
 168.390522771 128.34921875 198.1765625 99.0248380233 198.1765625 45.95 c 0
 198.1765625 -42.9267914287 106.92 -112.76 106.92 -112.76 c 1
 63.755 -71.65 l 1
 63.755 -71.65 103.856423376 -41.7669437615 121.623242188 -9.85421875 c 1
 80.3447263028 -6.29838400974 54.05 20.0976194969 54.05 59.174609375 c 0
EndSplineSet
EndChar

StartChar: zero
Encoding: 48 48 63
Width: 683
Flags: W
HStem: -9.99805 100.822<258.607 425.171> 638.299 100.822<258.607 425.171>
VStem: 46.35 112.589<217.963 511.16> 524.839 112.589<217.963 511.16>
LayerCount: 2
Fore
SplineSet
158.938632812 364.561523438 m 0
 158.938632812 200.413775206 213.7311 90.8238671875 341.888671875 90.8238671875 c 0
 470.04624375 90.8238671875 524.838710938 200.413775206 524.838710938 364.561523438 c 0
 524.838710938 528.709271664 470.04624375 638.299179688 341.888671875 638.299179688 c 0
 213.7311 638.299179688 158.938632812 528.709271664 158.938632812 364.561523438 c 0
46.35 364.561523438 m 0
 46.35 591.206054688 148.545991757 739.12109375 341.888671875 739.12109375 c 0
 535.231351993 739.12109375 637.42734375 591.206054688 637.42734375 364.561523438 c 0
 637.42734375 137.916992188 535.231351993 -9.998046875 341.888671875 -9.998046875 c 0
 148.545991757 -9.998046875 46.35 137.916992188 46.35 364.561523438 c 0
EndSplineSet
Substitution2: "'onum' Oldstyle Figures lookup 18-1" zero.osf
Substitution2: "'tnum' Tabular Numbers lookup 17-1" zero.tf
Substitution2: "'numr' Numerators lookup 0 subtable" zero.numr
Substitution2: "'dnom' Denominators lookup 0 subtable" zero.dnom
Substitution2: "'sups' Superscript lookup 0 subtable" zero.superior
Substitution2: "'sinf' Scientific Inferiors lookup 0 subtable" zero.inferior
Substitution2: "'sups' Superscript lookup 0 subtable" zero.superior
EndChar

StartChar: one
Encoding: 49 49 64
Width: 415
Flags: W
HStem: 0 21G<229.1 347.3> 711 20G<209.994 347.3>
VStem: 229.1 118.2<0 607.855>
LayerCount: 2
Fore
SplineSet
347.3 731 m 1
 347.3 0 l 1
 229.1 0 l 1
 229.1 607.855 l 1
 68 520.155 l 1
 24.05 608 l 1
 246.1 731 l 1
 347.3 731 l 1
EndSplineSet
Substitution2: "'onum' Oldstyle Figures lookup 18-1" one.osf
Substitution2: "'tnum' Tabular Numbers lookup 17-1" one.tf
Substitution2: "'numr' Numerators lookup 0 subtable" one.numr
Substitution2: "'dnom' Denominators lookup 0 subtable" one.dnom
Substitution2: "'sups' Superscript lookup 0 subtable" one.superior
Substitution2: "'sinf' Scientific Inferiors lookup 0 subtable" one.inferior
Substitution2: "'sups' Superscript lookup 0 subtable" one.superior
EndChar

StartChar: four
Encoding: 52 52 65
Width: 660
Flags: W
HStem: 0 21G<400.13 512.87> 180.78 97.495<176.9 618.65> 711 20G<386.691 512.87>
VStem: 400.13 112.74<0 565.85>
LayerCount: 2
Fore
SplineSet
512.87 731 m 1
 512.87 0 l 1
 400.13 0 l 1
 400.13 565.85 l 1
 176.9 278.275 l 1
 618.65 278.275 l 1
 618.65 180.78 l 1
 67.35 180.78 l 1
 45.7 269.275 l 1
 402.13 731 l 1
 512.87 731 l 1
EndSplineSet
Substitution2: "'onum' Oldstyle Figures lookup 18-1" four.osf
Substitution2: "'tnum' Tabular Numbers lookup 17-1" four.tf
Substitution2: "'numr' Numerators lookup 0 subtable" four.numr
Substitution2: "'dnom' Denominators lookup 0 subtable" four.dnom
Substitution2: "'sups' Superscript lookup 0 subtable" four.superior
Substitution2: "'sinf' Scientific Inferiors lookup 0 subtable" four.inferior
Substitution2: "'sups' Superscript lookup 0 subtable" four.superior
EndChar

StartChar: exclam
Encoding: 33 33 66
Width: 274
Flags: W
HStem: -10 138.349<84.9626 189.037> 711.008 20G<81.86 196.14>
VStem: 68.4367 137.127<6.67341 111.676> 81.86 114.28<482.062 731.008> 96.51 84.98<210 458.946>
LayerCount: 2
Fore
SplineSet
96.51 210 m 1xc8
 81.86 731.0078125 l 1
 196.14 731.0078125 l 1xd0
 181.49 210 l 1
 96.51 210 l 1xc8
68.43671875 59.174609375 m 0xe0
 68.43671875 101.08139961 95.4625644169 128.34921875 136.999023438 128.34921875 c 0
 178.536512691 128.34921875 205.56328125 101.08139961 205.56328125 59.174609375 c 0
 205.56328125 17.2670945106 178.536512691 -10 136.999023438 -10 c 0
 95.462564417 -10 68.43671875 17.2670945106 68.43671875 59.174609375 c 0xe0
EndSplineSet
EndChar

StartChar: five
Encoding: 53 53 67
Width: 594
Flags: W
HStem: -9.99805 104.308<124.233 362.213> 383.091 96.7946<207.554 375.957> 629.616 101.392<190.38 504.672>
VStem: 432.7 115.777<161.304 328.397>
LayerCount: 2
Fore
SplineSet
267 -9.998046875 m 4
 116.391940471 -9.998046875 26.801171875 40.9091796875 26.801171875 40.9091796875 c 5
 57.0994140625 144.407695312 l 5
 57.0994140625 144.407695312 142.390721964 94.30953125 252 94.30953125 c 4
 381.714207792 94.30953125 432.699726562 151.556370701 432.699726562 244.226171875 c 4
 432.699726562 331.198777265 385.932427398 383.090546875 292.35 383.090546875 c 4
 192.180612486 383.090546875 158.52 312.81 158.52 312.81 c 5
 62.622265625 340.243515625 l 5
 98.675 731.0078125 l 5
 504.671875 731.0078125 l 5
 504.671875 629.615820312 l 5
 190.3796875 629.615820312 l 5
 171.560703125 437.007265625 l 5
 171.560703125 437.007265625 205.501646672 479.885117188 314.815429688 479.885117188 c 4
 464.55636578 479.885117188 548.477148438 392.274941235 548.477148438 246.147070312 c 4
 548.477148438 87.3850084819 452.3234113 -9.998046875 267 -9.998046875 c 4
EndSplineSet
Substitution2: "'onum' Oldstyle Figures lookup 18-1" five.osf
Substitution2: "'tnum' Tabular Numbers lookup 17-1" five.tf
Substitution2: "'numr' Numerators lookup 0 subtable" five.numr
Substitution2: "'dnom' Denominators lookup 0 subtable" five.dnom
Substitution2: "'sups' Superscript lookup 0 subtable" five.superior
Substitution2: "'sinf' Scientific Inferiors lookup 0 subtable" five.inferior
Substitution2: "'sups' Superscript lookup 0 subtable" five.superior
EndChar

StartChar: six
Encoding: 54 54 68
Width: 640
Flags: W
HStem: -9.99805 99.6537<238.703 422.26> 384.126 92.474<238.79 423.017> 637.7 101.293<260.51 486.729>
VStem: 46.35 107.504<397.597 513.628> 486.903 106.912<151.692 319.898>
LayerCount: 2
Back
SplineSet
188.3984375 236.890625 m 4
 188.3984375 160.019065367 229.88147703 103.890625 330.3984375 103.890625 c 4
 431.623435844 103.890625 473.3984375 160.019065367 473.3984375 236.890625 c 4
 473.3984375 314.340166284 431.623435844 370.890625 330.3984375 370.890625 c 4
 229.88147703 370.890625 188.3984375 314.340166284 188.3984375 236.890625 c 4
173.303710938 405.747070312 m 5
 173.303710938 405.747070312 214.094697864 475.599609375 341.263671875 475.599609375 c 4
 515.711185917 475.599609375 595.165039062 379.238029036 595.165039062 239 c 4
 595.165039062 79.095703125 494.937095781 -9.998046875 331.297851562 -9.998046875 c 4
 151.540405276 -9.998046875 45 99.6728515624 45 365.331054688 c 4
 45 605.528320312 159.046377502 738.9921875 364.297851562 738.9921875 c 4
 505.428880973 738.9921875 576.923828125 678.860351562 576.923828125 678.860351562 c 5
 532.619140625 573.388671875 l 5
 532.619140625 573.388671875 473.487673927 622.51953125 364.778320312 622.51953125 c 4
 242.266224145 622.51953125 180.301516454 546.295339891 173.303710938 405.747070312 c 5
EndSplineSet
Fore
SplineSet
174.3534375 236.890625 m 0
 174.3534375 151.79149656 221.270836606 89.655625 330.3984375 89.655625 c 0
 440.650751411 89.655625 486.9034375 151.79149656 486.9034375 236.890625 c 0
 486.9034375 321.98975344 441.183181318 384.125625 330.3984375 384.125625 c 0
 221.270836606 384.125625 174.3534375 321.98975344 174.3534375 236.890625 c 0
153.853710938 397.597070312 m 1
 153.853710938 397.597070312 195.930726754 476.599609375 343.453671875 476.599609375 c 0
 497.248374227 476.599609375 593.815039062 379.830752031 593.815039062 239 c 0
 593.815039062 79.095703125 494.099883008 -9.998046875 331.297851562 -9.998046875 c 0
 151.173027956 -9.998046875 46.35 99.6728515624 46.35 365.331054688 c 0
 46.35 605.528320312 156.342399755 738.9921875 354.297851562 738.9921875 c 0
 500.274274425 738.9921875 574.223828125 679.805351562 574.223828125 679.805351562 c 1
 539.619140625 588.838671875 l 1
 539.619140625 588.838671875 477.383850789 637.69953125 362.968320312 637.69953125 c 0
 229.169540321 637.69953125 160.191330411 557.586597729 153.853710938 397.597070312 c 1
EndSplineSet
Substitution2: "'onum' Oldstyle Figures lookup 18-1" six.osf
Substitution2: "'tnum' Tabular Numbers lookup 17-1" six.tf
Substitution2: "'numr' Numerators lookup 0 subtable" six.numr
Substitution2: "'dnom' Denominators lookup 0 subtable" six.dnom
Substitution2: "'ss07' Style Set 7 lookup 8-1" six.ss07
Substitution2: "'sups' Superscript lookup 0 subtable" six.superior
Substitution2: "'sinf' Scientific Inferiors lookup 0 subtable" six.inferior
Substitution2: "'sups' Superscript lookup 0 subtable" six.superior
EndChar

StartChar: parenright
Encoding: 41 41 69
Width: 402
Flags: W
HStem: -171.47 94.6954<41.35 131.625> 664.774 94.6954<41.35 131.625>
VStem: 253.683 107.094<88.209 499.791>
LayerCount: 2
Fore
SplineSet
41.35 -76.7743359376 m 1
 182.303582267 -76.7743359376 253.683242188 25.9532936967 253.683242188 294 c 0
 253.683242188 562.046706302 182.303582267 664.774335938 41.35 664.774335938 c 1
 41.35 759.469726562 l 1
 249.063525211 759.469726562 360.776953125 611.823242188 360.776953125 294 c 0
 360.776953125 -23.8232421878 249.063525211 -171.469726562 41.35 -171.469726562 c 1
 41.35 -76.7743359376 l 1
EndSplineSet
EndChar

StartChar: seven
Encoding: 55 55 70
Width: 604
Flags: W
HStem: 0 21G<184.67 305.383> 629.64 101.36<50 429.07>
VStem: 184.67 118.93<0 158.769>
LayerCount: 2
Fore
SplineSet
303.6 0 m 1
 184.67 0 l 1
 197.104451254 351.971076923 429.07 629.64 429.07 629.64 c 1
 50 629.64 l 1
 50 731 l 1
 554 731 l 1
 554 633.64 l 1
 554 633.64 307.166797794 362.271344 303.6 0 c 1
EndSplineSet
Substitution2: "'onum' Oldstyle Figures lookup 18-1" seven.osf
Substitution2: "'tnum' Tabular Numbers lookup 17-1" seven.tf
Substitution2: "'numr' Numerators lookup 0 subtable" seven.numr
Substitution2: "'dnom' Denominators lookup 0 subtable" seven.dnom
Substitution2: "'sups' Superscript lookup 0 subtable" seven.superior
Substitution2: "'sinf' Scientific Inferiors lookup 0 subtable" seven.inferior
Substitution2: "'sups' Superscript lookup 0 subtable" seven.superior
EndChar

StartChar: eight
Encoding: 56 56 71
Width: 647
Flags: W
HStem: -9.99805 94.6637<220.103 426.897> 336.447 88.6991<240.192 410.1> 360.923 45.5568<166.073 484.181> 643.233 95.6517<237.374 415.095>
VStem: 46.35 111.103<141.871 278.664> 81.6098 106.698<469.866 598.803> 463.692 106.698<469.866 597.735> 489.547 111.103<141.871 278.664>
LayerCount: 2
Fore
SplineSet
323.77 425.146523438 m 0xd6
 410.100092427 425.146523438 463.691757812 466.956480332 463.691757812 533.354140625 c 0
 463.691757812 602.440021528 412.098429948 643.233046875 323.5 643.233046875 c 0
 238.061828242 643.233046875 188.308242188 602.440021528 188.308242188 533.354140625 c 0
 188.308242188 466.956480332 240.191702573 425.146523438 323.77 425.146523438 c 0xd6
323.5 738.884765625 m 0
 477.38622385 738.884765625 570.390234375 665.090820312 570.390234375 543.655273438 c 0
 570.390234375 426.096307991 484.181342707 360.923242188 323.5 360.923242188 c 0xb6
 166.072576119 360.923242188 81.609765625 426.096307991 81.609765625 543.655273438 c 0
 81.609765625 665.090820312 172.7300048 738.884765625 323.5 738.884765625 c 0
323.5 84.665625 m 0
 429.450732838 84.665625 489.547421875 129.931242512 489.547421875 211.725507812 c 0
 489.547421875 288.003844761 429.473764058 336.447460938 323.5 336.447460938 c 0xd1
 217.526235942 336.447460938 157.452578125 288.003844761 157.452578125 211.725507812 c 0
 157.452578125 129.931242512 217.549267162 84.665625 323.5 84.665625 c 0
323.5 406.480078125 m 0xb9
 502.285836849 406.480078125 600.65 335.238163383 600.65 206.356835938 c 0
 600.65 75.372835777 491.621965336 -9.998046875 323.5 -9.998046875 c 0
 155.378034664 -9.998046875 46.35 75.3728357772 46.35 206.356835938 c 0
 46.35 335.238163383 144.714163151 406.480078125 323.5 406.480078125 c 0xb9
EndSplineSet
Substitution2: "'onum' Oldstyle Figures lookup 18-1" eight.osf
Substitution2: "'tnum' Tabular Numbers lookup 17-1" eight.tf
Substitution2: "'numr' Numerators lookup 0 subtable" eight.numr
Substitution2: "'dnom' Denominators lookup 0 subtable" eight.dnom
Substitution2: "'sups' Superscript lookup 0 subtable" eight.superior
Substitution2: "'sinf' Scientific Inferiors lookup 0 subtable" eight.inferior
Substitution2: "'sups' Superscript lookup 0 subtable" eight.superior
EndChar

StartChar: nine
Encoding: 57 57 72
Width: 640
Flags: W
HStem: -9.99805 101.293<153.436 379.655> 252.395 92.744<221.106 402.247> 639.339 99.6537<218.8 402.352>
VStem: 46.35 108.642<409.173 577.302> 486.311 107.504<215.366 331.397>
LayerCount: 2
Fore
SplineSet
467.541601562 492.103515625 m 0
 467.541601562 577.202644065 420.624202457 639.338515625 311.496601562 639.338515625 c 0
 201.377395129 639.338515625 154.991601562 577.202644065 154.991601562 492.103515625 c 0
 154.991601562 407.160442231 200.711857746 345.138515625 311.496601562 345.138515625 c 0
 420.624202457 345.138515625 467.541601562 407.160442231 467.541601562 492.103515625 c 0
486.311328125 331.397070312 m 1
 486.311328125 331.397070312 444.265821212 252.39453125 296.711367188 252.39453125 c 0
 142.916664836 252.39453125 46.35 349.164169963 46.35 489.994140625 c 0
 46.35 649.8984375 146.065156056 738.9921875 308.8671875 738.9921875 c 0
 489.127011106 738.9921875 593.815039062 629.321289062 593.815039062 363.663085938 c 0
 593.815039062 123.465820312 483.822639307 -9.998046875 285.8671875 -9.998046875 c 0
 139.890764637 -9.998046875 65.9412109375 49.1887890625 65.9412109375 49.1887890625 c 1
 100.545898438 140.15546875 l 1
 100.545898438 140.15546875 162.781188274 91.294609375 277.19671875 91.294609375 c 0
 410.995498742 91.294609375 479.97370865 171.407786453 486.311328125 331.397070312 c 1
EndSplineSet
Substitution2: "'onum' Oldstyle Figures lookup 18-1" nine.osf
Substitution2: "'tnum' Tabular Numbers lookup 17-1" nine.tf
Substitution2: "'numr' Numerators lookup 0 subtable" nine.numr
Substitution2: "'dnom' Denominators lookup 0 subtable" nine.dnom
Substitution2: "'ss07' Style Set 7 lookup 8-1" nine.ss07
Substitution2: "'sups' Superscript lookup 0 subtable" nine.superior
Substitution2: "'sinf' Scientific Inferiors lookup 0 subtable" nine.inferior
Substitution2: "'sups' Superscript lookup 0 subtable" nine.superior
EndChar

StartChar: question
Encoding: 63 63 73
Width: 562
Flags: W
HStem: -10 138.349<172.963 277.037> 299.594 85.7051<217.515 358.164> 637.409 101.584<122.326 341.144>
VStem: 156.437 137.127<6.67341 111.676> 176.473 98.8561<210 300.923> 407.546 112.974<433.349 578.525>
LayerCount: 2
Back
SplineSet
152.38671875 63.224609375 m 0xf4
 152.38671875 107.584937143 181.008990842 136.44921875 224.999023438 136.44921875 c 0
 268.990077228 136.44921875 297.61328125 107.584937143 297.61328125 63.224609375 c 0
 297.61328125 18.8635145521 268.990077228 -10 224.999023438 -10 c 0
 181.008990842 -10 152.38671875 18.8635145521 152.38671875 63.224609375 c 0xf4
280.88671875 300.653320312 m 1
 282.37890625 210 l 1
 169.422851562 210 l 1xec
 171.15625 399.46875 l 1
 171.15625 399.46875 208.949224154 395.048828125 256.3984375 395.048828125 c 0
 348.180522211 395.048828125 392.095703125 431.389934102 392.095703125 499.145507812 c 0
 392.095703125 585.201602829 327.571533338 623.228515625 232.89453125 623.228515625 c 0
 138.66274719 623.228515625 76.923828125 573.958007812 76.923828125 573.958007812 c 1
 30.2412109375 685.311523438 l 1
 30.2412109375 685.311523438 107.390463661 738.9921875 239.89453125 738.9921875 c 0
 405.150107971 738.9921875 521.870117188 670 521.870117188 501.010742188 c 0
 521.870117188 365.685958308 421.37343496 300.59375 309 300.59375 c 0
 290.63582236 300.59375 280.88671875 300.653320312 280.88671875 300.653320312 c 1
EndSplineSet
Fore
SplineSet
156.43671875 59.174609375 m 0xf4
 156.43671875 101.08139961 183.462564417 128.34921875 224.999023438 128.34921875 c 0
 266.536512691 128.34921875 293.56328125 101.08139961 293.56328125 59.174609375 c 0
 293.56328125 17.2670945106 266.536512691 -10 224.999023438 -10 c 0
 183.462564417 -10 156.43671875 17.2670945106 156.43671875 59.174609375 c 0xf4
273.83671875 300.923320312 m 1
 275.32890625 210 l 1
 176.472851562 210 l 1xec
 178.20625 389.98875 l 1
 178.20625 389.98875 213.050880317 385.298828125 256.7984375 385.298828125 c 0
 358.759948956 385.298828125 407.545703125 426.44018526 407.545703125 503.145507812 c 0
 407.545703125 596.261804404 338.380853025 637.408515625 236.89453125 637.408515625 c 0
 130.564375906 637.408515625 60.898828125 583.408007812 60.898828125 583.408007812 c 1
 21.5912109375 685.311523438 l 1
 21.5912109375 685.311523438 101.923532907 738.9921875 239.89453125 738.9921875 c 0
 404.358922352 738.9921875 520.520117188 661.327703299 520.520117188 505.010742188 c 0
 520.520117188 366.309877707 413.400203429 299.59375 310.38 299.59375 c 0
 286.509171745 299.59375 273.83671875 300.923320312 273.83671875 300.923320312 c 1
EndSplineSet
EndChar

StartChar: hyphen
Encoding: 45 45 74
Width: 354
Flags: W
HStem: 232.05 94.9<41.35 312.65>
VStem: 41.35 271.3<232.05 326.95>
LayerCount: 2
Fore
SplineSet
312.65 232.05 m 1
 41.35 232.05 l 1
 41.35 326.95 l 1
 312.65 326.95 l 1
 312.65 232.05 l 1
EndSplineSet
EndChar

StartChar: quotesingle
Encoding: 39 39 75
Width: 266
Flags: W
HStem: 456 275.008<98.7 171.3>
VStem: 98.7 72.6<456 587.403>
LayerCount: 2
Fore
SplineSet
98.7 456 m 1
 84.05 731.0078125 l 1
 185.95 731.0078125 l 1
 171.3 456 l 1
 98.7 456 l 1
EndSplineSet
EndChar

StartChar: parenleft
Encoding: 40 40 77
Width: 402
Flags: W
HStem: -171.47 94.6954<270.502 360.777> 664.774 94.6954<270.502 360.777>
VStem: 41.35 107.094<88.209 499.791>
LayerCount: 2
Fore
SplineSet
360.776953125 -76.7743359376 m 1
 360.776953125 -171.469726562 l 1
 153.063427914 -171.469726562 41.35 -23.8232421878 41.35 294 c 0
 41.35 611.823242188 153.063427914 759.469726562 360.776953125 759.469726562 c 1
 360.776953125 664.774335938 l 1
 219.823370858 664.774335938 148.443710938 562.046706302 148.443710938 294 c 0
 148.443710938 25.9532936967 219.823370858 -76.7743359376 360.776953125 -76.7743359376 c 1
EndSplineSet
EndChar

StartChar: asterisk
Encoding: 42 42 78
Width: 400
Flags: W
HStem: 718.992 20G<151.449 248.99>
LayerCount: 2
Fore
SplineSet
248.990273438 738.9921875 m 1
 238.926484375 595.506367188 l 1
 361.545429688 652.769804688 l 1
 395.440429688 566.394140625 l 1
 259.521484375 529.117578125 l 1
 351.230273438 430.956835938 l 1
 273.82890625 367.996992188 l 1
 200.219726562 483.015195312 l 1
 126.610546875 367.996992188 l 1
 49.2091796875 430.956835938 l 1
 140.91796875 529.117578125 l 1
 5 566.394140625 l 1
 38.895 652.769804688 l 1
 161.51296875 595.506367188 l 1
 151.449179688 738.9921875 l 1
 248.990273438 738.9921875 l 1
EndSplineSet
Substitution2: "'ss13' Style Set 13 lookup 14-1" asterisk.ss13
EndChar

StartChar: less
Encoding: 60 60 79
Width: 450
Flags: W
LayerCount: 2
Fore
SplineSet
420 157.7 m 1
 30 309.05 l 1
 30 406.95 l 1
 420 558.3 l 1
 420 465.4 l 1
 143.004101562 358 l 1
 420 250.6 l 1
 420 157.7 l 1
EndSplineSet
EndChar

StartChar: greater
Encoding: 62 62 80
Width: 450
Flags: W
LayerCount: 2
Fore
SplineSet
30 558.3 m 1
 420 406.95 l 1
 420 309.05 l 1
 30 157.7 l 1
 30 250.6 l 1
 298.345898438 358 l 1
 30 465.4 l 1
 30 558.3 l 1
EndSplineSet
EndChar

StartChar: slash
Encoding: 47 47 81
Width: 434
Flags: W
LayerCount: 2
Fore
SplineSet
29.455 -171.469726562 m 1
 304.455 761.403320312 l 1
 404.545 761.403320312 l 1
 129.545 -171.469726562 l 1
 29.455 -171.469726562 l 1
EndSplineSet
EndChar

StartChar: bar
Encoding: 124 124 82
Width: 249
Flags: W
VStem: 74.725 99.55<-171.47 759.47>
LayerCount: 2
Fore
SplineSet
74.725 -171.469726562 m 1
 74.725 759.469726562 l 1
 174.275 759.469726562 l 1
 174.275 -171.469726562 l 1
 74.725 -171.469726562 l 1
EndSplineSet
EndChar

StartChar: bracketleft
Encoding: 91 91 83
Width: 375
Flags: W
HStem: -171.47 83.925<175.63 323.65> 676.545 82.925<175.63 323.65>
VStem: 75.27 248.38<-171.47 -87.5447 676.545 759.47> 75.27 100.36<-87.5447 676.545>
LayerCount: 2
Fore
SplineSet
75.27 759.469726562 m 1xe0
 323.65 759.469726562 l 1
 323.65 676.544726562 l 1
 175.63 676.544726562 l 1
 175.63 -87.5447265624 l 1xd0
 323.65 -87.5447265624 l 1
 323.65 -171.469726562 l 1
 75.27 -171.469726562 l 1
 75.27 759.469726562 l 1xe0
EndSplineSet
EndChar

StartChar: bracketright
Encoding: 93 93 84
Width: 375
Flags: W
HStem: -171.47 83.925<51.35 199.37> 675.68 83.79<51.35 199.37>
VStem: 51.35 248.38<-171.47 -87.5447 675.68 759.47> 199.37 100.36<-87.5447 675.68>
LayerCount: 2
Fore
SplineSet
299.73 -171.469726562 m 1xd0
 51.35 -171.469726562 l 1
 51.35 -87.5447265624 l 1xe0
 199.37 -87.5447265624 l 1
 199.37 675.679726562 l 1xd0
 51.35 675.679726562 l 1
 51.35 759.469726562 l 1xe0
 299.73 759.469726562 l 1
 299.73 -171.469726562 l 1xd0
EndSplineSet
EndChar

StartChar: asciicircum
Encoding: 94 94 85
Width: 449
Flags: W
HStem: 440 291.008
LayerCount: 2
Fore
SplineSet
279.95 731.0078125 m 1
 432.65 440 l 1
 333.75 440 l 1
 225.393554688 656.063476562 l 1
 116.25 440 l 1
 16.35 440 l 1
 169.05 731.0078125 l 1
 279.95 731.0078125 l 1
EndSplineSet
EndChar

StartChar: braceleft
Encoding: 123 123 86
Width: 433
Flags: W
HStem: -171.47 81.9211<258.523 376.95> 265.582 97.9<50 134.262> 677.549 81.9211<258.43 377.038>
VStem: 142.7 100.9<-74.3978 257.843 373.052 662.397>
LayerCount: 2
Fore
SplineSet
185.435 314.532226562 m 1
 185.435 314.532226562 243.6 289.853655133 243.6 210.882226562 c 2
 243.6 -16.8736328125 l 2
 243.6 -72.674130249 271.172160051 -89.5486328124 320.3 -89.5486328124 c 0
 365.956511645 -89.5486328124 376 -83.8736328124 376 -83.8736328124 c 1
 383 -161.064726562 l 1
 383 -161.064726562 346.514948454 -171.469726562 287.35 -171.469726562 c 0
 180.855325941 -171.469726562 142.7 -121.782421875 142.7 -37.4697265625 c 2
 142.7 200.882226562 l 2
 142.7 250.27141507 124.201953125 265.582226562 87.7 265.582226562 c 2
 50 265.582226562 l 1
 50 363.482226562 l 1
 87.7 363.482226562 l 2
 124.201953125 363.482226562 142.7 378.794057145 142.7 428.182226562 c 2
 142.7 625.469726562 l 2
 142.7 709.780112592 180.855325941 759.469726562 287.35 759.469726562 c 0
 341.338015464 759.469726562 383 749.064726562 383 749.064726562 c 1
 376 671.873632812 l 1
 376 671.873632812 358.339697265 677.548632812 319.3 677.548632812 c 0
 270.812788955 677.548632812 243.6 660.673144531 243.6 604.873632812 c 2
 243.6 418.182226562 l 2
 243.6 337.239404297 185.435 314.532226562 185.435 314.532226562 c 1
EndSplineSet
EndChar

StartChar: grave
Encoding: 96 96 87
Width: 242
Flags: W
HStem: 536 205.008
VStem: 13.7 214.6
LayerCount: 2
Fore
SplineSet
155.05 536 m 1
 13.7 711.0078125 l 1
 111.6 741.0078125 l 1
 228.3 556 l 1
 155.05 536 l 1
EndSplineSet
EndChar

StartChar: underscore
Encoding: 95 95 88
Width: 564
Flags: W
HStem: -84.25 84.25<40 524>
LayerCount: 2
Fore
SplineSet
524 -84.25 m 1
 40 -84.25 l 1
 40 0 l 1
 524 0 l 1
 524 -84.25 l 1
EndSplineSet
EndChar

StartChar: dollar
Encoding: 36 36 89
Width: 591
Flags: W
HStem: -105 167.72<249.314 339.72> -10 103.687<142.658 383.576> 634.434 104.687<223.882 445.764> 663.1 166.37<249.314 339.72>
VStem: 60.977 118.512<474.537 593.995> 249.314 90.4053<-105 62.7197 663.1 829.47> 431.573 113.597<137.91 258.624>
LayerCount: 2
Fore
SplineSet
249.314453125 -105 m 1x8e
 249.314453125 62.7197265625 l 1
 339.719726562 62.7197265625 l 1
 339.719726562 -105 l 1
 249.314453125 -105 l 1x8e
249.314453125 663.099609375 m 1x1e
 249.314453125 829.469726562 l 1
 339.719726562 829.469726562 l 1
 339.719726562 663.099609375 l 1
 249.314453125 663.099609375 l 1x1e
EndSplineSet
Refer: 22 83 N 1 0 0 1 0 0 2
EndChar

StartChar: percent
Encoding: 37 37 90
Width: 953
Flags: W
HStem: -9.99805 84.8953<660.526 784.576> 0 21G<190.05 303.946> 276.957 84.8943<660.526 784.576> 367.143 84.8943<169.87 293.576> 654.097 84.8953<169.87 293.576> 711.008 20G<652.054 765.95>
VStem: 46.35 94.1002<481.734 625.383> 324.62 91.9898<483.834 623.292> 537.35 93.1002<104.593 248.242> 815.62 91.9898<106.693 246.152>
LayerCount: 2
Fore
SplineSet
630.45015625 176.481445312 m 0xb3c0
 630.45015625 103.605199498 672.518395304 74.8972265625 722.48046875 74.8972265625 c 0
 771.802833984 74.8972265625 815.62015625 103.605199498 815.62015625 176.481445312 c 0
 815.62015625 250.164225984 771.802833984 276.957265625 722.48046875 276.957265625 c 0
 672.518395304 276.957265625 630.45015625 250.164225984 630.45015625 176.481445312 c 0xb3c0
537.35 176.481445312 m 0
 537.35 278.624023438 604.89747245 361.8515625 722.48046875 361.8515625 c 0
 840.062491067 361.8515625 907.609960938 278.624023438 907.609960938 176.481445312 c 0
 907.609960938 74.4218750003 840.062491067 -9.998046875 722.48046875 -9.998046875 c 0
 604.89747245 -9.998046875 537.35 74.4218750003 537.35 176.481445312 c 0
140.45015625 553.622070312 m 0
 140.45015625 480.746039856 182.06825353 452.036875 231.48046875 452.036875 c 0
 280.802833984 452.036875 324.62015625 480.746039856 324.62015625 553.622070312 c 0
 324.62015625 627.303793211 280.802833984 654.096914062 231.48046875 654.096914062 c 0x3bc0
 182.06825353 654.096914062 140.45015625 627.303793211 140.45015625 553.622070312 c 0
46.35 553.622070312 m 0
 46.35 655.764648438 113.89747245 738.9921875 231.48046875 738.9921875 c 0
 349.062491067 738.9921875 416.609960938 655.764648438 416.609960938 553.622070312 c 0
 416.609960938 451.5625 349.062491067 367.142578125 231.48046875 367.142578125 c 0
 113.89747245 367.142578125 46.35 451.5625 46.35 553.622070312 c 0
EndSplineSet
Refer: 138 8260 N 1 0 0 1 301 0 2
EndChar

StartChar: at
Encoding: 64 64 91
Width: 924
Flags: W
HStem: -159.727 84.8728<343.45 647.813> 71.9697 82.5439<386.137 513.295 664.025 767.598> 398.513 80.5634<401.03 530.517> 624.488 83.2383<338.771 612.78>
VStem: 36.35 88.7498<133.347 405.637> 255.517 99.8216<185.372 348.906> 558.963 94.5325<206.471 331.945> 562.313 60.5567<152.265 350.156> 808.412 79.5251<203.691 446.901>
LayerCount: 2
Fore
SplineSet
355.338398438 261.0546875 m 0xfe80
 355.338398438 191.338221027 387.16977092 154.513632812 447.439335938 154.513632812 c 0
 517.870085275 154.513632812 558.962617188 206.471430171 558.962617188 295.529296875 c 0
 558.962617188 362.039218074 524.939263614 398.512734375 469.674960938 398.512734375 c 0
 397.389931769 398.512734375 355.338398438 347.957299761 355.338398438 261.0546875 c 0xfe80
423.392578125 71.9697265625 m 0
 322.892905417 71.9697265625 255.516796875 146.245237785 255.516796875 257.037109375 c 0
 255.516796875 388.627283766 337.586975325 479.076171875 451 479.076171875 c 0
 566.342820834 479.076171875 622.869882812 395.853423101 622.869882812 266.49234375 c 0xfd80
 622.869882812 152.265409264 540.530439161 71.9697265625 423.392578125 71.9697265625 c 0
487.713867188 -159.7265625 m 0
 208.233368949 -159.7265625 36.35 14.611328125 36.35 268.08984375 c 0
 36.35 524.041992188 216.628899861 707.7265625 476.420898438 707.7265625 c 0
 716.671515984 707.7265625 887.937109375 561.379882812 887.937109375 321.901367188 c 0
 887.937109375 171.18359375 819.236571686 72.708984375 699.326953125 72.708984375 c 0
 613.425918267 72.708984375 562.313203125 120.982421875 562.313203125 228.081054688 c 0xfd80
 562.313203125 350.15625 601.343476562 476.46484375 601.343476562 476.46484375 c 1
 697.65390625 476.46484375 l 1
 697.65390625 476.46484375 653.495117188 331.944544316 653.495117188 227.827148438 c 4xfe80
 653.495117188 176.520484906 670.095105484 149.444765625 709.89 149.444765625 c 0
 760.919406237 149.444765625 808.411992188 191.001112487 808.411992188 328.072265625 c 0
 808.411992188 517.514915749 678.179623193 624.48828125 473.389375 624.48828125 c 0
 262.892081275 624.48828125 125.099804688 486.914494506 125.099804688 267.489257812 c 0
 125.099804688 54.7618909894 253.047176228 -74.85375 496.7346875 -74.85375 c 0
 665.527561374 -74.85375 771.04328125 2.6176171875 771.04328125 2.6176171875 c 1
 805.250976562 -72.2255859375 l 1
 805.250976562 -72.2255859375 701.004882812 -159.7265625 487.713867188 -159.7265625 c 0
EndSplineSet
EndChar

StartChar: numbersign
Encoding: 35 35 92
Width: 767
Flags: W
HStem: 0 21G<119.74 216.099 389.74 486.099> 186.97 85.06<56.35 675.65> 441.97 85.06<91.35 710.65> 711.008 20G<280.226 376.585 550.226 646.585>
LayerCount: 2
Fore
SplineSet
91.35 527.03 m 1
 710.65 527.03 l 1
 710.65 441.97 l 1
 91.35 441.97 l 1
 91.35 527.03 l 1
56.35 272.03 m 1
 675.65 272.03 l 1
 675.65 186.97 l 1
 56.35 186.97 l 1
 56.35 272.03 l 1
389.74 0 m 1
 554.74 731.0078125 l 1
 646.585 731.0078125 l 1
 481.585 0 l 1
 389.74 0 l 1
119.74 0 m 1
 284.74 731.0078125 l 1
 376.585 731.0078125 l 1
 211.585 0 l 1
 119.74 0 l 1
EndSplineSet
EndChar

StartChar: braceright
Encoding: 125 125 93
Width: 433
Flags: W
HStem: -171.47 81.9211<38.7503 164.115> 265.582 97.9<298.738 383> 677.549 81.9211<38.662 164.253>
VStem: 189.4 100.9<-64.21 257.843 373.052 652.209>
LayerCount: 2
Fore
SplineSet
247.7 314.532226562 m 1
 247.7 314.532226562 189.4 337.239404297 189.4 418.182226562 c 2
 189.4 573.733632812 l 2
 189.4 653.442285156 155.968172089 677.548632812 96.4 677.548632812 c 0
 57.3603027344 677.548632812 39.7 671.873632812 39.7 671.873632812 c 1
 32.7 749.064726562 l 1
 32.7 749.064726562 74.3619845361 759.469726562 128.35 759.469726562 c 0
 247.581334005 759.469726562 290.3 698.232839614 290.3 594.329726562 c 2
 290.3 428.182226562 l 2
 290.3 378.794057145 308.798046875 363.482226562 345.3 363.482226562 c 2
 383 363.482226562 l 1
 383 265.582226562 l 1
 345.3 265.582226562 l 2
 308.798046875 265.582226562 290.3 250.27141507 290.3 200.882226562 c 2
 290.3 -6.3297265625 l 2
 290.3 -110.235685547 247.581334005 -171.469726562 128.35 -171.469726562 c 0
 69.1850515464 -171.469726562 32.7 -161.064726562 32.7 -161.064726562 c 1
 39.7 -83.8736328124 l 1
 39.7 -83.8736328124 49.7434883549 -89.5486328124 95.4 -89.5486328124 c 0
 155.608826014 -89.5486328124 189.4 -65.4436932372 189.4 14.2663671875 c 2
 189.4 210.882226562 l 2
 189.4 289.853655133 247.7 314.532226562 247.7 314.532226562 c 1
EndSplineSet
EndChar

StartChar: asciitilde
Encoding: 126 126 94
Width: 436
VWidth: 999
Flags: W
HStem: 298.89 83.25<233.59 355.815> 350.59 82.25<82.7471 202.435>
LayerCount: 2
Fore
SplineSet
421 356.215 m 1x80
 421 356.215 373.265573771 298.89 299.675 298.89 c 0x80
 221.482307693 298.89 195.418076923 350.59 138.325 350.59 c 0
 93.7025362319 350.59 57.3 306.59 57.3 306.59 c 1
 15 382.84 l 1
 15 382.84 67.7067622951 432.84 136.325 432.84 c 0x40
 213.276538462 432.84 245.546538462 382.14 297.675 382.14 c 0
 348.63 382.14 374.7 422.815 374.7 422.815 c 1
 421 356.215 l 1x80
EndSplineSet
EndChar

StartChar: cent
Encoding: 162 162 95
Width: 501
Flags: W
HStem: 105.002 89.9019<227.245 419.518> 534.114 91.8194<219.598 410.431> 574.05 155.42<251.446 334.012>
VStem: 46.35 105.588<271.844 463.534> 251.446 82.5654<-5 177.72 574.05 729.47>
LayerCount: 2
Fore
SplineSet
251.446289062 -5 m 1x98
 251.446289062 177.719726562 l 1
 334.01171875 177.719726562 l 1
 334.01171875 -5 l 1
 251.446289062 -5 l 1x98
251.446289062 574.049804688 m 1xb8
 251.446289062 729.469726562 l 1
 334.01171875 729.469726562 l 1
 334.01171875 574.049804688 l 1
 251.446289062 574.049804688 l 1xb8
EndSplineSet
Refer: 40 99 N 1 0 0 1 0 115 2
EndChar

StartChar: sterling
Encoding: 163 163 96
Width: 553
Flags: W
HStem: 0 100.495<169.519 523> 297.05 93.9<50 434> 636.396 103.066<233.844 448.123>
VStem: 70.7016 123.179<442.584 597.996> 148.174 108.207<206.726 294.814>
LayerCount: 2
Fore
SplineSet
434 297.05 m 1xe0
 50 297.05 l 1
 50 390.95 l 1
 434 390.95 l 1
 434 297.05 l 1xe0
523 0 m 1
 30 0 l 1
 30 96.495 l 1
 30 96.495 148.17421875 175.491935719 148.17421875 289.379882812 c 0xe8
 148.17421875 391.588284089 70.7015625 418.167846584 70.7015625 547.185546875 c 0
 70.7015625 671.3984375 163.576374125 739.461914062 302.80859375 739.461914062 c 0
 438.149550899 739.461914062 498.60703125 701.785273438 498.60703125 701.785273438 c 1
 474.9375 603.449414062 l 1
 474.9375 603.449414062 407.956443789 636.39609375 333.75859375 636.39609375 c 0
 256.01147027 636.39609375 193.880078125 617.916162359 193.880078125 528.181118164 c 0xf0
 193.880078125 433.993438363 256.381445312 405.732238868 256.381445312 290.158203125 c 0xe8
 256.381445312 172.634100703 169.519335938 100.495 169.519335938 100.495 c 1
 523 100.495 l 1
 523 0 l 1
EndSplineSet
EndChar

StartChar: yen
Encoding: 165 165 97
Width: 649
Flags: W
HStem: 0 21G<265.4 383.6> 177.7 80.6<99.5 549.5> 307.7 80.6<99.5 265.4 383.6 549.5> 323.35 64.95<271.4 377.6> 711.008 20G<31.35 168.843 480.157 617.65>
VStem: 265.4 118.2<0 389.65>
LayerCount: 2
Fore
SplineSet
271.4 323.35 m 1xdc
 31.35 731.0078125 l 1
 157.9 731.0078125 l 1
 324.5 426.516015625 l 1
 491.1 731.0078125 l 1
 617.65 731.0078125 l 1
 377.6 323.35 l 1
 271.4 323.35 l 1xdc
265.4 0 m 1
 265.4 389.65 l 1
 383.6 389.65 l 1
 383.6 0 l 1
 265.4 0 l 1
549.5 177.7 m 1
 99.5 177.7 l 1
 99.5 258.3 l 1
 549.5 258.3 l 1
 549.5 177.7 l 1
549.5 307.7 m 1xec
 99.5 307.7 l 1
 99.5 388.3 l 1
 549.5 388.3 l 1
 549.5 307.7 l 1xec
EndSplineSet
EndChar

StartChar: currency
Encoding: 164 164 98
Width: 513
Flags: W
HStem: 156.724 95.1719<193.489 320.981> 462.296 95.3594<193.508 321>
VStem: 53.9613 102.209<285.206 431.085> 356.83 102.209<285.206 428.722>
LayerCount: 2
Fore
SplineSet
321.989257812 214.786523438 m 1
 402.539648438 246.325195312 l 1
 496.909765625 122.065625 l 1
 396.330078125 67.4955078125 l 1
 321.989257812 214.786523438 l 1
191.270507812 214.786523438 m 1
 116.9296875 67.4955078125 l 1
 16.35 122.065625 l 1
 110.720117188 246.325195312 l 1
 191.270507812 214.786523438 l 1
321.989257812 496.39609375 m 1
 396.330078125 643.686132812 l 1
 496.909765625 589.116015625 l 1
 402.539648438 464.856445312 l 1
 321.989257812 496.39609375 l 1
191.270507812 496.39609375 m 1
 110.720117188 464.856445312 l 1
 16.35 589.116015625 l 1
 116.9296875 643.686132812 l 1
 191.270507812 496.39609375 l 1
156.169960938 359.283203125 m 0
 156.169960938 294.888578676 185.919217106 251.895546875 255.5 251.895546875 c 0
 326.482313306 251.895546875 356.830039062 294.888578676 356.830039062 359.283203125 c 0
 356.830039062 421.054927109 326.515454249 462.295859375 255.611328125 462.295859375 c 0
 185.952356162 462.295859375 156.169960938 421.054927109 156.169960938 359.283203125 c 0
53.961328125 359.283203125 m 0
 53.961328125 479.317382812 130.219072879 557.655273438 255.5 557.655273438 c 0
 382.024091713 557.655273438 459.038671875 479.317382812 459.038671875 359.283203125 c 0
 459.038671875 236.715820312 382.024091713 156.723632812 255.5 156.723632812 c 0
 130.219072879 156.723632812 53.961328125 236.715820312 53.961328125 359.283203125 c 0
EndSplineSet
EndChar

StartChar: brokenbar
Encoding: 166 166 99
Width: 249
Flags: W
VStem: 70.4 108.2<-171.47 239 339 759.47>
LayerCount: 2
Fore
SplineSet
70.4 -171.469726562 m 1
 70.4 239 l 1
 178.6 239 l 1
 178.6 -171.469726562 l 1
 70.4 -171.469726562 l 1
70.4 339 m 1
 70.4 759.469726562 l 1
 178.6 759.469726562 l 1
 178.6 339 l 1
 70.4 339 l 1
EndSplineSet
EndChar

StartChar: section
Encoding: 167 167 100
Width: 593
Flags: W
HStem: -19.6709 87.6406<171.882 345.79> 666.962 87.6406<247.001 420.265>
VStem: 40.9824 104.41<348.38 443.572> 116.883 109.242<546.796 645.335> 366.334 109.782<89.5056 191.39> 447.607 104.41<291.234 382.546>
LayerCount: 2
Fore
SplineSet
182.415039062 524.883789062 m 1xe8
 241.823242188 472.380859375 l 1
 241.823242188 472.380859375 145.392578125 471.641184107 145.392578125 391.043945312 c 0
 145.392578125 352.738614863 177.643361111 326.084957702 292.860351562 307.47578125 c 0
 427.378568205 285.749183291 476.116796875 225.335405539 476.116796875 144.020117188 c 0
 476.116796875 42.0515070411 405.807300516 -19.6708984375 290.30078125 -19.6708984375 c 0
 177.5859375 -19.6708984375 122.76953125 19.734375 122.76953125 19.734375 c 1
 149.546484375 101.075195312 l 1
 149.546484375 101.075195312 200.582414026 67.9697265625 275.8046875 67.9697265625 c 0
 338.251381238 67.9697265625 366.334375 96.4668158818 366.334375 142.418359375 c 0
 366.334375 180.888618716 345.607167282 212.561578407 247.696289062 223.427929688 c 0
 84.7724510224 241.509553389 40.982421875 305.047765736 40.982421875 373.659179688 c 0
 40.982421875 511.97034159 182.415039062 524.883789062 182.415039062 524.883789062 c 1xe8
390.584960938 193.828125 m 5
 348.4765625 263.630859375 l 5
 348.4765625 263.630859375 447.607421875 264.10509742 447.607421875 337.700195312 c 0
 447.607421875 383.745149991 411.584644613 405.501741442 292.208007812 428.501171875 c 0
 164.547983474 453.096502482 116.883203125 510.116253085 116.883203125 590.911523438 c 0
 116.883203125 692.880133584 187.192699484 754.602539062 302.69921875 754.602539062 c 0
 415.4140625 754.602539062 470.23046875 715.197265625 470.23046875 715.197265625 c 1
 443.453515625 633.586445312 l 1
 443.453515625 633.586445312 392.41857309 666.961914062 317.1953125 666.961914062 c 0
 254.376130847 666.961914062 226.125625 638.206451492 226.125625 591.83828125 c 0
 226.125625 554.490075027 246.437374159 529.612294748 352.260742188 510.33125 c 0
 504.684173791 482.559661738 552.017578125 419.759046549 552.017578125 343.622070312 c 0xd4
 552.017578125 206.611716089 390.584960938 193.828125 390.584960938 193.828125 c 5
EndSplineSet
EndChar

StartChar: dieresis
Encoding: 168 168 101
Width: 459
Flags: W
HStem: 600.643 138.349<72.4625 176.537 282.462 386.537>
VStem: 55.9367 137.127<617.316 722.319> 265.937 137.127<617.316 722.319>
LayerCount: 2
Fore
SplineSet
265.93671875 669.817578125 m 0
 265.93671875 711.724674896 292.962230952 738.9921875 334.499023438 738.9921875 c 0
 376.036839251 738.9921875 403.06328125 711.724674896 403.06328125 669.817578125 c 0
 403.06328125 627.909724238 376.036839251 600.64296875 334.499023438 600.64296875 c 0
 292.962230952 600.64296875 265.93671875 627.909724238 265.93671875 669.817578125 c 0
55.93671875 669.817578125 m 0
 55.93671875 711.724674896 82.9622309525 738.9921875 124.499023438 738.9921875 c 0
 166.036839251 738.9921875 193.06328125 711.724674896 193.06328125 669.817578125 c 0
 193.06328125 627.909724238 166.036839251 600.64296875 124.499023438 600.64296875 c 0
 82.9622309523 600.64296875 55.93671875 627.909724238 55.93671875 669.817578125 c 0
EndSplineSet
EndChar

StartChar: copyright
Encoding: 169 169 102
Width: 797
Flags: W
HStem: -9.99805 83.6474<275.16 522.617> 177.281 75.8314<360.507 524.217> 476.01 75.8314<360.507 506.437> 655.474 83.6474<274.023 523.754>
VStem: 36.35 86.1465<234.604 494.519> 233.307 91.8638<287.511 441.612> 675.281 86.1465<234.604 494.519>
LayerCount: 2
Fore
SplineSet
233.30703125 364.561523438 m 0
 233.30703125 477.88408452 296.610322702 551.841796875 418.401367188 551.841796875 c 0
 500.332193142 551.841796875 539.947851562 518.7265625 539.947851562 518.7265625 c 1
 511.174765625 450.114609375 l 1
 511.174765625 450.114609375 489.323314463 476.010351562 432.551367188 476.010351562 c 0
 354.39240176 476.010351562 325.170859375 431.392683259 325.170859375 364.561523438 c 0
 325.170859375 297.730363618 354.39240176 253.112695312 432.551367188 253.112695312 c 0
 493.356170233 253.112695312 519.465820312 276.178125 519.465820312 276.178125 c 1
 541.520117188 204.578125 l 1
 541.520117188 204.578125 499.790186859 177.28125 418.401367188 177.28125 c 0
 296.610322702 177.28125 233.30703125 251.238962356 233.30703125 364.561523438 c 0
122.496484375 364.561523438 m 0
 122.496484375 190.115120697 207.974555128 73.649375 398.888671875 73.649375 c 0
 589.802788622 73.649375 675.280859375 190.115120697 675.280859375 364.561523438 c 0
 675.280859375 539.007926178 589.802788622 655.473671875 398.888671875 655.473671875 c 0
 207.974555128 655.473671875 122.496484375 539.007926178 122.496484375 364.561523438 c 0
36.35 364.561523438 m 0
 36.35 591.206054688 173.52766252 739.12109375 398.888671875 739.12109375 c 0
 624.24968123 739.12109375 761.42734375 591.206054688 761.42734375 364.561523438 c 0
 761.42734375 137.916992188 624.24968123 -9.998046875 398.888671875 -9.998046875 c 0
 173.52766252 -9.998046875 36.35 137.916992188 36.35 364.561523438 c 0
EndSplineSet
EndChar

StartChar: registered
Encoding: 174 174 103
Width: 797
Flags: W
HStem: -9.99805 83.6474<275.16 522.617> 312.102 61.6658<297 445.41> 484.126 64.1297<337.68 455.08> 655.474 83.6474<274.023 523.754>
VStem: 36.35 86.1465<234.604 494.519> 253.85 83.83<182.752 312.102 373.768 484.126> 297 40.68<312.102 373.768> 467.785 81.2538<385.237 471.796> 675.281 86.1465<234.604 494.519>
LayerCount: 2
Fore
SplineSet
297 373.767734375 m 1xfb80
 389.364335938 373.822421875 l 2
 434.259960983 373.847802811 467.78484375 382.203022762 467.78484375 428.478203125 c 0
 467.78484375 473.680070137 434.25995624 484.035096985 389.364335938 484.075390625 c 2
 337.68 484.126171875 l 1
 337.68 182.751953125 l 1
 253.85 182.751953125 l 1
 253.85 548.255859375 l 1xfd80
 408.094335938 548.255859375 l 2
 482.252050781 548.255859375 549.038671875 516.71091953 549.038671875 432.163720703 c 0
 549.038671875 361.403003458 488.72375 341.215625 488.72375 341.215625 c 1
 488.72375 341.215625 517.177737174 330.767380824 536.0015625 271.451171875 c 2
 564.15 182.751953125 l 1
 479.09 182.751953125 l 1
 456.32 265.251953125 l 2
 444.050122123 309.617444137 425.841311475 312.101953125 389.92 312.101953125 c 2
 297 312.101953125 l 1
 297 373.767734375 l 1xfb80
122.496484375 364.561523438 m 0
 122.496484375 190.115120697 207.974555128 73.649375 398.888671875 73.649375 c 0
 589.802788622 73.649375 675.280859375 190.115120697 675.280859375 364.561523438 c 0
 675.280859375 539.007926178 589.802788622 655.473671875 398.888671875 655.473671875 c 0
 207.974555128 655.473671875 122.496484375 539.007926178 122.496484375 364.561523438 c 0
36.35 364.561523438 m 0
 36.35 591.206054688 173.52766252 739.12109375 398.888671875 739.12109375 c 0
 624.24968123 739.12109375 761.42734375 591.206054688 761.42734375 364.561523438 c 0
 761.42734375 137.916992188 624.24968123 -9.998046875 398.888671875 -9.998046875 c 0
 173.52766252 -9.998046875 36.35 137.916992188 36.35 364.561523438 c 0
EndSplineSet
EndChar

StartChar: uni2117
Encoding: 8471 8471 104
Width: 797
Flags: W
HStem: -9.99805 83.6474<275.16 522.617> 289.452 61.1258<316.614 469.598> 484.126 64.1297<347.779 466.895> 655.474 83.6474<274.023 523.754>
VStem: 36.35 86.1465<234.604 494.519> 263.814 83.965<182.752 289.452 350.578 484.126> 316.614 31.165<289.452 350.578> 483.979 79.5238<366.451 468.67> 675.281 86.1465<234.604 494.519>
LayerCount: 2
Fore
SplineSet
316.614335938 289.451953125 m 1xfb80
 316.614335938 350.577734375 l 1xfb80
 397.058671875 350.632421875 l 2
 446.820591521 350.671283792 483.979179688 362.635128059 483.979179688 417.383203125 c 0
 483.979179688 471.605886278 447.397699044 484.003681379 398.408671875 484.075390625 c 2
 347.779335938 484.126171875 l 1
 347.779335938 182.751953125 l 1
 263.814335938 182.751953125 l 1
 263.814335938 548.255859375 l 1xfd80
 402.408671875 548.255859375 l 2
 487.168210443 548.255859375 563.503007812 512.612651807 563.503007812 417.383203125 c 0
 563.503007812 323.812801436 491.751436295 289.451953125 413.058671875 289.451953125 c 2
 316.614335938 289.451953125 l 1xfb80
122.496484375 364.561523438 m 0
 122.496484375 190.115120697 207.974555128 73.649375 398.888671875 73.649375 c 0
 589.802788622 73.649375 675.280859375 190.115120697 675.280859375 364.561523438 c 0
 675.280859375 539.007926178 589.802788622 655.473671875 398.888671875 655.473671875 c 0
 207.974555128 655.473671875 122.496484375 539.007926178 122.496484375 364.561523438 c 0
36.35 364.561523438 m 0
 36.35 591.206054688 173.52766252 739.12109375 398.888671875 739.12109375 c 0
 624.24968123 739.12109375 761.42734375 591.206054688 761.42734375 364.561523438 c 0
 761.42734375 137.916992188 624.24968123 -9.998046875 398.888671875 -9.998046875 c 0
 173.52766252 -9.998046875 36.35 137.916992188 36.35 364.561523438 c 0
EndSplineSet
EndChar

StartChar: guillemotleft
Encoding: 171 171 105
Width: 590
Flags: W
LayerCount: 2
Fore
SplineSet
49.05 279.65 m 1
 189.05 441 l 1
 300.275 441 l 1
 147.025 254 l 1
 300.275 67 l 1
 189.05 67 l 1
 49.05 228.35 l 1
 49.05 279.65 l 1
299.05 279.65 m 1
 439.05 441 l 1
 550.275 441 l 1
 397.025 254 l 1
 550.275 67 l 1
 439.05 67 l 1
 299.05 228.35 l 1
 299.05 279.65 l 1
EndSplineSet
EndChar

StartChar: guillemotright
Encoding: 187 187 106
Width: 590
Flags: W
LayerCount: 2
Fore
SplineSet
540.95 228.35 m 1
 400.95 67 l 1
 289.725 67 l 1
 442.975 254 l 1
 289.725 441 l 1
 400.95 441 l 1
 540.95 279.65 l 1
 540.95 228.35 l 1
290.95 228.35 m 1
 150.95 67 l 1
 39.725 67 l 1
 192.975 254 l 1
 39.725 441 l 1
 150.95 441 l 1
 290.95 279.65 l 1
 290.95 228.35 l 1
EndSplineSet
EndChar

StartChar: mu
Encoding: 181 181 107
Width: 595
Flags: W
HStem: -9.92285 88.8994<218.64 368.726> 0 21G<421.497 530.507> 481.011 20G<66.62 175.63 421.497 530.507>
VStem: 66.62 109.01<-180 501.011> 102.3 73.33<56.9261 321.011> 421.497 109.01<207.449 501.011>
LayerCount: 2
Fore
SplineSet
66.62 -180 m 1x34
 66.62 501.010742188 l 1
 175.63 501.010742188 l 1
 175.63 -180 l 1
 66.62 -180 l 1x34
421.49734375 217.010742188 m 9
 473.79734375 207.44921875 l 17
 452.244423513 57.0107421877 389.262682881 -9.9228515625 273.77734375 -9.9228515625 c 0
 169.985768488 -9.9228515625 102.3 56.9260601597 102.3 196.44921875 c 2
 102.3 321.010742188 l 1xac
 175.63 321.010742188 l 1
 175.63 213.44921875 l 2
 175.63 128.26526204 210.400284797 78.9765625 295.42734375 78.9765625 c 0xb4
 381.040115746 78.9765625 421.49734375 134.238060911 421.49734375 217.010742188 c 9
530.50734375 501.010742188 m 1
 530.50734375 0 l 1
 421.49734375 0 l 1x64
 421.49734375 501.010742188 l 1
 530.50734375 501.010742188 l 1
EndSplineSet
EndChar

StartChar: acute
Encoding: 180 180 108
Width: 242
Flags: W
HStem: 536 205.008
VStem: 13.7 214.6
LayerCount: 2
Fore
SplineSet
86.95 536 m 1
 13.7 556 l 1
 130.4 741.0078125 l 1
 228.3 711.0078125 l 1
 86.95 536 l 1
EndSplineSet
EndChar

StartChar: macron
Encoding: 175 175 109
Width: 374
Flags: W
HStem: 638.378 92.63<41.35 332.65>
VStem: 41.35 291.3<638.378 731.008>
LayerCount: 2
Fore
SplineSet
332.65 638.3778125 m 1
 41.35 638.3778125 l 1
 41.35 731.0078125 l 1
 332.65 731.0078125 l 1
 332.65 638.3778125 l 1
EndSplineSet
EndChar

StartChar: uni00AD
Encoding: 173 173 110
Width: 354
Flags: W
HStem: 232.05 94.9<50 304>
VStem: 50 254<232.05 326.95>
LayerCount: 2
Fore
SplineSet
304 232.05 m 1
 50 232.05 l 1
 50 326.95 l 1
 304 326.95 l 1
 304 232.05 l 1
EndSplineSet
EndChar

StartChar: logicalnot
Encoding: 172 172 111
Width: 450
Flags: W
HStem: 313.375 89.25<30 312.425>
VStem: 312.425 92.575<165.675 313.375>
LayerCount: 2
Fore
SplineSet
405 165.675 m 1
 312.425 165.675 l 1
 312.425 313.375 l 1
 30 313.375 l 1
 30 402.625 l 1
 405 402.625 l 1
 405 165.675 l 1
EndSplineSet
EndChar

StartChar: minus
Encoding: 8722 8722 112
Width: 450
Flags: W
HStem: 313.78 88.44<30 420>
LayerCount: 2
Fore
SplineSet
420 313.78 m 1
 30 313.78 l 1
 30 402.22 l 1
 420 402.22 l 1
 420 313.78 l 1
EndSplineSet
EndChar

StartChar: notequal
Encoding: 8800 8800 113
Width: 450
Flags: W
HStem: 233.24 79.925<30 420> 402.835 79.925<30 420>
LayerCount: 2
Fore
SplineSet
73.9825 108.530273438 m 1
 278.9825 601.403320312 l 1
 370.8275 601.403320312 l 1
 165.8275 108.530273438 l 1
 73.9825 108.530273438 l 1
EndSplineSet
Refer: 52 61 N 1 0 0 1 0 0 2
EndChar

StartChar: partialdiff
Encoding: 8706 8706 114
Width: 620
Flags: W
HStem: -9.99805 98.7887<209.932 376.485> 383.641 86.959<220.603 388.965> 638.7 100.293<192.113 374.351>
VStem: 46.35 110.912<142.08 317.684> 463.366 110.449<404.242 528.207>
LayerCount: 2
Fore
SplineSet
440.731601562 246.890625 m 0
 440.731601562 325.929615826 399.711587461 383.640625 309.766601562 383.640625 c 0
 203.217597587 383.640625 157.261601562 317.489248854 157.261601562 226.890625 c 0
 157.261601562 147.071358945 195.970668657 88.790625 289.766601562 88.790625 c 0
 396.629579994 88.790625 440.731601562 155.511725917 440.731601562 246.890625 c 0
463.366328125 404.242070312 m 1
 458.103553304 556.448550238 402.180964982 638.69953125 289.396582031 638.69953125 c 0
 204.646230443 638.69953125 158.360898438 595.488671875 158.360898438 595.488671875 c 1
 113.241210938 688.860351562 l 1
 113.241210938 688.860351562 174.648733922 738.9921875 295.8671875 738.9921875 c 0
 474.537998989 738.9921875 573.815039062 612.671898034 573.815039062 385.331054688 c 0
 573.815039062 105.516837439 467.777011106 -9.998046875 288.8671875 -9.998046875 c 0
 138.468308245 -9.998046875 46.35 75.5176128099 46.35 229 c 0
 46.35 372.20164401 142.114648438 470.599609375 293.251367188 470.599609375 c 0
 422.051974936 470.599609375 463.366328125 404.242070312 463.366328125 404.242070312 c 1
EndSplineSet
EndChar

StartChar: emptyset
Encoding: 8709 8709 115
Width: 797
Flags: W
HStem: -9.99805 94.7669<299.408 517.214> 644.354 94.7669<280.564 501.698>
VStem: 36.35 96.7486<237.129 491.994> 664.679 96.7486<237.129 491.994>
LayerCount: 2
Fore
SplineSet
133.098632812 364.561523438 m 0
 133.098632812 196.782873164 214.051195723 84.7688671875 398.888671875 84.7688671875 c 0
 583.726148027 84.7688671875 664.678710938 196.782873164 664.678710938 364.561523438 c 0
 664.678710938 532.340173708 583.726148027 644.354179688 398.888671875 644.354179688 c 0
 214.051195723 644.354179688 133.098632812 532.340173708 133.098632812 364.561523438 c 0
36.35 364.561523438 m 0
 36.35 591.206054688 173.52766252 739.12109375 398.888671875 739.12109375 c 0
 624.24968123 739.12109375 761.42734375 591.206054688 761.42734375 364.561523438 c 0
 761.42734375 137.916992188 624.24968123 -9.998046875 398.888671875 -9.998046875 c 0
 173.52766252 -9.998046875 36.35 137.916992188 36.35 364.561523438 c 0
115.55 -90.873046875 m 1
 580.55 812 l 1
 681.45 812 l 1
 216.45 -90.873046875 l 1
 115.55 -90.873046875 l 1
EndSplineSet
EndChar

StartChar: Delta
Encoding: 8710 8710 116
Width: 719
Flags: W
HStem: 0 110.01<178.335 540.665> 711.008 20G<283.972 425.345>
LayerCount: 2
Fore
SplineSet
672.65 0 m 1
 46.35 0 l 1
 46.35 100.01 l 1
 291.75 731.0078125 l 1
 417.25 731.0078125 l 1
 672.65 100.01 l 1
 672.65 0 l 1
540.665 110.01 m 1
 355.393554688 599.763476562 l 1
 178.335 110.01 l 1
 540.665 110.01 l 1
EndSplineSet
EndChar

StartChar: plusminus
Encoding: 177 177 117
Width: 450
Flags: W
HStem: 153.215 79.79<30 420> 344.105 88.44<30 420>
VStem: 180.78 88.44<158.215 558.865>
LayerCount: 2
Fore
SplineSet
420 153.215 m 1
 30 153.215 l 1
 30 233.005 l 1
 420 233.005 l 1
 420 153.215 l 1
180.78 158.215 m 1
 180.78 558.865 l 1
 269.22 558.865 l 1
 269.22 158.215 l 1
 180.78 158.215 l 1
420 344.105 m 1
 30 344.105 l 1
 30 432.545 l 1
 420 432.545 l 1
 420 344.105 l 1
EndSplineSet
EndChar

StartChar: degree
Encoding: 176 176 118
Width: 431
Flags: W
HStem: 402.77 79.7764<151.959 278.833> 681.038 79.9639<151.977 278.852>
VStem: 36.35 87.1221<511.167 652.683> 308.305 87.1221<511.995 651.861>
LayerCount: 2
Fore
SplineSet
123.472109375 582.204492188 m 0
 123.472109375 522.444763063 150.820676381 482.546679688 214.786132812 482.546679688 c 0
 280.296642168 482.546679688 308.305234375 522.444763063 308.305234375 582.204492188 c 0
 308.305234375 641.470398859 280.333879024 681.038085938 214.909179688 681.038085938 c 0
 150.857917096 681.038085938 123.472109375 641.470398859 123.472109375 582.204492188 c 0
36.35 581.979882812 m 0
 36.35 690.305813825 103.905224674 761.001953125 214.888671875 761.001953125 c 0
 327.115284989 761.001953125 395.42734375 690.305813825 395.42734375 581.979882812 c 0
 395.42734375 473.541129596 327.115284989 402.7703125 214.888671875 402.7703125 c 0
 103.905224674 402.7703125 36.35 473.541129596 36.35 581.979882812 c 0
EndSplineSet
EndChar

StartChar: cedilla
Encoding: 184 184 120
Width: 317
VWidth: 999
Flags: W
HStem: -252.975 63.95<47.9642 192.208> -85.46 61.085<129.471 195.23>
VStem: 201.645 82.655<-177.847 -91.6063>
LayerCount: 2
Fore
SplineSet
284.3 -131.675 m 0
 284.3 -208.926179751 235.897816864 -252.975 145.73 -252.975 c 0
 86.7074628815 -252.975 36.135 -229.165 36.135 -229.165 c 1
 53.865 -167.215 l 1
 53.865 -167.215 83.4854859683 -189.025 131.215 -189.025 c 0
 183.60476359 -189.025 201.645 -167.188309885 201.645 -134.675 c 0
 201.645 -100.38734375 182.812769584 -85.46 152.215 -85.46 c 0
 116.299236327 -85.46 103.785 -110.325 103.785 -110.325 c 1
 48.35 -92 l 1
 70.35 39 l 1
 142.625 39 l 1
 129.435351562 -37.518515625 l 1
 129.435351562 -37.518515625 143.624344743 -24.375 180.3 -24.375 c 0
 243.271998762 -24.375 284.3 -64.8792258523 284.3 -131.675 c 0
EndSplineSet
EndChar

StartChar: paragraph
Encoding: 182 182 121
Width: 682
Flags: W
HStem: 641.742 89.25<401.839 499.939>
VStem: 40 361.839<398.797 607.047> 299.289 102.55<-179.994 283.253> 499.939 102.55<-179.994 641.742>
LayerCount: 2
Fore
SplineSet
401.838671875 -179.994140625 m 1xb0
 299.288671875 -179.994140625 l 1
 299.288671875 281.7771875 l 1xb0
 151.565001986 290.4271875 40 337.267917371 40 500.782617188 c 0xd0
 40 667.405115262 152 730.9921875 293.888671875 730.9921875 c 2
 602.488671875 730.9921875 l 1
 602.488671875 -179.994140625 l 1
 499.938671875 -179.994140625 l 1
 499.938671875 641.7421875 l 1
 401.838671875 641.7421875 l 1
 401.838671875 -179.994140625 l 1xb0
EndSplineSet
EndChar

StartChar: ordfeminine
Encoding: 170 170 122
Width: 402
Flags: W
HStem: 369.992 66.41<121.36 238.671 307.846 381.667> 540.477 55.3<132.321 267.59> 670.717 68.275<94.1558 235.681>
VStem: 31.35 83.52<444.597 522.583> 254.24 79.06<451.518 486.992 590.992 651.406> 254.24 35.11<414.1 480.262> 254.24 13.35<540.477 595.777>
LayerCount: 2
Fore
SplineSet
254.24 494.9921875 m 1xf2
 254.24 459.565675872 222.221851852 436.4021875 175.65 436.4021875 c 0
 132.659268292 436.4021875 114.87 454.301542338 114.87 482.6421875 c 0
 114.87 529.085879296 151.97953271 540.4771875 267.59 540.4771875 c 1
 267.59 595.7771875 l 1xf2
 129.871614349 595.7771875 31.35 578.638204449 31.35 475.9921875 c 0
 31.35 411.9921875 77.35 369.9921875 151.35 369.9921875 c 0
 245.146875 369.9921875 289.35 414.1001875 289.35 480.2621875 c 1xf4
 254.24 494.9921875 l 1xf2
254.24 590.9921875 m 2xf8
 254.24 459.9921875 l 2
 254.24 398.9921875 279.955159574 369.9921875 332.215 369.9921875 c 0
 368.796408451 369.9921875 386.325 386.1821875 386.325 386.1821875 c 1
 380.325 443.1321875 l 1
 380.325 443.1321875 371.383421053 438.9971875 356.055 438.9971875 c 0
 339.801428571 438.9971875 333.3 451.517622282 333.3 486.9921875 c 2
 333.3 595.9921875 l 2
 333.3 682.197861259 290.030625 738.9921875 186 738.9921875 c 0
 109.168678572 738.9921875 56.405 706.3971875 56.405 706.3971875 c 1
 82.515 641.5821875 l 1
 82.515 641.5821875 119.688103448 670.7171875 172.35 670.7171875 c 0
 229.144677419 670.7171875 254.24 646.285332661 254.24 590.9921875 c 2xf8
EndSplineSet
EndChar

StartChar: ordmasculine
Encoding: 186 186 123
Width: 418
Flags: W
HStem: 367.992 74.6<148.722 269.739> 664.392 74.6<148.722 269.459>
VStem: 34.35 83.52<473.699 632.694> 300.13 83.52<473.699 632.694>
LayerCount: 2
Fore
SplineSet
117.87 554.9921875 m 0
 117.87 486.640836148 145.740428571 442.5921875 209 442.5921875 c 0
 273.561428572 442.5921875 300.13 486.640836148 300.13 554.9921875 c 0
 300.13 619.707680458 272.259571429 664.3921875 209 664.3921875 c 0
 145.740428571 664.3921875 117.87 619.707680458 117.87 554.9921875 c 0
34.35 555.9921875 m 0
 34.35 667.025895365 101.017473118 738.9921875 209 738.9921875 c 0
 317.921505376 738.9921875 383.65 667.025895365 383.65 555.9921875 c 0
 383.65 441.959400615 317.921505376 367.9921875 209 367.9921875 c 0
 101.017473118 367.9921875 34.35 441.959400615 34.35 555.9921875 c 0
EndSplineSet
EndChar

StartChar: arrowleft
Encoding: 8592 8592 124
Width: 550
Flags: W
HStem: 303.96 109.36<229.853 537.749> 313.42 90.44<121.649 429.545>
LayerCount: 2
Fore
SplineSet
537.749023438 303.959648438 m 1x80
 121.649023438 313.419648438 l 1
 121.649023438 403.859648438 l 1x40
 537.749023438 413.319648438 l 1
 537.749023438 303.959648438 l 1x80
129.461523438 358.638671875 m 1
 303.798632812 200.7721875 l 1
 226.805742188 123.779296875 l 1
 12.2509765625 358.638671875 l 1
 226.805742188 593.5 l 1
 303.798632812 516.50515625 l 1
 129.461523438 358.638671875 l 1
EndSplineSet
EndChar

StartChar: product
Encoding: 8719 8719 128
Width: 719
Flags: W
HStem: 628.783 102.225<184.55 534.45>
VStem: 66.35 118.2<-179.994 628.783> 534.45 118.2<-179.994 628.783>
LayerCount: 2
Fore
SplineSet
652.65 731.0078125 m 1
 652.65 -179.994140625 l 1
 534.45 -179.994140625 l 1
 534.45 628.7828125 l 1
 184.55 628.7828125 l 1
 184.55 -179.994140625 l 1
 66.35 -179.994140625 l 1
 66.35 731.0078125 l 1
 652.65 731.0078125 l 1
EndSplineSet
EndChar

StartChar: summation
Encoding: 8721 8721 129
Width: 634
Flags: W
HStem: -179.994 101.36<191.66 592.65> 629.648 101.36<210.58 592.65>
LayerCount: 2
Back
SplineSet
264 585.0078125 m 5
 394 410 l 5
 394 319 l 5
 244 146 l 5
 544 146 l 5
 544 0 l 5
 55 0 l 5
 55 161 l 5
 235 358 l 5
 55 589 l 5
 55 731.0078125 l 5
 544 731.0078125 l 5
 544 585.0078125 l 5
 264 585.0078125 l 5
EndSplineSet
Fore
SplineSet
210.58 629.6478125 m 1
 427.33 325.14 l 1
 427.33 242.24 l 1
 191.66 -78.634140625 l 1
 592.65 -78.634140625 l 1
 592.65 -179.994140625 l 1
 66.35 -179.994140625 l 1
 66.35 -63.634140625 l 1
 319.05 278 l 1
 66.35 633.64 l 1
 66.35 731.0078125 l 1
 592.65 731.0078125 l 1
 592.65 629.6478125 l 1
 210.58 629.6478125 l 1
EndSplineSet
EndChar

StartChar: approxequal
Encoding: 8776 8776 130
Width: 450
VWidth: 999
Flags: W
HStem: 201.05 83.655<238.884 373.473> 250.05 82.655<83.1434 211.165> 390.51 83.79<239.154 371.491> 439.51 82.79<83.4134 210.168> 491.515 20G<389.485 404.425>
LayerCount: 2
Fore
SplineSet
436.65 257.7 m 1x80
 436.65 257.7 384.715429688 201.05 304.65 201.05 c 0x80
 227.111914062 201.05 201.265234375 250.05 144.65 250.05 c 0
 98.939855072 250.05 61.65 210.78 61.65 210.78 c 1
 13.35 282.705 l 1
 13.35 282.705 69.5217662465 332.705 142.65 332.705 c 0x40
 220.38838501 332.705 252.98838501 284.705 305.65 284.705 c 0
 361.199384616 284.705 389.62 321.11 389.62 321.11 c 1
 436.65 257.7 l 1x80
436.65 448.375 m 1
 436.65 448.375 384.715429688 390.51 304.65 390.51 c 0x28
 227.111914062 390.51 201.265234375 439.51 144.65 439.51 c 0
 98.939855072 439.51 61.65 400.51 61.65 400.51 c 1
 13.89 472.3 l 1
 13.89 472.3 70.0617662465 522.3 143.19 522.3 c 0x10
 220.92838501 522.3 253.52838501 474.3 306.19 474.3 c 0
 361.292846154 474.3 389.485 511.515 389.485 511.515 c 1x28
 436.65 448.375 l 1
EndSplineSet
EndChar

StartChar: perthousand
Encoding: 8240 8240 131
Width: 1263
Flags: W
HStem: -9.99805 84.8953<660.503 792.323 962.768 1094.59> 0 21G<190.05 303.946> 276.957 84.8943<660.503 792.323 962.768 1094.59> 367.143 84.8943<169.874 293.572> 654.097 84.8953<169.874 293.572> 711.008 20G<652.054 765.95>
VStem: 46.35 94.1002<481.734 625.383> 324.62 91.9898<483.834 623.292> 537.35 93.1002<106.693 246.152> 823.73 108.61<103.605 250.164> 852.35 50.26<74.4222 278.624> 1125.62 91.9898<107.579 245.282>
LayerCount: 2
Fore
SplineSet
932.34015625 176.481445312 m 0xb3d0
 932.34015625 103.605485412 975.639296875 74.8972265625 1028.56046875 74.8972265625 c 0
 1080.64163022 74.8972265625 1125.62015625 103.605485412 1125.62015625 176.481445312 c 0
 1125.62015625 250.16437941 1080.64163022 276.957265625 1028.56046875 276.957265625 c 0
 975.639296875 276.957265625 932.34015625 250.16437941 932.34015625 176.481445312 c 0xb3d0
852.35 176.481445312 m 0xb3b0
 852.35 278.623614564 919.897280167 361.8515625 1037.48046875 361.8515625 c 0
 1158.02210049 361.8515625 1217.60996094 278.623614564 1217.60996094 176.481445312 c 0
 1217.60996094 74.4221678792 1158.02210049 -9.998046875 1037.48046875 -9.998046875 c 0
 919.897280167 -9.998046875 852.35 74.4221678792 852.35 176.481445312 c 0xb3b0
630.45015625 176.481445312 m 0
 630.45015625 103.605199498 673.62725226 74.8972265625 726.40046875 74.8972265625 c 0
 778.626419935 74.8972265625 823.73015625 103.605199498 823.73015625 176.481445312 c 0xb3d0
 823.73015625 250.164225984 778.626419935 276.957265625 726.40046875 276.957265625 c 0
 673.62725226 276.957265625 630.45015625 250.164225984 630.45015625 176.481445312 c 0
537.35 176.481445312 m 0
 537.35 278.624023438 596.937871449 361.8515625 717.48046875 361.8515625 c 0
 835.062701353 361.8515625 902.609960938 278.623614564 902.609960938 176.481445312 c 0xb3b0
 902.609960938 74.4221678792 835.062701353 -9.998046875 717.48046875 -9.998046875 c 0
 596.937871449 -9.998046875 537.35 74.4218750003 537.35 176.481445312 c 0
140.45015625 553.622070312 m 0
 140.45015625 480.746039856 182.088280186 452.036875 231.48046875 452.036875 c 0
 280.783115835 452.036875 324.62015625 480.746039856 324.62015625 553.622070312 c 0
 324.62015625 627.303793211 280.783115835 654.096914062 231.48046875 654.096914062 c 0x3b90
 182.088280186 654.096914062 140.45015625 627.303793211 140.45015625 553.622070312 c 0
46.35 553.622070312 m 0
 46.35 655.764648438 113.89747245 738.9921875 231.48046875 738.9921875 c 0
 349.062491067 738.9921875 416.609960938 655.764648438 416.609960938 553.622070312 c 0
 416.609960938 451.5625 349.062491067 367.142578125 231.48046875 367.142578125 c 0
 113.89747245 367.142578125 46.35 451.5625 46.35 553.622070312 c 0
EndSplineSet
Refer: 138 8260 N 1 0 0 1 301 0 2
EndChar

StartChar: uni2031
Encoding: 8241 8241 132
Width: 1573
Flags: W
HStem: -9.99805 84.8953<660.503 792.323 967.923 1097.17 1272.77 1404.59> 0 21G<190.05 303.946> 276.957 84.8943<660.503 792.323 967.923 1099.49 1272.77 1404.59> 367.143 84.8943<169.848 293.598> 654.097 84.8953<169.848 293.598> 711.008 20G<652.054 765.95>
VStem: 46.35 94.1002<481.734 625.383> 324.62 91.9898<483.834 623.292> 537.35 93.1002<106.693 246.152> 823.73 112.53<103.605 250.164> 848.16 54.45<74.4222 278.624> 1129.81 112.53<103.605 250.164> 1162.35 54.45<74.4222 278.624> 1435.62 91.9898<107.579 245.282>
LayerCount: 2
Fore
SplineSet
1242.34015625 176.481445312 m 0xb394
 1242.34015625 103.605485412 1285.63929688 74.8972265625 1338.56046875 74.8972265625 c 0
 1390.64163022 74.8972265625 1435.62015625 103.605485412 1435.62015625 176.481445312 c 0
 1435.62015625 250.16437941 1390.64163022 276.957265625 1338.56046875 276.957265625 c 0
 1285.63929688 276.957265625 1242.34015625 250.16437941 1242.34015625 176.481445312 c 0xb394
1162.35 176.481445312 m 0xb38c
 1162.35 278.623614564 1229.89728016 361.8515625 1347.48046875 361.8515625 c 0
 1468.02210049 361.8515625 1527.60996094 278.623614564 1527.60996094 176.481445312 c 0
 1527.60996094 74.4221678792 1468.02210049 -9.998046875 1347.48046875 -9.998046875 c 0
 1229.89728016 -9.998046875 1162.35 74.4221678792 1162.35 176.481445312 c 0xb38c
936.26015625 176.481445312 m 0xb3d4
 936.26015625 103.605485412 979.559296875 74.8972265625 1032.48046875 74.8972265625 c 0
 1084.70650926 74.8972265625 1129.81015625 103.605485412 1129.81015625 176.481445312 c 0
 1129.81015625 250.16437941 1084.70650926 276.957265625 1032.48046875 276.957265625 c 0
 979.559296875 276.957265625 936.26015625 250.16437941 936.26015625 176.481445312 c 0xb3d4
848.16 176.481445312 m 0xb3ac
 848.16 278.623614564 909.13394002 361.8515625 1032.48046875 361.8515625 c 0
 1155.82602466 361.8515625 1216.79996094 278.623614564 1216.79996094 176.481445312 c 0
 1216.79996094 74.4221678792 1155.82602466 -9.998046875 1032.48046875 -9.998046875 c 0
 909.13394002 -9.998046875 848.16 74.4221678792 848.16 176.481445312 c 0xb3ac
630.45015625 176.481445312 m 0
 630.45015625 103.605199498 673.62725226 74.8972265625 726.40046875 74.8972265625 c 0
 778.626419935 74.8972265625 823.73015625 103.605199498 823.73015625 176.481445312 c 0xb3c4
 823.73015625 250.164225984 778.626419935 276.957265625 726.40046875 276.957265625 c 0
 673.62725226 276.957265625 630.45015625 250.164225984 630.45015625 176.481445312 c 0
537.35 176.481445312 m 0
 537.35 278.624023438 596.937871449 361.8515625 717.48046875 361.8515625 c 0
 835.062701353 361.8515625 902.609960938 278.623614564 902.609960938 176.481445312 c 0xb3a4
 902.609960938 74.4221678792 835.062701353 -9.998046875 717.48046875 -9.998046875 c 0
 596.937871449 -9.998046875 537.35 74.4218750003 537.35 176.481445312 c 0
140.45015625 553.622070312 m 0
 140.45015625 480.746039856 181.953280186 452.036875 231.48046875 452.036875 c 0
 280.918115835 452.036875 324.62015625 480.746039856 324.62015625 553.622070312 c 0
 324.62015625 627.303793211 280.918115835 654.096914062 231.48046875 654.096914062 c 0x3b84
 181.953280186 654.096914062 140.45015625 627.303793211 140.45015625 553.622070312 c 0
46.35 553.622070312 m 0
 46.35 655.764648438 113.89747245 738.9921875 231.48046875 738.9921875 c 0
 349.062491067 738.9921875 416.609960938 655.764648438 416.609960938 553.622070312 c 0
 416.609960938 451.5625 349.062491067 367.142578125 231.48046875 367.142578125 c 0
 113.89747245 367.142578125 46.35 451.5625 46.35 553.622070312 c 0
EndSplineSet
Refer: 138 8260 N 1 0 0 1 301 0 2
EndChar

StartChar: uni203D
Encoding: 8253 8253 133
Width: 566
Flags: W
HStem: -10 138.349<185.963 290.037> 292 92.3538<231.197 355.812> 637.409 101.584<124.057 342.471>
VStem: 169.437 137.127<6.67341 111.676> 184.59 108.82<513.393 791.008> 199.24 79.52<210 487.615> 407.546 112.974<433.943 578.525>
LayerCount: 2
Fore
SplineSet
199.24 210 m 1xe6
 184.59 791.0078125 l 1
 293.41 791.0078125 l 1xea
 278.76 210 l 1
 199.24 210 l 1xe6
169.43671875 59.174609375 m 0xf2
 169.43671875 101.08139961 196.462564417 128.34921875 237.999023438 128.34921875 c 0
 279.536512691 128.34921875 306.56328125 101.08139961 306.56328125 59.174609375 c 0
 306.56328125 17.2670945106 279.536512691 -10 237.999023438 -10 c 0
 196.462564417 -10 169.43671875 17.2670945106 169.43671875 59.174609375 c 0xf2
213.772851562 305 m 1
 225.50625 389.58375 l 1
 225.50625 389.58375 239.535129472 384.353828125 257.1484375 384.353828125 c 0
 355.737224614 384.353828125 407.545703125 425.82509343 407.545703125 503.145507812 c 0
 407.545703125 596.261804404 340.998884736 637.408515625 230.83953125 637.408515625 c 0
 137.170824169 637.408515625 60.898828125 583.408007812 60.898828125 583.408007812 c 1
 21.5912109375 685.311523438 l 1
 21.5912109375 685.311523438 101.8803125 738.9921875 231.24453125 738.9921875 c 0
 404.743649992 738.9921875 520.520117188 661.327703299 520.520117188 505.010742188 c 0
 520.520117188 357.985517121 392.915699442 292 280.7 292 c 0
 236.877706918 292 213.772851562 305 213.772851562 305 c 1
EndSplineSet
EndChar

StartChar: lira
Encoding: 8356 8356 134
Width: 553
Flags: W
HStem: 0 100.495<169.519 523> 217.7 80.6<60 424> 347.7 80.6<60 424> 636.396 103.066<234.56 445.096>
VStem: 70.7016 123.179<442.584 597.996> 148.174 108.207<206.726 347.216>
LayerCount: 2
Fore
SplineSet
523 0 m 1xf4
 30 0 l 1
 30 96.495 l 1
 30 96.495 148.17421875 175.491935719 148.17421875 289.379882812 c 0xf4
 148.17421875 391.588284089 70.7015625 418.16779209 70.7015625 547.185546875 c 0
 70.7015625 671.398535433 169.943924867 739.461914062 311.45859375 739.461914062 c 0
 440.8204466 739.461914062 498.60703125 701.785273438 498.60703125 701.785273438 c 1
 474.9375 602.774414062 l 1
 474.9375 602.774414062 407.639012831 636.39609375 333.75859375 636.39609375 c 0
 256.29719296 636.39609375 193.880078125 617.916162359 193.880078125 528.181118164 c 0xf8
 193.880078125 433.993438363 256.381445312 405.732238868 256.381445312 290.158203125 c 0
 256.381445312 172.634100703 169.519335938 100.495 169.519335938 100.495 c 1
 523 100.495 l 1
 523 0 l 1xf4
424 217.7 m 1
 60 217.7 l 1
 60 298.3 l 1
 424 298.3 l 1
 424 217.7 l 1
424 347.7 m 1
 60 347.7 l 1
 60 428.3 l 1
 424 428.3 l 1
 424 347.7 l 1
EndSplineSet
EndChar

StartChar: uni20B5
Encoding: 8373 8373 135
Width: 623
Flags: W
HStem: -9.99805 70.0178<328.375 420.625> 664.45 74.6711<328.375 420.625>
VStem: 46.35 123.644<228.841 500.417> 328.375 92.25<-105 60.0197 664.45 829.47>
LayerCount: 2
Fore
SplineSet
46.35 364.561523438 m 0
 46.35 591.206054688 169.331856399 739.12109375 385.888671875 739.12109375 c 0
 536.441133969 739.12109375 598.331640625 672.891601562 598.331640625 672.891601562 c 1
 550.78546875 583.778671875 l 1
 550.78546875 583.778671875 498.275781212 635.839179688 391.808671875 635.839179688 c 0
 236.426399689 635.839179688 169.993632812 527.234124013 169.993632812 364.561523438 c 0
 169.993632812 202.212735758 236.58812765 93.8238671879 392.348671875 93.8238671879 c 0
 506.767482772 93.8238671879 567.368554688 139.685703125 567.368554688 139.685703125 c 1
 601.477148438 44.595703125 l 1
 601.477148438 44.595703125 535.623698978 -9.998046875 385.888671875 -9.998046875 c 0
 169.331856399 -9.998046875 46.35 137.916992188 46.35 364.561523438 c 0
328.375 -105 m 1
 328.375 60.0197265625 l 1
 420.625 60.0197265625 l 1
 420.625 -105 l 1
 328.375 -105 l 1
328.375 664.45 m 1
 328.375 829.469726562 l 1
 420.625 829.469726562 l 1
 420.625 664.45 l 1
 328.375 664.45 l 1
EndSplineSet
EndChar

StartChar: uni20B2
Encoding: 8370 8370 136
Width: 739
Flags: W
HStem: -9.99805 71.7728<328.375 420.625> 301.05 98.495<386 512.229 618.127 704> 301.05 27.5957<512.229 618.127> 662.425 76.6961<328.375 420.625>
VStem: 46.35 123.644<218.7 499.67> 328.375 92.25<-105 61.7747 662.425 829.47> 534.851 110.281<152.03 300.922>
LayerCount: 2
Fore
SplineSet
328.375 -105 m 1x9e
 328.375 61.7747265625 l 1
 420.625 61.7747265625 l 1
 420.625 -105 l 1
 328.375 -105 l 1x9e
328.375 662.425 m 1
 328.375 829.469726562 l 1
 420.625 829.469726562 l 1
 420.625 662.425 l 1
 328.375 662.425 l 1
704 301.05 m 1xde
 386 301.05 l 1
 386 399.545 l 1
 704 399.545 l 1
 704 301.05 l 1xde
46.35 364.561523438 m 0
 46.35 591.206054688 172.176239363 739.12109375 378.888671875 739.12109375 c 0
 527.314865891 739.12109375 588.331640625 672.891601562 588.331640625 672.891601562 c 1
 548.70546875 581.183671875 l 1
 548.70546875 581.183671875 495.517041965 632.839179688 387.673671875 632.839179688 c 0
 236.778399474 632.839179688 169.993632812 525.435163463 169.993632812 364.561523438 c 0
 169.993632812 202.050829309 225.151001867 93.5538671879 369.888671875 93.5538671879 c 0
 487.702228228 93.5538671879 534.851445312 148.587871012 534.851445312 231.19 c 0
 534.851445312 299.350811165 512.228554688 328.645703125 512.228554688 328.645703125 c 1
 618.127148438 328.645703125 l 1xbe
 618.127148438 328.645703125 645.132421875 303.666610947 645.132421875 222 c 0
 645.132421875 93.0859042083 556.549302108 -9.998046875 369.888671875 -9.998046875 c 0
 163.810558702 -9.998046875 46.35 137.916992188 46.35 364.561523438 c 0
EndSplineSet
EndChar

StartChar: uni20BA
Encoding: 8378 8378 137
Width: 648
Flags: W
HStem: 0 102.9<224.55 390.849> 711.008 20G<106.35 224.55>
VStem: 106.35 118.2<102.9 731.008>
LayerCount: 2
Fore
SplineSet
362.65 352.43 m 1
 41.35 252.43 l 1
 41.35 333.57 l 1
 362.65 433.57 l 1
 362.65 352.43 l 1
362.65 482.43 m 1
 41.35 382.43 l 1
 41.35 463.57 l 1
 362.65 563.57 l 1
 362.65 482.43 l 1
224.55 102.9 m 1
 300 102.9 l 2
 499.941847826 102.9 503.695 309.6 503.695 309.6 c 1
 617.65 293.95 l 1
 617.65 293.95 608.44598909 -3.69455854799e-14 300 0 c 2
 106.35 0 l 1
 106.35 731.0078125 l 1
 224.55 731.0078125 l 1
 224.55 102.9 l 1
EndSplineSet
EndChar

StartChar: fraction
Encoding: 8260 8260 138
Width: 304
Flags: W
HStem: 0 21G<-110.95 2.94595> 711.008 20G<351.054 464.95>
LayerCount: 2
Fore
SplineSet
-110.950195312 0 m 5
 364.049804688 731.0078125 l 5
 464.950195312 731.0078125 l 5
 -10.0498046875 0 l 5
 -110.950195312 0 l 5
EndSplineSet
EndChar

StartChar: endash
Encoding: 8211 8211 139
Width: 570
Flags: W
HStem: 232.05 94.9<41.35 528.65>
LayerCount: 2
Fore
SplineSet
41.35 232.05 m 1
 41.35 326.95 l 1
 528.65 326.95 l 1
 528.65 232.05 l 1
 41.35 232.05 l 1
EndSplineSet
EndChar

StartChar: emdash
Encoding: 8212 8212 140
Width: 820
Flags: W
HStem: 232.05 94.9<21.35 798.65>
LayerCount: 2
Fore
SplineSet
21.35 232.05 m 1
 21.35 326.95 l 1
 798.65 326.95 l 1
 798.65 232.05 l 1
 21.35 232.05 l 1
EndSplineSet
EndChar

StartChar: Euro
Encoding: 8364 8364 141
Width: 683
Flags: W
HStem: -9.99805 103.282<351.332 581.214> 262.7 80.6<40 434.552> 392.7 80.6<40 458.824> 636.379 102.742<351.392 561.321>
VStem: 106.35 122.969<286.553 442.704>
LayerCount: 2
Fore
SplineSet
434.55203125 262.7 m 1
 40 262.7 l 1
 40 343.3 l 1
 449.71609375 343.3 l 1
 434.55203125 262.7 l 1
458.82390625 392.7 m 1
 40 392.7 l 1
 40 473.3 l 1
 473.98796875 473.3 l 1
 458.82390625 392.7 l 1
106.35 364.561523438 m 0
 106.35 591.206054688 229.33177444 739.12109375 445.888671875 739.12109375 c 0
 596.440755643 739.12109375 658.331640625 672.891601562 658.331640625 672.891601562 c 1
 610.78546875 584.318671875 l 1
 610.78546875 584.318671875 558.364429847 636.379179688 452.078671875 636.379179688 c 0
 296.034066042 636.379179688 229.318632812 527.557936912 229.318632812 364.561523438 c 0
 229.318632812 201.888922859 298.948148694 93.2838671879 461.808671875 93.2838671879 c 0
 570.04278246 93.2838671879 627.368554688 139.145703125 627.368554688 139.145703125 c 1
 661.477148438 44.595703125 l 1
 661.477148438 44.595703125 595.623891936 -9.998046875 445.888671875 -9.998046875 c 0
 229.33177444 -9.998046875 106.35 137.916992188 106.35 364.561523438 c 0
EndSplineSet
EndChar

StartChar: uni20AD
Encoding: 8365 8365 142
Width: 665
Flags: W
HStem: 0 21G<102.35 220.55 477.68 643.65> 308.645 93.71<21.35 602.65> 711.008 20G<102.35 220.55 475.859 633.65>
VStem: 102.35 118.2<0 314.645 397.355 731.008> 219.505 1.045<314.645 397.355>
LayerCount: 2
Fore
SplineSet
602.65 308.645 m 1xe0
 21.35 308.645 l 1
 21.35 402.355 l 1
 602.65 402.355 l 1
 602.65 308.645 l 1xe0
495.205 0 m 1
 219.505 314.645 l 1
 219.505 397.355 l 1xe8
 492.205 731.0078125 l 1
 633.65 731.0078125 l 1
 321 370.515 l 1
 643.65 0 l 1
 495.205 0 l 1
102.35 0 m 1xf0
 102.35 731.0078125 l 1
 220.55 731.0078125 l 1
 220.55 0 l 1
 102.35 0 l 1xf0
EndSplineSet
EndChar

StartChar: uni20B9
Encoding: 8377 8377 143
Width: 574
Flags: W
HStem: 0 21G<367.14 495> 276.05 103.117<41.35 273.091> 452.7 80.6<41.35 532.65> 627.559 103.448<41.35 280.573>
VStem: 336.729 119.049<396.701 577.073>
LayerCount: 2
Fore
SplineSet
152.1 276.05 m 2
 41.35 276.05 l 1
 41.35 379.1665625 l 1
 166.888671875 379.276914062 l 2
 263.868375139 379.358383163 336.728710938 401.269396535 336.728710938 501.586523438 c 0
 336.728710938 603.921389741 263.726372973 627.380761057 167.888671875 627.455898438 c 2
 41.35 627.559414062 l 1
 41.35 731.0078125 l 1
 183.888671875 731.0078125 l 2
 326.745750968 731.0078125 455.77734375 669.702634659 455.77734375 505.911523438 c 0
 455.77734375 367.239534297 332.988476562 330.601367188 332.988476562 330.601367188 c 1
 332.988476562 330.601367188 400.717554274 315.530979204 431.883583984 212.17152832 c 2
 495 0 l 1
 372.8 0 l 1
 327.928144531 158.550849609 l 2
 298.367188445 260.089703442 272.386940152 276.05 152.1 276.05 c 2
532.65 452.7 m 1
 41.35 452.7 l 1
 41.35 533.3 l 1
 532.65 533.3 l 1
 532.65 452.7 l 1
EndSplineSet
EndChar

StartChar: uni20B4
Encoding: 8372 8372 144
Width: 677
Flags: W
HStem: -10 103.687<254.157 493.342> 257.7 80.6<41.35 635.65> 387.7 80.6<41.35 635.65> 634.434 104.687<191.419 408.467>
VStem: 91.35 113.597<134.82 256.202> 457.031 118.512<473.85 592.749>
LayerCount: 2
Fore
SplineSet
635.65 257.7 m 1
 41.35 257.7 l 1
 41.35 338.3 l 1
 635.65 338.3 l 1
 635.65 257.7 l 1
635.65 387.7 m 1
 41.35 387.7 l 1
 41.35 468.3 l 1
 635.65 468.3 l 1
 635.65 387.7 l 1
355.273945312 314.78625 m 0
 223.872263861 280.58068668 204.946640625 249.522250404 204.946640625 193.055 c 0
 204.946640625 127.405667501 260.445745603 93.6869140621 373.258242188 93.6869140621 c 0
 474.477160091 93.6869140621 556.546875 143.072421875 556.546875 143.072421875 c 1
 591.003125 42.2294921875 l 1
 591.003125 42.2294921875 495.302204299 -10 344.06484375 -10 c 0
 179.334148816 -10 91.35 71.8235703477 91.35 203.515 c 0
 91.35 313.305373721 146.162465791 369.156534419 311.927460938 417.951054688 c 0
 425.61168424 451.147360564 457.031054688 473.361795672 457.031054688 534.08 c 0
 457.031054688 596.696993028 409.365989625 634.434179688 303.37125 634.434179688 c 0
 211.76122966 634.434179688 149.6084375 591.913671875 149.6084375 591.913671875 c 1
 110.474414062 688.891601562 l 1
 110.474414062 688.891601562 178.143193716 739.12109375 317.286132812 739.12109375 c 0
 477.823518622 739.12109375 575.542578125 654.686775228 575.542578125 523.565 c 0
 575.542578125 419.880079649 517.776916686 357.101780897 355.273945312 314.78625 c 0
EndSplineSet
EndChar

StartChar: colonmonetary
Encoding: 8353 8353 145
Width: 623
Flags: W
HStem: -9.99805 75.4178<178.508 260.758 327.428 409.678> 636.379 102.742<376.654 427.562> 663.1 76.0211<280.672 362.922 430.672 512.922>
VStem: 46.35 123.644<228.706 500.551>
LayerCount: 2
Fore
SplineSet
296.664257812 -105 m 1x90
 327.427929688 61.3697265625 l 1
 409.677929688 61.3697265625 l 1
 378.914257812 -105 l 1
 296.664257812 -105 l 1x90
430.672070312 663.1 m 1xb0
 461.435742188 829.469726562 l 1
 543.685742188 829.469726562 l 1
 512.922070312 663.1 l 1
 430.672070312 663.1 l 1xb0
46.35 364.561523438 m 0
 46.35 591.206054688 169.331856399 739.12109375 385.888671875 739.12109375 c 0
 536.441133969 739.12109375 598.331640625 672.891601562 598.331640625 672.891601562 c 1
 550.78546875 584.318671875 l 1
 550.78546875 584.318671875 498.275781212 636.379179688 391.808671875 636.379179688 c 0xd0
 236.426399689 636.379179688 169.993632812 527.557936912 169.993632812 364.561523438 c 0
 169.993632812 201.888922859 239.340497959 93.2838671879 401.538671875 93.2838671879 c 0
 509.773031419 93.2838671879 567.098554688 139.685703125 567.098554688 139.685703125 c 1
 601.477148438 44.595703125 l 1
 601.477148438 44.595703125 535.623698978 -9.998046875 385.888671875 -9.998046875 c 0
 169.331856399 -9.998046875 46.35 137.916992188 46.35 364.561523438 c 0
146.664257812 -105 m 1
 178.507929688 65.4197265625 l 1
 260.757929688 65.4197265625 l 1
 228.914257812 -105 l 1
 146.664257812 -105 l 1
280.672070312 663.1 m 1xb0
 311.435742188 829.469726562 l 1
 393.685742188 829.469726562 l 1
 362.922070312 663.1 l 1
 280.672070312 663.1 l 1xb0
EndSplineSet
EndChar

StartChar: zero.inferior
Encoding: 8320 8320 148
Width: 454
Flags: W
HStem: -358 81.4311<166.758 289.242> 61.5689 81.4311<166.758 289.242>
VStem: 30.7655 88.4469<-222.116 6.42757> 336.788 88.4469<-222.116 6.42757>
LayerCount: 2
Fore
SplineSet
119.212375 -108 m 0
 119.212375 -209.60855 151.626 -276.568925 228 -276.568925 c 0
 304.374 -276.568925 336.787625 -209.60855 336.787625 -108 c 0
 336.787625 -6.39145 304.374 61.568925 228 61.568925 c 0
 151.626 61.568925 119.212375 -6.39145 119.212375 -108 c 0
30.76545 -108 m 0
 30.76545 44 98.992075 143 228 143 c 0
 357.007925 143 425.23455 44 425.23455 -108 c 0
 425.23455 -260 357.007925 -358 228 -358 c 0
 98.992075 -358 30.76545 -260 30.76545 -108 c 0
EndSplineSet
EndChar

StartChar: one.inferior
Encoding: 8321 8321 149
Width: 276
Flags: W
HStem: -10.8447 21G<36.869 83.4465>
VStem: 140.132 92.2282<-350 39.3423>
LayerCount: 2
Fore
SplineSet
232.35975 137 m 1
 232.35975 -350 l 1
 140.131525 -350 l 1
 140.131525 39.3423 l 1
 45.89065 -10.8447 l 1
 15.632325 56.23455 l 1
 151.240875 137 l 1
 232.35975 137 l 1
EndSplineSet
EndChar

StartChar: two.inferior
Encoding: 8322 8322 150
Width: 404
Flags: W
HStem: -350 79.0951<132.345 379.109> 61.561 81.439<101.815 263.713>
VStem: 35.8827 96.4628<-270.905 -230.572> 283.334 90.0095<-59.0012 40.5825>
LayerCount: 2
Fore
SplineSet
283.334375 -9.57845 m 0
 283.334375 32.272575 258.912825 61.561 189.320125 61.561 c 0
 124.007925 61.561 77.4691 25.3423 77.4691 25.3423 c 1
 45.8748 101.32805 l 1
 45.8748 101.32805 104.8748 143 191.76545 143 c 0
 304.89065 143 373.3439 92.4374 373.3439 -7.79715 c 0
 373.3439 -95.805075 319.6878 -133.0317 233 -177.5008 c 0
 138.649775 -225.92235 132.790825 -255.335975 132.3455 -270.9049 c 1
 379.10935 -270.9049 l 1
 379.10935 -350 l 1
 35.882725 -350 l 1
 35.882725 -314 l 2
 35.882725 -212.194925 98.554675 -155.741675 209.554675 -96.163225 c 0
 258.600625 -70.51505 283.334375 -44.95245 283.334375 -9.57845 c 0
EndSplineSet
EndChar

StartChar: three.inferior
Encoding: 8323 8323 151
Width: 388
Flags: W
HStem: -358 79.4311<62.1339 243.168> -138.821 73.6418<110.891 241.878> 60.897 82.103<69.8444 239.935>
VStem: 255.662 92.2361<-50.6656 44.5329> 265.108 93.2362<-256.033 -159.366>
LayerCount: 2
Fore
SplineSet
167.3122 -65.179075 m 2xe8
 232.26465 -65.179075 255.662425 -44.42155 255.662425 -3.242475 c 0
 255.662425 33.1553 234.4675 60.896975 165.101425 60.896975 c 0
 96.570525 60.896975 54.4691 30.459575 54.4691 30.459575 c 1
 27.773375 106.7813 l 1
 27.773375 106.7813 79.773375 143 169.32805 143 c 0
 280 143 347.898575 95.2187 347.898575 5.54675 c 0xf0
 347.898575 -76.76545 273.5943 -100.2187 273.5943 -100.2187 c 1
 273.5943 -100.2187 358.3439 -122.3439 358.3439 -214.6561 c 0
 358.3439 -316.7813 282.5626 -358 168 -358 c 0
 71.664025 -358 13.882725 -323 13.882725 -323 c 1
 39.6878 -244.3423 l 1
 39.6878 -244.3423 86.679875 -278.568925 161.76545 -278.568925 c 0
 232.92075 -278.568925 265.10775 -253.038025 265.10775 -208.194925 c 0
 265.10775 -161.023775 231.584775 -138.820925 167.757525 -138.820925 c 2
 110.89065 -138.820925 l 1
 110.89065 -65.179075 l 1
 167.3122 -65.179075 l 2xe8
EndSplineSet
EndChar

StartChar: four.inferior
Encoding: 8324 8324 152
Width: 439
Flags: W
HStem: -232.485 75.4231<129.314 411.899>
VStem: 252.929 88.4469<-350 7.51345>
LayerCount: 2
Fore
SplineSet
341.3756 137 m 1
 341.3756 -350 l 1
 252.928675 -350 l 1
 252.928675 7.51345 l 1
 129.3138 -157.0618 l 1
 411.898575 -157.0618 l 1
 411.898575 -232.48495 l 1
 46.992075 -232.48495 l 1
 29.085575 -166.179075 l 1
 254.374 137 l 1
 341.3756 137 l 1
EndSplineSet
EndChar

StartChar: five.inferior
Encoding: 8325 8325 153
Width: 407
Flags: W
HStem: -357 81.103<67.0721 258.331> -102.743 72.9778<138.404 263.629> 58.9049 78.0951<143.423 342.227>
VStem: 287.452 90.4548<-246.211 -126.063>
LayerCount: 2
Fore
SplineSet
183.335975 -357 m 0
 79.4374 -357 17.76545 -323 17.76545 -323 c 1
 43.1252 -243.006325 l 1
 43.1252 -243.006325 100.789225 -275.896975 175.117275 -275.896975 c 0
 256.04595 -275.896975 287.45165 -242.26465 287.45165 -187.210775 c 0
 287.45165 -134.26625 258.928675 -102.743275 201.210775 -102.743275 c 0
 139.836775 -102.743275 119.29795 -143.789225 119.29795 -143.789225 c 1
 46.10935 -125.54675 l 1
 71.664025 137 l 1
 342.226625 137 l 1
 342.226625 58.9049 l 1
 143.42315 58.9049 l 1
 131.884325 -57.0301 l 1
 131.884325 -57.0301 153.7512 -29.76545 223.461175 -29.76545 c 0
 322.586375 -29.76545 377.9065 -87.8748 377.9065 -184.8748 c 0
 377.9065 -291.882725 311.4691 -357 183.335975 -357 c 0
EndSplineSet
EndChar

StartChar: six.inferior
Encoding: 8326 8326 154
Width: 427
Flags: W
HStem: -358 77.5325<157.047 286.089> -104.532 70.7512<153.897 286.751> 63.5689 79.4311<169.805 338.297>
VStem: 30.7655 98.3376<-249.242 -42.3375> 30.7655 85.2282<-80.5531 5.73803> 312.124 84.6656<-254.796 -130.004>
LayerCount: 2
Fore
SplineSet
129.103025 -192 m 0xf4
 129.103025 -242.725825 156.727425 -280.4675 220.554675 -280.4675 c 0
 285.04595 -280.4675 312.1236 -242.725825 312.1236 -192 c 0
 312.1236 -141.274175 285.374 -104.5325 220.554675 -104.5325 c 0
 156.727425 -104.5325 129.103025 -141.274175 129.103025 -192 c 0xf4
115.993675 -80.553075 m 1xec
 115.993675 -80.553075 142.228225 -33.7813 233.570525 -33.7813 c 0
 333.45325 -33.7813 396.789225 -97.89065 396.789225 -191 c 0
 396.789225 -298 329.5626 -358 221 -358 c 0
 100.7813 -358 30.76545 -285 30.76545 -107 c 0xf4
 30.76545 54 105.773375 143 239.67195 143 c 0
 335.461175 143 383.57845 102.4374 383.57845 102.4374 c 1
 354.6561 31.678275 l 1
 354.6561 31.678275 315.773375 63.568925 244.789225 63.568925 c 0
 162.51665 63.568925 120.0016 15.272575 115.993675 -80.553075 c 1xec
EndSplineSet
EndChar

StartChar: seven.inferior
Encoding: 8327 8327 155
Width: 402
Flags: W
HStem: 57.9049 79.0951<33.4453 267.647>
VStem: 116.382 92.5642<-350 -211.861>
LayerCount: 2
Fore
SplineSet
208.946125 -350 m 1
 116.381925 -350 l 1
 124.04595 -122.321725 267.646575 57.9049 267.646575 57.9049 c 1
 33.445325 57.9049 l 1
 33.445325 137 l 1
 369.554675 137 l 1
 369.554675 71.5927 l 1
 369.554675 71.5927 211.055475 -109.61015 208.946125 -350 c 1
EndSplineSet
EndChar

StartChar: eight.inferior
Encoding: 8328 8328 156
Width: 440
Flags: W
HStem: -358 74.9778<142.847 298.585> -130.712 69.4232<169.837 273.265> -110.344 34.6957<112.547 331> 67.0222 75.9778<154.724 287.969>
VStem: 30.7655 87.3376<-258.576 -156.949> 54.3201 84.111<-43.1413 48.8795> 305.78 84.111<-43.1413 48.3556> 323.108 87.3376<-259.252 -156.279>
LayerCount: 2
Fore
SplineSet
220.4374 -61.288425 m 0xd2
 273.26465 -61.288425 305.7797 -36.757525 305.7797 2.538825 c 0
 305.7797 43.381925 274.374 67.022175 220.32805 67.022175 c 0
 168.2821 67.022175 138.431075 43.381925 138.431075 2.538825 c 0
 138.431075 -36.757525 169.836775 -61.288425 220.4374 -61.288425 c 0xd2
220.32805 143 m 0
 326 143 389.89065 93.10935 389.89065 12 c 0
 389.89065 -66.9065 331 -110.3439 220.32805 -110.3439 c 0
 112.54675 -110.3439 54.320125 -66.9065 54.320125 12 c 0xb6
 54.320125 93.10935 116.6561 143 220.32805 143 c 0
220.773375 -283.022175 m 0
 286.381925 -283.022175 323.10775 -255.600625 323.10775 -205.976225 c 0
 323.10775 -159.79715 286.381925 -130.711575 220.773375 -130.711575 c 0
 155.164825 -130.711575 118.103025 -159.79715 118.103025 -205.976225 c 0xd9
 118.103025 -255.600625 155.164825 -283.022175 220.773375 -283.022175 c 0
220.773375 -75.648175 m 0xb9
 343 -75.648175 410.445325 -125.0935 410.445325 -213.0935 c 0
 410.445325 -301.32805 336 -358 220.773375 -358 c 0
 105.54675 -358 30.76545 -301.32805 30.76545 -213.0935 c 0
 30.76545 -125.0935 98.54675 -75.648175 220.773375 -75.648175 c 0xb9
EndSplineSet
EndChar

StartChar: nine.inferior
Encoding: 8329 8329 157
Width: 426
Flags: W
HStem: -358 79.4311<87.16 256.36> -182.109 70.8606<141.837 272.958> 64.5769 78.4231<141.006 273.647>
VStem: 30.7655 86.0016<-85.133 39.7685> 299.014 97.2203<-172.662 34.0604> 308.334 87.9002<-220.738 -134.111>
LayerCount: 2
Fore
SplineSet
299.01425 -23 m 0xf8
 299.01425 27.725825 271.4992 64.57685 207.7813 64.57685 c 0
 143.399375 64.57685 116.76705 27.725825 116.76705 -23 c 0
 116.76705 -73.616475 143.071325 -111.2488 207.7813 -111.2488 c 0
 271.4992 -111.2488 299.01425 -73.616475 299.01425 -23 c 0xf8
308.334375 -134.11095 m 1xf4
 308.334375 -134.11095 282.099825 -182.10935 193.429475 -182.10935 c 0
 93.54675 -182.10935 30.76545 -117.10935 30.76545 -23.554675 c 0
 30.76545 83.445325 97.4374 143 206 143 c 0
 326.2187 143 396.23455 70 396.23455 -108 c 0xf8
 396.23455 -269 321.117275 -358 187.32805 -358 c 0
 91.538825 -358 43.42155 -317.54675 43.42155 -317.54675 c 1
 70.117275 -246.3423 l 1
 70.117275 -246.3423 109.554675 -278.568925 182.210775 -278.568925 c 0
 262.70205 -278.568925 304.32645 -229.9366 308.334375 -134.11095 c 1xf4
EndSplineSet
EndChar

StartChar: zero.superior
Encoding: 8304 8304 158
Width: 455
Flags: W
HStem: 342 81.4311<166.758 289.334> 761.569 81.4311<166.758 289.334>
VStem: 30.7655 88.4469<477.884 706.428> 337.342 88.4469<477.884 706.428>
LayerCount: 2
Fore
SplineSet
119.212375 592 m 0
 119.212375 490.39145 151.626 423.431075 228 423.431075 c 0
 304.374 423.431075 337.3423 490.39145 337.3423 592 c 0
 337.3423 693.60855 304.374 761.568925 228 761.568925 c 0
 151.626 761.568925 119.212375 693.60855 119.212375 592 c 0
30.76545 592 m 0
 30.76545 744 98.992075 843 228 843 c 0
 357.007925 843 425.789225 744 425.789225 592 c 0
 425.789225 440 357.007925 342 228 342 c 0
 98.992075 342 30.76545 440 30.76545 592 c 0
EndSplineSet
EndChar

StartChar: one.superior
Encoding: 185 185 159
Width: 276
Flags: W
VStem: 140.132 92.2282<350 739.342>
LayerCount: 2
Fore
SplineSet
232.35975 837 m 1
 232.35975 350 l 1
 140.131525 350 l 1
 140.131525 739.3423 l 1
 45.89065 689.1553 l 1
 15.632325 756.23455 l 1
 151.240875 837 l 1
 232.35975 837 l 1
EndSplineSet
EndChar

StartChar: two.superior
Encoding: 178 178 160
Width: 404
Flags: W
HStem: 350 79.0951<132.345 379.109> 761.561 81.439<101.906 263.819>
VStem: 35.8827 96.4628<429.095 469.428> 283.334 90.0095<640.35 740.583>
LayerCount: 2
Fore
SplineSet
283.334375 690.42155 m 0
 283.334375 732.272575 259.35815 761.561 189.76545 761.561 c 0
 124.45325 761.561 77.4691 725.3423 77.4691 725.3423 c 1
 45.8748 800.882725 l 1
 45.8748 800.882725 104.8748 843 191.76545 843 c 0
 304.89065 843 373.3439 792.4374 373.3439 692.20285 c 0
 373.3439 604.194925 319.6878 566.9683 233 522.4992 c 0
 138.649775 474.07765 132.790825 444.664025 132.3455 429.0951 c 1
 379.10935 429.0951 l 1
 379.10935 350 l 1
 35.882725 350 l 1
 35.882725 386 l 2
 35.882725 487.805075 99.445325 544.258325 210 603.836775 c 0
 259.04595 629.48495 283.334375 655.04755 283.334375 690.42155 c 0
EndSplineSet
EndChar

StartChar: three.superior
Encoding: 179 179 161
Width: 388
Flags: W
HStem: 342 79.4311<62.1339 243.168> 561.179 73.6418<110.891 241.878> 730.124 21G<47.4635 54.4691> 760.897 82.103<69.8444 239.935>
VStem: 255.662 92.2361<649.334 744.533> 265.108 93.2362<442.195 540.826>
LayerCount: 2
Fore
SplineSet
167.3122 634.820925 m 2xf4
 232.26465 634.820925 255.662425 655.57845 255.662425 696.757525 c 0
 255.662425 733.1553 234.4675 760.896975 165.101425 760.896975 c 0
 96.570525 760.896975 54.4691 730.1236 54.4691 730.1236 c 1
 27.773375 806.335975 l 1
 27.773375 806.335975 79.773375 843 169.32805 843 c 0
 280 843 347.898575 795.2187 347.898575 705.54675 c 0xf8
 347.898575 623.23455 273.5943 599.7813 273.5943 599.7813 c 1
 273.5943 599.7813 358.3439 578.101425 358.3439 485.789225 c 0
 358.3439 383.664025 282.5626 342 168 342 c 0
 71.664025 342 13.882725 376.10935 13.882725 376.10935 c 1
 39.6878 455.76705 l 1
 39.6878 455.76705 86.679875 421.431075 161.76545 421.431075 c 0
 232.92075 421.431075 265.10775 446.961975 265.10775 491.805075 c 0
 265.10775 538.976225 231.584775 561.179075 167.757525 561.179075 c 2
 110.89065 561.179075 l 1
 110.89065 634.820925 l 1
 167.3122 634.820925 l 2xf4
EndSplineSet
EndChar

StartChar: four.superior
Encoding: 8308 8308 162
Width: 439
Flags: W
HStem: 467.515 75.4232<129.314 411.899>
VStem: 252.929 88.4469<350 706.177>
LayerCount: 2
Fore
SplineSet
341.3756 837 m 1
 341.3756 350 l 1
 252.928675 350 l 1
 252.928675 706.177475 l 1
 129.3138 542.9382 l 1
 411.898575 542.9382 l 1
 411.898575 467.51505 l 1
 46.992075 467.51505 l 1
 29.085575 533.820925 l 1
 254.374 837 l 1
 341.3756 837 l 1
EndSplineSet
EndChar

StartChar: five.superior
Encoding: 8309 8309 163
Width: 407
Flags: W
HStem: 343 81.103<67.0721 258.331> 597.257 72.9778<138.404 263.629> 758.905 78.0951<143.423 342.227>
VStem: 287.452 90.4548<453.789 573.937>
LayerCount: 2
Fore
SplineSet
183.335975 343 m 0
 79.4374 343 17.76545 377 17.76545 377 c 1
 43.1252 456.993675 l 1
 43.1252 456.993675 100.789225 424.103025 175.117275 424.103025 c 0
 256.04595 424.103025 287.45165 457.73535 287.45165 512.789225 c 0
 287.45165 565.73375 258.928675 597.256725 201.210775 597.256725 c 0
 139.836775 597.256725 119.29795 556.210775 119.29795 556.210775 c 1
 46.10935 574.45325 l 1
 71.664025 837 l 1
 342.226625 837 l 1
 342.226625 758.9049 l 1
 143.42315 758.9049 l 1
 131.884325 642.9699 l 1
 131.884325 642.9699 153.7512 670.23455 223.461175 670.23455 c 0
 322.586375 670.23455 377.9065 612.1252 377.9065 515.1252 c 0
 377.9065 408.117275 311.4691 343 183.335975 343 c 0
EndSplineSet
EndChar

StartChar: six.superior
Encoding: 8310 8310 164
Width: 427
Flags: W
HStem: 342 77.5325<157.047 286.089> 595.467 70.7512<153.897 286.751> 731.342 21G<354.656 362.792> 763.569 79.4311<169.805 337.623>
VStem: 30.7655 98.3376<450.758 657.662> 30.7655 85.2282<618.556 705.738> 312.124 84.6656<445.204 569.996>
LayerCount: 2
Fore
SplineSet
129.103025 508 m 0xfa
 129.103025 457.274175 156.727425 419.5325 220.554675 419.5325 c 0
 285.04595 419.5325 312.1236 457.274175 312.1236 508 c 0
 312.1236 558.725825 285.374 595.4675 220.554675 595.4675 c 0
 156.727425 595.4675 129.103025 558.725825 129.103025 508 c 0xfa
115.993675 618.556275 m 1xf6
 115.993675 618.556275 142.228225 666.2187 233.570525 666.2187 c 0
 333.45325 666.2187 396.789225 602.10935 396.789225 509 c 0
 396.789225 402 329.5626 342 221 342 c 0
 100.7813 342 30.76545 415 30.76545 593 c 0xfa
 30.76545 754 105.773375 843 239.67195 843 c 0
 335.461175 843 383.57845 802.4374 383.57845 802.4374 c 1
 354.6561 731.3423 l 1
 354.6561 731.3423 315.773375 763.568925 244.789225 763.568925 c 0
 162.51665 763.568925 120.0016 714.82725 115.993675 618.556275 c 1xf6
EndSplineSet
EndChar

StartChar: seven.superior
Encoding: 8311 8311 165
Width: 402
Flags: W
HStem: 757.905 79.0951<33.4453 267.647>
VStem: 116.382 92.5642<350 488.091>
LayerCount: 2
Fore
SplineSet
208.946125 350 m 1
 116.381925 350 l 1
 124.04595 577.678275 267.646575 757.9049 267.646575 757.9049 c 1
 33.445325 757.9049 l 1
 33.445325 837 l 1
 369.554675 837 l 1
 369.554675 771.147375 l 1
 369.554675 771.147375 211.055475 590.38985 208.946125 350 c 1
EndSplineSet
EndChar

StartChar: eight.superior
Encoding: 8312 8312 166
Width: 443
Flags: W
HStem: 342 74.9778<143.555 300.55> 569.288 69.4232<170.282 275.491> 589.656 34.6957<112.992 333.227> 767.022 75.9778<155.315 290.122>
VStem: 30.7655 87.3376<443.207 543.051> 54.3201 84.111<656.859 748.879> 308.452 84.1109<658.267 748.356> 325.78 87.3376<443.207 543.051>
LayerCount: 2
Fore
SplineSet
221.773375 638.711575 m 0xd2
 275.491275 638.711575 308.45165 663.242475 308.45165 702.538825 c 0
 308.45165 743.381925 276.600625 767.022175 221.664025 767.022175 c 0
 169.17275 767.022175 138.431075 743.381925 138.431075 702.538825 c 0
 138.431075 663.242475 170.2821 638.711575 221.773375 638.711575 c 0xd2
221.664025 843 m 0
 328.226625 843 392.5626 793.10935 392.5626 712 c 0
 392.5626 633.0935 333.226625 589.6561 221.664025 589.6561 c 0
 112.992075 589.6561 54.320125 633.0935 54.320125 712 c 0xb6
 54.320125 793.10935 117.101425 843 221.664025 843 c 0
222.10935 416.977825 m 0
 288.163225 416.977825 325.7797 444.399375 325.7797 494.023775 c 0
 325.7797 540.20285 288.163225 569.288425 222.10935 569.288425 c 0
 156.055475 569.288425 118.103025 540.20285 118.103025 494.023775 c 0xd9
 118.103025 444.399375 156.055475 416.977825 222.10935 416.977825 c 0
222.10935 624.351825 m 0xb9
 345.226625 624.351825 413.117275 574.9065 413.117275 486.9065 c 0
 413.117275 398.67195 337.7813 342 222.10935 342 c 0
 106.4374 342 30.76545 398.67195 30.76545 486.9065 c 0
 30.76545 574.9065 98.992075 624.351825 222.10935 624.351825 c 0xb9
EndSplineSet
EndChar

StartChar: nine.superior
Encoding: 8313 8313 167
Width: 426
Flags: W
HStem: 342 79.4311<88.4079 256.36> 517.891 70.8605<141.837 272.958> 764.577 78.4231<141.006 273.647>
VStem: 30.7655 86.0016<614.867 739.768> 299.014 97.2203<527.338 734.06> 308.334 87.9002<479.262 566.444>
LayerCount: 2
Fore
SplineSet
299.01425 677 m 0xf8
 299.01425 727.725825 271.4992 764.57685 207.7813 764.57685 c 0
 143.399375 764.57685 116.76705 727.725825 116.76705 677 c 0
 116.76705 626.383525 143.071325 588.7512 207.7813 588.7512 c 0
 271.4992 588.7512 299.01425 626.383525 299.01425 677 c 0xf8
308.334375 566.443725 m 1xf4
 308.334375 566.443725 282.099825 517.89065 193.429475 517.89065 c 0
 93.54675 517.89065 30.76545 582.89065 30.76545 676.445325 c 0
 30.76545 783.445325 97.4374 843 206 843 c 0
 326.2187 843 396.23455 770 396.23455 592 c 0xf8
 396.23455 431 321.117275 342 187.32805 342 c 0
 91.538825 342 43.42155 382.5626 43.42155 382.5626 c 1
 70.117275 453.76705 l 1
 70.117275 453.76705 109.554675 421.431075 182.210775 421.431075 c 0
 262.70205 421.431075 304.32645 470.618075 308.334375 566.443725 c 1xf4
EndSplineSet
EndChar

StartChar: circumflex
Encoding: 710 710 168
Width: 362
Flags: W
HStem: 517.35 213.658
VStem: 22.35 317.3
LayerCount: 2
Fore
SplineSet
275.05 517.35 m 1
 181 634.182617188 l 1
 86.95 517.35 l 1
 22.35 546 l 1
 133.7 731.0078125 l 1
 228.3 731.0078125 l 1
 339.65 546 l 1
 275.05 517.35 l 1
EndSplineSet
EndChar

StartChar: caron
Encoding: 711 711 169
Width: 362
Flags: W
HStem: 527.35 213.658
VStem: 22.35 317.3
LayerCount: 2
Fore
SplineSet
86.95 741.0078125 m 1
 181 624.175195312 l 1
 275.05 741.0078125 l 1
 339.65 712.3578125 l 1
 228.3 527.35 l 1
 133.7 527.35 l 1
 22.35 712.3578125 l 1
 86.95 741.0078125 l 1
EndSplineSet
EndChar

StartChar: breve
Encoding: 728 728 170
Width: 322
VWidth: 999
Flags: W
HStem: 604.337 81.5375<94.4581 228.362> 715 20G<37.3968 70.8934 251.927 285.424>
VStem: 6.35 310.12
LayerCount: 2
Fore
SplineSet
161.41015625 604.336523438 m 0
 52.7991157599 604.336523438 6.35 696.462695312 6.35 696.462695312 c 1
 70.893359375 735 l 1
 70.893359375 735 90.8998389536 685.874023438 161.41015625 685.874023438 c 0
 231.920473546 685.874023438 251.926953125 735 251.926953125 735 c 1
 316.4703125 696.462695312 l 1
 316.4703125 696.462695312 270.02119674 604.336523438 161.41015625 604.336523438 c 0
EndSplineSet
EndChar

StartChar: dotaccent
Encoding: 729 729 171
Width: 248
Flags: W
HStem: 600.643 138.349<72.4625 176.537>
VStem: 55.9367 137.127<617.316 722.319>
LayerCount: 2
Fore
SplineSet
55.93671875 669.817578125 m 0
 55.93671875 711.724674896 82.9622309525 738.9921875 124.499023438 738.9921875 c 0
 166.036839251 738.9921875 193.06328125 711.724674896 193.06328125 669.817578125 c 0
 193.06328125 627.909724238 166.036839251 600.64296875 124.499023438 600.64296875 c 0
 82.9622309523 600.64296875 55.93671875 627.909724238 55.93671875 669.817578125 c 0
EndSplineSet
EndChar

StartChar: tilde
Encoding: 732 732 172
Width: 371
VWidth: 999
Flags: W
HStem: 613.114 90.1875<198.832 317.288> 661.684 89.3184<46.0234 172.675> 712.364 20G<324.887 337.078>
LayerCount: 2
Fore
SplineSet
366.400390625 664.256953125 m 1xa0
 366.400390625 664.256953125 325.482245936 613.114257812 262.400585938 613.114257812 c 0xa0
 184.00298458 613.114257812 167.980905276 661.68359375 110.738085938 661.68359375 c 0
 73.8565649726 661.68359375 43.76875 628.145507812 43.76875 628.145507812 c 1
 5 708.876953125 l 1
 5 708.876953125 50.1808414917 751.001953125 109.00078125 751.001953125 c 0x40
 186.153849952 751.001953125 208.397455973 703.301757812 260.66328125 703.301757812 c 0
 303.148873478 703.301757812 324.88703125 732.364257812 324.88703125 732.364257812 c 1
 366.400390625 664.256953125 l 1xa0
EndSplineSet
EndChar

StartChar: hungarumlaut
Encoding: 733 733 173
Width: 412
Flags: W
HStem: 536 205.008
LayerCount: 2
Fore
SplineSet
272.3 536 m 1
 208.35 554.65 l 1
 290.4 741.0078125 l 1
 389.65 712.3578125 l 1
 272.3 536 l 1
82.3 536 m 1
 18.35 554.65 l 1
 100.4 741.0078125 l 1
 199.65 712.3578125 l 1
 82.3 536 l 1
EndSplineSet
EndChar

StartChar: multiply
Encoding: 215 215 174
Width: 450
Flags: W
LayerCount: 2
Fore
SplineSet
418.040039062 491.399335938 m 1
 91.6006640625 164.959960938 l 1
 31.9599609375 224.600664062 l 1
 358.399335938 551.040039062 l 1
 418.040039062 491.399335938 l 1
358.399335938 164.959960938 m 1
 31.9599609375 491.399335938 l 1
 91.6006640625 551.040039062 l 1
 418.040039062 224.600664062 l 1
 358.399335938 164.959960938 l 1
EndSplineSet
EndChar

StartChar: divide
Encoding: 247 247 175
Width: 450
Flags: W
HStem: 139.976 122.404<177.149 272.85> 313.78 88.44<30 420> 453.62 122.404<177.149 272.85>
VStem: 164.348 121.303<152.018 250.337 465.662 563.982>
LayerCount: 2
Fore
SplineSet
420 313.78 m 1
 30 313.78 l 1
 30 402.22 l 1
 420 402.22 l 1
 420 313.78 l 1
164.3484375 201.177460938 m 0
 164.3484375 238.254615249 188.255218471 262.379804688 224.999023438 262.379804688 c 0
 261.743861256 262.379804688 285.6515625 238.254615249 285.6515625 201.177460938 c 0
 285.6515625 164.10046669 261.743861256 139.97609375 224.999023438 139.97609375 c 0
 188.255218471 139.97609375 164.3484375 164.10046669 164.3484375 201.177460938 c 0
164.3484375 514.822539062 m 0
 164.3484375 551.898820962 188.255218471 576.02390625 224.999023438 576.02390625 c 0
 261.743861256 576.02390625 285.6515625 551.898820962 285.6515625 514.822539062 c 0
 285.6515625 477.7446724 261.743861256 453.620195312 224.999023438 453.620195312 c 0
 188.255218471 453.620195312 164.3484375 477.7446724 164.3484375 514.822539062 c 0
EndSplineSet
EndChar

StartChar: AE
Encoding: 198 198 176
Width: 1024
Flags: W
HStem: 0 102.225<642.525 982.65> 149.59 101.09<222 614.525> 312.4 106.55<584.6 922.65> 628.783 102.225<642.525 982.65>
VStem: 525 89.525<149.59 250.68> 525 56.95<646.45 731.008> 584.6 57.925<312.4 418.95>
AnchorPoint: "Anchor-0" 592 731 basechar 0
LayerCount: 2
Fore
SplineSet
922.65 312.4 m 1xf2
 584.6 312.4 l 1
 584.6 418.95 l 1
 922.65 418.95 l 1
 922.65 312.4 l 1xf2
642.525 628.7828125 m 1
 642.525 102.225 l 1
 982.65 102.225 l 1
 982.65 0 l 1
 525 0 l 1
 525 731.0078125 l 1xf6
 982.65 731.0078125 l 1
 982.65 628.7828125 l 1
 642.525 628.7828125 l 1
614.525 149.59 m 1xf8
 154.7 149.59 l 1
 222 250.68 l 1
 614.525 250.68 l 1
 614.525 149.59 l 1xf8
581.95 731.0078125 m 1xf4
 581.95 646.45 l 1
 154.255 0 l 1
 16.35 0 l 1
 516.35 731.0078125 l 1
 581.95 731.0078125 l 1xf4
EndSplineSet
EndChar

StartChar: ae
Encoding: 230 230 177
Width: 872
Flags: W
HStem: -9.99805 88.3069<547.716 774.164> -9.99805 89.3069<170.129 314.941> 208.645 80.06<446.225 730.37> 233.444 73.7893<193.296 371.827> 418.436 92.5752<134.588 317.226> 420.844 90.0894<531.094 680.817>
VStem: 36.35 112.399<99.4033 199.22> 354.899 84.98<158 378.99> 354.899 16.9284<233.444 307.234> 446.225 29.1186<208.645 288.705>
AnchorPoint: "Anchor-0" 417 501.011 basechar 0
LayerCount: 2
Fore
SplineSet
354.898710938 177.561523438 m 1x5340
 450.6 169.3 l 1
 429.928370477 54.9537272515 359.104934863 -9.998046875 223.943671875 -9.998046875 c 0
 103.502391483 -9.998046875 36.35 49.3026626871 36.35 139.245 c 0
 36.35 284.147345275 176.152210111 307.098610892 371.978710938 307.23359375 c 1
 371.827148438 233.444335938 l 1x52c0
 182.629940871 233.318647504 148.748632812 203.347724369 148.748632812 150.051523438 c 0
 148.748632812 103.126917094 183.225440418 79.3088671875 239.593671875 79.3088671875 c 0
 301.479907893 79.3088671875 354.898710938 111.552201079 354.898710938 177.561523438 c 1x5340
439.878710938 158 m 1x0b40
 354.898710938 165 l 1
 354.898710938 295.410742188 l 2
 354.898710938 381.381610456 316.354796058 418.435546875 240.713867188 418.435546875 c 0
 163.642781113 418.435546875 108.579101562 384.110351562 108.579101562 384.110351562 c 1
 80.2783203125 468.360351562 l 1
 80.2783203125 468.360351562 140.875185217 511.010742188 249.435 511.010742188 c 0
 362.117895976 511.010742188 439.878710938 452.926207049 439.878710938 340.010742188 c 2
 439.878710938 158 l 1x0b40
EndSplineSet
Refer: 43 101 N 1 0 0 1 321 0 2
EndChar

StartChar: Eth
Encoding: 208 208 178
Width: 789
Flags: W
HStem: 0 105.767<246.55 486.161> 310.455 100.09<31.35 432.65> 625.234 105.773<246.55 486.605>
VStem: 128.35 118.2<105.767 625.234> 624.379 119.049<238.732 490.546>
LayerCount: 2
Fore
SplineSet
432.65 310.455 m 1
 31.35 310.455 l 1
 31.35 410.545 l 1
 432.65 410.545 l 1
 432.65 310.455 l 1
EndSplineSet
Refer: 5 68 N 1 0 0 1 62 0 2
EndChar

StartChar: eth
Encoding: 240 240 179
Width: 588
Flags: W
HStem: -9.99805 98.5519<216.835 373.317> 418.249 92.6844<217.829 379.627>
VStem: 49.4213 105.129<156.003 352.914> 438.775 108.724<156.508 440> 438.775 58.2586<282.912 358.618>
LayerCount: 2
Fore
SplineSet
172.427734375 613.958007812 m 5xe0
 499.340820312 707.379882812 l 5
 521.765625 628.573242188 l 5
 194.8515625 535.150390625 l 5
 172.427734375 613.958007812 l 5xe0
438.775 251.561523438 m 0xf0
 438.775 503.462889341 366.313476562 576.752929688 234.283203125 709.94921875 c 5
 329.862304688 771.274414062 l 5
 329.862304688 771.274414062 547.498632812 601 547.498632812 279 c 0xf0
 547.498632812 93.8330078125 452.105333284 -9.998046875 296.959960938 -9.998046875 c 0
 143.084696495 -9.998046875 49.4212890625 94.0830078123 49.4212890625 253.561523438 c 0
 49.4212890625 409.295898438 134.70848603 510.93359375 283.215 510.93359375 c 0
 408.339066108 510.93359375 497.033632812 424.260218258 497.033632812 282.911523438 c 1xe8
 438.775 273.561523438 l 1
 438.775 358.617818728 389.943060441 418.249179688 298.443632812 418.249179688 c 0
 197.644676174 418.249179688 154.549921875 352.31677432 154.549921875 253.561523438 c 0
 154.549921875 154.614680503 197.200617092 88.5538671875 296.959960938 88.5538671875 c 0
 399.193990217 88.5538671875 438.775 169.11538499 438.775 251.561523438 c 0xf0
EndSplineSet
EndChar

StartChar: Thorn
Encoding: 222 222 180
Width: 650
Flags: W
HStem: 0 21G<66.35 184.55> 154 90.2766<147.25 433.4> 506.724 93.7434<148.25 432.09> 711.008 20G<66.35 184.55>
VStem: 66.35 118.2<0 154 244.277 506.724 600.468 731.008> 148.25 36.3<154 244.277 506.724 600.468> 493.624 110.804<298.647 451.587>
LayerCount: 2
Fore
SplineSet
66.35 0 m 1xfa
 66.35 731.0078125 l 1
 184.55 731.0078125 l 1
 184.55 0 l 1
 66.35 0 l 1xfa
147.25 154 m 1
 147.25 244.2765625 l 1
 311.238671875 244.386914062 l 2
 415.654329663 244.514035624 493.623710938 267.793742121 493.623710938 374.561523438 c 0
 493.623710938 481.930119745 415.642791261 506.583566989 311.238671875 506.620898438 c 2
 148.25 506.724414062 l 1
 148.25 600.4678125 l 1xf6
 347.538671875 600.4678125 l 2
 482.70048035 600.4678125 604.42734375 538.942563596 604.42734375 374.561523438 c 0
 604.42734375 213.240207598 483.259109269 154 347.538671875 154 c 2
 147.25 154 l 1
EndSplineSet
EndChar

StartChar: thorn
Encoding: 254 254 181
Width: 602
Flags: W
HStem: -9.99805 93.3619<235.335 393.507> 418.384 92.5494<238.548 394.751> 731.002 20G<66.62 175.63>
VStem: 66.62 109.01<-180 751.002> 114.531 61.0986<66.4395 183.562> 134.131 41.4986<283.562 425.747> 452.18 105.399<149.725 354.534>
LayerCount: 2
Fore
SplineSet
66.62 -180 m 1xf2
 66.62 751.001953125 l 1
 175.63 751.001953125 l 1
 175.63 -180 l 1
 66.62 -180 l 1xf2
175.63 213.561523438 m 1
 175.63 150.129799895 218.280399562 83.3638671875 318.040039062 83.3638671875 c 0
 412.00539276 83.3638671875 452.180078125 151.50151572 452.180078125 253.561523438 c 0
 452.180078125 352.397727315 412.039794514 418.384179688 318.151367188 418.384179688 c 0
 221.015009777 418.384179688 175.63 364.408608796 175.63 283.561523438 c 1xf2
 134.131367188 283.561523438 l 1xe6
 134.131367188 425.747070312 212.67798952 510.93359375 333.65 510.93359375 c 0
 475.890234375 510.93359375 557.578710938 409.295898438 557.578710938 253.561523438 c 0
 557.578710938 94.0830078123 472.10703125 -9.998046875 331.690039062 -9.998046875 c 0
 196.699936126 -9.998046875 114.531367188 66.4394531248 114.531367188 183.561523438 c 1xea
 175.63 213.561523438 l 1
EndSplineSet
EndChar

StartChar: kgreenlandic
Encoding: 312 312 182
Width: 555
Flags: W
HStem: 0 21G<75.27 184.28 342.47 496.35> 222.62 66.76<89 184.18> 481.011 20G<75.27 184.28 337.843 486.35>
VStem: 75.27 109.01<0 222.62 289.38 501.011> 89 95.28<222.62 289.38>
LayerCount: 2
Fore
SplineSet
184.18 289.38 m 1xe8
 184.18 222.62 l 1
 89 222.62 l 1
 89 289.38 l 1
 184.18 289.38 l 1xe8
358.094726562 0 m 5
 184.18 222.62 l 1
 184.18 289.38 l 1
 353.879882812 501.010742188 l 5
 486.349609375 501.010742188 l 5
 275 263.650390625 l 1
 496.349609375 0 l 5
 358.094726562 0 l 5
75.27 0 m 1xf0
 75.27 501.010742188 l 1
 184.28 501.010742188 l 1
 184.28 0 l 1
 75.27 0 l 1xf0
EndSplineSet
EndChar

StartChar: Eng
Encoding: 330 330 183
Width: 719
Flags: W
HStem: -189.994 92.71<350.399 511.573> 0 21G<66.35 182.82> 711.008 20G<66.35 202.112 536.18 652.65>
VStem: 66.35 116.47<0 533.905> 536.18 116.47<208.35 731.008>
LayerCount: 2
Back
SplineSet
75 0 m 5
 75 731.0078125 l 5
 208 731.0078125 l 5
 517 228.599609375 l 5
 517 731.0078125 l 5
 644 731.0078125 l 5
 644 0 l 5
 511 0 l 5
 202 515.004882812 l 5
 202 0 l 5
 75 0 l 5
EndSplineSet
Fore
SplineSet
66.35 0 m 1
 66.35 731.0078125 l 1
 188.82 731.0078125 l 1
 536.18 208.349609375 l 1
 536.18 731.0078125 l 1
 652.65 731.0078125 l 1
 652.65 -3 l 2
 652.65 -125.529296875 599.803448276 -189.994140625 472.35 -189.994140625 c 0
 388.843991922 -189.994140625 339.7 -169.859140625 339.7 -169.859140625 c 1
 353.16 -81.879140625 l 1
 353.16 -81.879140625 393.288040537 -97.284140625 449.455 -97.284140625 c 0
 501.73003753 -97.284140625 531.031329779 -73.9278385721 534.6565625 -7.3369140625 c 1
 182.82 533.904882812 l 1
 182.82 0 l 1
 66.35 0 l 1
EndSplineSet
Substitution2: "'ss06' Style Set 6 lookup 7-1" Eng.ss06
EndChar

StartChar: eng
Encoding: 331 331 184
Width: 595
Flags: W
HStem: -189.994 92.17<267.66 400.867> 0 21G<66.62 175.63> 422.034 88.8994<233.403 376.576> 481.011 20G<66.62 175.63>
VStem: 66.62 109.01<0 501.011> 421.497 109.01<-74.8277 373.644>
LayerCount: 2
Fore
SplineSet
66.62 0 m 1xdc
 66.62 501.010742188 l 1
 175.63 501.010742188 l 1
 175.63 0 l 1
 66.62 0 l 1xdc
175.63 284 m 1
 123.33 293.561523438 l 1
 146.747061424 444 205.10903372 510.93359375 340.65 510.93359375 c 0
 466.029353646 510.93359375 530.50734375 443.210086636 530.50734375 301.861523438 c 2
 530.50734375 -9 l 2
 530.50734375 -117.937600252 481.836192571 -189.994140625 364.45234375 -189.994140625 c 0
 300.624453876 -189.994140625 256.47734375 -171.994140625 256.47734375 -171.994140625 c 1
 269.93734375 -85.419140625 l 1
 269.93734375 -85.419140625 297.259828735 -97.824140625 335.50234375 -97.824140625 c 0
 396.047018185 -97.824140625 421.49734375 -70.1645020708 421.49734375 -5.994140625 c 2
 421.49734375 284.861523438 l 2
 421.49734375 374.258547493 385.782058954 422.034179688 301.7 422.034179688 c 0xec
 216.222228003 422.034179688 175.63 366.772681277 175.63 284 c 1
EndSplineSet
EndChar

StartChar: OE
Encoding: 338 338 185
Width: 991
Flags: W
HStem: 0 102.225<601.55 954.65> 0 102.552<305.157 532.777> 312.4 106.55<542.95 894.65> 628.783 102.225<601.55 954.65> 629.321 101.687<313.173 532.777>
VStem: 56.35 114.454<237.327 497.056> 542.95 58.6<312.4 418.95>
LayerCount: 2
Fore
SplineSet
532.77734375 102.4415625 m 1x6e
 532.77734375 0 l 1
 428.888671875 0 l 2
 234.02547823 0 56.35 97.9169921874 56.35 364.561523438 c 0
 56.35 631.206054688 232.878268284 731.0078125 428.888671875 731.0078125 c 2
 532.77734375 731.0078125 l 1
 532.77734375 629.424414062 l 1
 448.888671875 629.320898438 l 2
 293.821658331 629.156354255 170.803632812 579.818575881 170.803632812 364.561523438 c 0
 170.803632812 149.664836188 293.821658389 102.725834892 448.888671875 102.551914062 c 2
 532.77734375 102.4415625 l 1x6e
EndSplineSet
Refer: 10 69 N 1 0 0 1 417 0 2
EndChar

StartChar: oe
Encoding: 339 339 186
Width: 920
Flags: W
HStem: -9.99805 94.2269<213.034 370.997 590.053 837.019> 208.645 80.06<498.275 778.37> 416.519 94.4144<211.605 372.479 576.504 733.172>
VStem: 46.35 105.534<151.615 352.395> 432.494 105.534<123.052 380.288> 498.275 29.1186<211.612 287.98>
LayerCount: 2
Fore
SplineSet
151.883632812 253.561523438 m 0xf8
 151.883632812 152.020805664 195.078611801 84.2288671875 291.863671875 84.2288671875 c 0
 389.174225456 84.2288671875 432.493710938 152.020805664 432.493710938 253.561523438 c 0
 432.493710938 351.27984375 389.207531888 416.519179688 291.975 416.519179688 c 0
 195.111878129 416.519179688 151.883632812 351.27984375 151.883632812 253.561523438 c 0xf8
46.35 253.561523438 m 0
 46.35 409.295898438 139.247721529 510.93359375 291.863671875 510.93359375 c 0
 444.883599957 510.93359375 538.02734375 409.295898438 538.02734375 253.561523438 c 0
 538.02734375 94.0830078125 444.883599957 -9.998046875 291.863671875 -9.998046875 c 0
 139.247721529 -9.998046875 46.35 94.0830078125 46.35 253.561523438 c 0
419.4 253.561523438 m 0
 419.4 409.295898438 510.027215712 510.93359375 658.913671875 510.93359375 c 0
 830.373420689 510.93359375 884.115820312 374.297065429 884.115820312 276.4659375 c 0
 884.115820312 234.595708008 879.65 208.645 879.65 208.645 c 1
 498.275 208.645 l 1
 498.275 288.705 l 1
 778.37 288.705 l 1
 778.37 288.705 778.189916993 294.915405274 776.775 306.3 c 0
 770.163325195 365.718657226 740.092301626 420.844179688 653.7 420.844179688 c 0
 565.222010225 420.844179688 527.393632812 353.072504883 527.393632812 251.561523438 c 0xf4
 527.393632812 138.347875977 577.250101832 78.3088671875 700.81 78.3088671875 c 0
 787.403282055 78.3088671875 836.748554688 106.440703125 836.748554688 106.440703125 c 1
 854.477148438 18.595703125 l 1
 854.477148438 18.595703125 796.178955022 -9.998046875 694.913671875 -9.998046875 c 0
 504.57532852 -9.998046875 419.4 94.0830078125 419.4 253.561523438 c 0
EndSplineSet
EndChar

StartChar: longs
Encoding: 383 383 187
Width: 269
Flags: W
HStem: 0 21G<79.995 189.005> 673.571 87.44<218.55 349.63>
VStem: 79.995 109.01<0 642.055>
AnchorPoint: "Anchor-0" 256 752.002 basechar 0
LayerCount: 2
Fore
SplineSet
189.005 561.060742188 m 2
 189.005 0 l 1
 79.995 0 l 1
 79.995 574.060742188 l 2
 79.995 686.584982156 130.805800112 761.010742188 253.35 761.010742188 c 0
 316.778873197 761.010742188 360.65 745.010742188 360.65 745.010742188 c 1
 347.46 662.030742188 l 1
 347.46 662.030742188 321.556458984 673.570742188 285.3 673.570742188 c 0
 217.503623179 673.570742188 189.005 639.681680223 189.005 561.060742188 c 2
EndSplineSet
EndChar

StartChar: uni018F
Encoding: 399 399 188
Width: 765
Flags: W
HStem: -9.99805 107.282<280.671 485.296> 329.038 101.09<168.308 645.263> 631.379 107.742<173.404 461.783>
VStem: 41.35 126.715<212.36 375.137> 604.25 43.0136<329.038 430.128>
LayerCount: 2
Back
SplineSet
35 364.561523438 m 0
 35 591.206054688 163.541887394 739.12109375 389.888671875 739.12109375 c 0
 653.541980974 739.12109375 740.108398438 551.971330386 740.108398438 365.891601562 c 0
 740.108398438 303.039520695 732 284 732 284 c 1
 162 284 l 1
 160 424 l 1
 562 424 l 1
 562 424 560.13712938 586.659179688 391 586.659179688 c 0
 261.796380576 586.659179688 205.848632812 497.743164062 205.848632812 364.561523438 c 4
 205.848632812 231.379882812 273.845797251 142.463867188 432.888671875 142.463867188 c 0
 580.720714467 142.463867188 659.018554688 179.595703125 659.018554688 179.595703125 c 1
 682.827148438 32.595703125 l 1
 682.827148438 32.595703125 604.343305548 -9.998046875 425.888671875 -9.998046875 c 0
 176.581210181 -9.998046875 35 137.916992188 35 364.561523438 c 0
EndSplineSet
Fore
SplineSet
723.758398438 364.561523438 m 0
 723.758398438 137.916992187 599.327519755 -9.998046875 380.219726562 -9.998046875 c 0
 125.110953454 -9.998046875 41.35 166.446111676 41.35 341.881445312 c 0
 41.35 408.39245805 49.4583984375 430.128046875 49.4583984375 430.128046875 c 1
 645.263398438 430.128046875 l 1
 647.263398438 329.038046875 l 1
 168.308398438 329.038046875 l 1
 168.308398438 329.038046875 168.065 323.64908311 168.065 304.455 c 0
 168.065 213.661510786 230.625500816 97.2838671879 379.838398438 97.2838671879 c 0
 535.761337935 97.2838671879 604.249765625 204.287536926 604.249765625 364.561523438 c 0
 604.249765625 524.55966933 523.16842023 631.379179688 338.029726562 631.379179688 c 0
 196.470399594 631.379179688 121.49484375 589.57234375 121.49484375 589.57234375 c 1
 98.63125 692.52734375 l 1
 98.63125 692.52734375 173.648147695 739.12109375 344.219726562 739.12109375 c 0
 586.288196967 739.12109375 723.758398438 591.206054687 723.758398438 364.561523438 c 0
EndSplineSet
EndChar

StartChar: florin
Encoding: 402 402 190
Width: 398
Flags: W
HStem: -190.011 92.035<-30.9681 98.7338> 414.885 86.1257<34 362> 673.031 87.98<258.55 389.63>
VStem: 119.995 109.01<-75.7003 642.055>
LayerCount: 2
Fore
SplineSet
34 501.010742188 m 1
 362 501.010742188 l 1
 362 414.885 l 1
 34 414.885 l 1
 34 501.010742188 l 1
119.995 -7.9007421875 m 2
 119.995 574.060742188 l 2
 119.995 686.584982156 170.805800112 761.010742188 293.35 761.010742188 c 0
 356.778873197 761.010742188 400.65 745.010742188 400.65 745.010742188 c 1
 387.46 661.490742188 l 1
 387.46 661.490742188 361.556458984 673.030742188 325.3 673.030742188 c 0
 257.503623179 673.030742188 229.005 639.304333262 229.005 561.060742188 c 2
 229.005 -10.3607421875 l 2
 229.005 -118.491310908 181.402068966 -190.010742188 66.595 -190.010742188 c 0
 2.20847680068 -190.010742188 -42.325 -171.875742188 -42.325 -171.875742188 c 1
 -28.595 -85.0307421876 l 1
 -28.595 -85.0307421876 -1.38527564418 -97.9757421876 36.7 -97.9757421876 c 0
 95.3440725097 -97.9757421876 119.995 -70.8447180911 119.995 -7.9007421875 c 2
EndSplineSet
EndChar

StartChar: uni01B7
Encoding: 439 439 191
Width: 584
Flags: W
HStem: -9.99805 98.5675<102.809 361.992> 341.517 84.0527<330.905 363.609> 629.64 101.36<41.35 380.045>
VStem: 426.547 117.014<147.661 287.277>
AnchorPoint: "Anchor-0" 289 731 basechar 0
LayerCount: 2
Fore
SplineSet
330.905 425.57 m 1
 356.607284117 425.57 543.561132812 418.445701769 543.561132812 219.265898438 c 0
 543.561132812 55.5697078211 426.208470741 -9.998046875 250 -9.998046875 c 0
 103.781039389 -9.998046875 16.801171875 40.6391796875 16.801171875 40.6391796875 c 1
 45.8294140625 133.757695312 l 1
 45.8294140625 133.757695312 122.749839391 88.569453125 243.405 88.569453125 c 0
 370.095396307 88.569453125 426.547148438 134.205265596 426.547148438 219.090571289 c 0
 426.547148438 301.872173125 365.066964219 341.208516878 247.188671875 341.517304688 c 2
 174 341.78 l 1
 174 398.27 l 1
 380.045 629.64 l 1
 41.35 629.64 l 1
 41.35 731 l 1
 512.65 731 l 1
 512.65 633.64 l 1
 330.905 425.57 l 1
EndSplineSet
EndChar

StartChar: uni0292
Encoding: 658 658 192
Width: 524
Flags: W
HStem: -189.994 91.1875<72.2711 317.411> 127.521 79.8588<285.035 316.789> 408.436 92.575<44 340.72>
VStem: 374.657 108.904<-50.0674 79.4827>
AnchorPoint: "Anchor-0" 260 501.011 basechar 0
LayerCount: 2
Fore
SplineSet
285.035 207.38 m 1
 303.396966715 207.38 483.561132812 199.73730034 483.561132812 18.2587060547 c 0
 483.561132812 -129.830213047 374.203579695 -189.994140625 210 -189.994140625 c 0
 95.1317459485 -189.994140625 26.801171875 -159.086914062 26.801171875 -159.086914062 c 1
 48.0444140625 -67.4833984376 l 1
 48.0444140625 -67.4833984376 108.371956662 -98.806640625 203 -98.806640625 c 0
 321.745533729 -98.806640625 374.657148438 -56.5256933014 374.657148438 16.8683789063 c 0
 374.657148438 92.2093717247 316.789103964 127.137981512 205.838671875 127.521210938 c 2
 136.7 127.78390625 l 1
 136.7 188.38390625 l 1
 340.72 408.435742188 l 1
 44 408.435742188 l 1
 44 501.010742188 l 1
 472.65 501.010742188 l 1
 472.65 412.435742188 l 1
 285.035 207.38 l 1
EndSplineSet
EndChar

StartChar: Oslash
Encoding: 216 216 193
Width: 819
Flags: W
HStem: -9.99805 108.147<291.178 506.6> 630.974 108.147<291.178 506.6>
VStem: 46.35 119.049<234.378 494.745> 632.379 119.049<234.378 494.745>
AnchorPoint: "Anchor-0" 398.998 731 basechar 0
AnchorPoint: "Anchor-2" 398.018 0 basechar 0
AnchorPoint: "Anchor-3" 449.958 20 basechar 0
LayerCount: 2
Fore
SplineSet
160.416992188 -91.4697265625 m 1
 537.716796875 801.403320312 l 1
 636.598632812 801.403320312 l 1
 259.298828125 -91.4697265625 l 1
 160.416992188 -91.4697265625 l 1
EndSplineSet
Refer: 1 79 N 1 0 0 1 0 0 2
EndChar

StartChar: oslash
Encoding: 248 248 194
Width: 603
Flags: W
HStem: -9.99805 94.2269<214.185 374.48> 416.519 94.4144<212.735 375.996>
VStem: 46.35 105.534<151.615 352.395> 437.894 105.534<151.615 349.377>
AnchorPoint: "Anchor-0" 294.018 501.011 basechar 0
AnchorPoint: "Anchor-2" 294.018 0 basechar 0
AnchorPoint: "Anchor-3" 375.357 28 basechar 0
LayerCount: 2
Fore
SplineSet
75.22265625 -91.4697265625 m 1
 429.002929688 581.403320312 l 1
 513.79296875 581.403320312 l 1
 160.012695312 -91.4697265625 l 1
 75.22265625 -91.4697265625 l 1
EndSplineSet
Refer: 29 111 N 1 0 0 1 0 0 2
EndChar

StartChar: ring
Encoding: 730 730 197
Width: 355
Flags: W
HStem: 486.82 71.4965<128.909 226.03> 689.318 71.684<128.085 226.897>
VStem: 39.05 77.1481<570.905 678.439> 239.579 77.1481<571.359 676.428>
LayerCount: 2
Fore
SplineSet
116.198125 625.771484375 m 0
 116.198125 585.322333906 134.407127949 558.316796875 176.99609375 558.316796875 c 0
 220.835826246 558.316796875 239.57921875 585.322333906 239.57921875 625.771484375 c 0
 239.57921875 663.877353741 220.865623826 689.31796875 177.094726562 689.31796875 c 0
 134.436927005 689.31796875 116.198125 663.877353741 116.198125 625.771484375 c 0
39.05 626.004882812 m 0
 39.05 707.691365937 91.2052129263 761.001953125 176.888671875 761.001953125 c 0
 263.815314039 761.001953125 316.72734375 707.691365937 316.72734375 626.004882812 c 0
 316.72734375 541.785043184 263.815314039 486.8203125 176.888671875 486.8203125 c 0
 91.2052129263 486.8203125 39.05 541.785043184 39.05 626.004882812 c 0
EndSplineSet
EndChar

StartChar: ogonek
Encoding: 731 731 198
Width: 307
VWidth: 999
Flags: W
HStem: -252.975 67.68<144.575 264.948>
VStem: 41.35 88.25<-170.519 -46.8238>
LayerCount: 2
Fore
SplineSet
41.35 -130 m 0
 41.35 -30.5220125786 130.7 39 130.7 39 c 1
 215.3 39 l 1
 215.3 39 129.6 -30.605732484 129.6 -110.7 c 0
 129.6 -164.330022919 155.515890415 -185.295 201.11 -185.295 c 0
 241.592657252 -185.295 259.81 -170.35 259.81 -170.35 c 1
 277 -229.975 l 1
 277 -229.975 244.426287616 -252.975 179 -252.975 c 0
 94.23991224 -252.975 41.35 -209.223868272 41.35 -130 c 0
EndSplineSet
EndChar

StartChar: minute
Encoding: 8242 8242 203
Width: 235
Flags: W
HStem: 456 275.008
VStem: 21.05 194.9
LayerCount: 2
Fore
SplineSet
21.05 456 m 1
 102.4 731.0078125 l 1
 215.95 731.0078125 l 1
 97.975 456 l 1
 21.05 456 l 1
EndSplineSet
EndChar

StartChar: bullet
Encoding: 8226 8226 206
Width: 325
Flags: W
HStem: 250 226.449<92.6443 232.581>
VStem: 50 225.227<292.876 433.573>
LayerCount: 2
Fore
SplineSet
50 363.224609375 m 0
 50 431.817406607 94.3894466578 476.44921875 162.612304688 476.44921875 c 0
 230.836094646 476.44921875 275.2265625 431.817406607 275.2265625 363.224609375 c 0
 275.2265625 294.630626073 230.836094646 250 162.612304688 250 c 0
 94.3894466578 250 50 294.630626073 50 363.224609375 c 0
EndSplineSet
EndChar

StartChar: dagger
Encoding: 8224 8224 207
Width: 530
Flags: W
HStem: 384.061 92.9<30 500>
VStem: 200.9 128.2<-171.47 52.7816> 210.225 109.55<509.895 759.47> 219.55 90.9<202.373 676.326>
LayerCount: 2
Fore
SplineSet
200.9 -171.469726562 m 1xc0
 219.55 427 l 1x90
 210.225 759.469726562 l 1
 319.775 759.469726562 l 1xa0
 310.45 426 l 1x90
 329.1 -171.469726562 l 1
 200.9 -171.469726562 l 1xc0
30 384.060742188 m 1
 30 476.960742188 l 1
 500 476.960742188 l 1
 500 384.060742188 l 1
 30 384.060742188 l 1
EndSplineSet
EndChar

StartChar: daggerdbl
Encoding: 8225 8225 208
Width: 530
Flags: W
HStem: 94.0607 92.9<30 500> 434.061 92.9<30 500>
VStem: 210.09 109.82<-171.47 38.4937 194.082 425.894 566.578 759.47> 219.55 90.9<-78.9288 270.192 359.087 688.792>
LayerCount: 2
Fore
SplineSet
30 94.0607421876 m 1xc0
 30 186.960742188 l 1
 500 186.960742188 l 1
 500 94.0607421876 l 1
 30 94.0607421876 l 1xc0
209.55 -171.469726562 m 1
 219.55 137 l 1xd0
 210.09 317 l 1xe0
 219.55 477 l 1
 210.225 759.469726562 l 1
 319.775 759.469726562 l 1
 310.45 476 l 1xd0
 319.91 318 l 1xe0
 310.45 136 l 1xd0
 320.45 -171.469726562 l 1
 209.55 -171.469726562 l 1
30 434.060742188 m 1
 30 526.960742188 l 1
 500 526.960742188 l 1
 500 434.060742188 l 1
 30 434.060742188 l 1
EndSplineSet
EndChar

StartChar: uni2116
Encoding: 8470 8470 209
Width: 1126
Flags: W
HStem: 0 21G<66.35 182.82 517.168 652.65> 252.24 82.79<733.35 1072.65> 380.761 89.5064<849.554 965.454> 649.298 89.6939<848.9 966.16> 711.008 20G<66.35 202.112 536.18 652.65>
VStem: 66.35 116.47<0 533.905> 536.18 116.47<208.35 731.008> 730.811 94.9871<494.227 627.348> 990.202 94.9871<494.951 626.662>
LayerCount: 2
Fore
SplineSet
733.35 335.03 m 1xe780
 1072.65 335.03 l 1
 1072.65 252.24 l 1
 733.35 252.24 l 1
 733.35 335.03 l 1xe780
825.7984375 562.194726562 m 0
 825.7984375 507.070285879 850.335364818 470.266914062 906.897460938 470.266914062 c 0
 965.004169781 470.266914062 990.2015625 507.070285879 990.2015625 562.194726562 c 0
 990.2015625 614.426698126 965.041386325 649.298320312 907.020507812 649.298320312 c 0xf780
 850.372584701 649.298320312 825.7984375 614.426698126 825.7984375 562.194726562 c 0
730.811328125 561.970117188 m 0
 730.811328125 669.085851816 797.477362931 738.9921875 907 738.9921875 c 0
 1017.76580398 738.9921875 1085.18867188 669.085851816 1085.18867188 561.970117188 c 0
 1085.18867188 452.32117466 1017.76580398 380.760546875 907 380.760546875 c 0
 797.477362931 380.760546875 730.811328125 452.32117466 730.811328125 561.970117188 c 0
EndSplineSet
Refer: 11 78 N 1 0 0 1 0 0 2
EndChar

StartChar: uni20BF
Encoding: 8383 8383 210
Width: 654
Flags: W
HStem: -105 169.069<171.655 262.061 348.056 438.46> 0 102.415<179.55 440.374> 318.706 93.5953<145.9 412.35> 628.694 102.313<179.55 412.351> 660.4 169.069<171.655 262.061 348.056 438.46>
VStem: 145.9 33.65<318.706 412.302> 171.655 90.4053<-105 64.0693 660.4 829.47> 348.056 90.4043<-105 64.0693 660.4 829.47> 461.379 114.049<455.701 583.638> 484.379 114.049<141.449 272.944>
LayerCount: 2
Fore
SplineSet
348.055664062 -105 m 1xa1
 348.055664062 64.0693359375 l 1
 438.459960938 64.0693359375 l 1
 438.459960938 -105 l 1
 348.055664062 -105 l 1xa1
348.055664062 660.400390625 m 1x29
 348.055664062 829.469726562 l 1
 438.459960938 829.469726562 l 1
 438.459960938 660.400390625 l 1
 348.055664062 660.400390625 l 1x29
171.655273438 -105 m 1xa3
 171.655273438 64.0693359375 l 1
 262.060546875 64.0693359375 l 1
 262.060546875 -105 l 1
 171.655273438 -105 l 1xa3
171.655273438 660.400390625 m 1x2b
 171.655273438 829.469726562 l 1
 262.060546875 829.469726562 l 1
 262.060546875 660.400390625 l 1
 171.655273438 660.400390625 l 1x2b
EndSplineSet
Refer: 19 66 N 1 0 0 1 0 0 2
EndChar

StartChar: uni20A6
Encoding: 8358 8358 211
Width: 874
Flags: W
HStem: 0 21G<154.35 270.55 588.319 726.65> 261.16 81.275<41.35 244.55 629.45 832.65> 391.565 81.275<41.35 244.55 629.45 832.65> 711.008 20G<154.35 292.937 610.45 726.65>
VStem: 41.35 229.2<261.16 342.435 391.565 472.84> 154.35 116.2<0 261.16 342.435 391.565 472.84 543.905> 154.35 90.2<261.16 342.435 391.565 472.84> 610.45 222.2<261.16 342.435 391.565 472.84> 610.45 116.2<198.35 261.16 342.435 391.565 472.84 731.008> 629.45 97.2<261.16 342.435 391.565 472.84>
LayerCount: 2
Fore
SplineSet
832.65 261.16 m 1xf1
 629.45 261.16 l 1
 629.45 342.435 l 1xf040
 832.65 342.435 l 1
 832.65 261.16 l 1xf1
832.65 391.565 m 1xf1
 629.45 391.565 l 1
 629.45 472.84 l 1xf040
 832.65 472.84 l 1
 832.65 391.565 l 1xf1
244.55 261.16 m 1xf2
 41.35 261.16 l 1
 41.35 342.435 l 1xf8
 244.55 342.435 l 1
 244.55 261.16 l 1xf2
244.55 391.565 m 1xf2
 41.35 391.565 l 1
 41.35 472.84 l 1xf8
 244.55 472.84 l 1
 244.55 391.565 l 1xf2
154.35 0 m 1xf440
 154.35 731.0078125 l 1
 280.55 731.0078125 l 1
 610.45 198.349609375 l 1
 610.45 731.0078125 l 1
 726.65 731.0078125 l 1xf280
 726.65 0 l 1
 600.45 0 l 1
 270.55 543.904882812 l 1
 270.55 0 l 1
 154.35 0 l 1xf440
EndSplineSet
EndChar

StartChar: uni20BD
Encoding: 8381 8381 212
Width: 703
Flags: W
HStem: 0 21G<142.35 260.55> 161.052 80.6<30 544> 301.052 82.6<30 490.102> 628.289 102.718<260.55 481.494>
VStem: 142.35 118.2<0 628.289> 542.704 114.724<430.093 575.837>
LayerCount: 2
Fore
SplineSet
544 161.0515625 m 1
 30 161.0515625 l 1
 30 241.6515625 l 1
 544 241.6515625 l 1
 544 161.0515625 l 1
30 301.0515625 m 1
 30 383.6515625 l 1
 368.668671875 383.761914062 l 2
 468.303685337 383.889759646 542.703710938 405.114218957 542.703710938 500.261523438 c 0
 542.703710938 603.863105282 466.572309257 628.055397359 364.618671875 628.185898438 c 2
 260.55 628.289414062 l 1
 260.55 0 l 1
 142.35 0 l 1
 142.35 731.0078125 l 1
 373.538671875 731.0078125 l 2
 556.152929688 731.0078125 657.42734375 662.848735643 657.42734375 500.261523438 c 0
 657.42734375 371.402748086 566.047460938 301.0515625 411.65 301.0515625 c 2
 30 301.0515625 l 1
EndSplineSet
EndChar

StartChar: dong
Encoding: 8363 8363 213
Width: 645
Flags: W
HStem: 0 81.275<31.35 592.65> 147.302 85.2494<234.555 380.707> 484.872 83.0619<235.546 385.39> 611.295 76.41<302.35 603.65> 731.002 20G<424.37 534.73>
VStem: 82.4213 106.074<277.331 437.408> 424.37 110.36<352.674 751.002> 424.37 65.1486<386.024 492.255>
LayerCount: 2
Fore
SplineSet
592.65 0 m 1xfc
 31.35 0 l 1
 31.35 81.275 l 1
 592.65 81.275 l 1
 592.65 0 l 1xfc
603.65 611.295 m 1
 302.35 611.295 l 1
 302.35 687.705 l 1
 603.65 687.705 l 1
 603.65 611.295 l 1
534.73 157.3 m 1xfe
 424.37 157.3 l 1xfd
 424.37 751.001953125 l 1
 534.73 751.001953125 l 1
 534.73 157.3 l 1xfe
424.37 384.024023438 m 1xfe
 424.37 433.156688795 393.82538758 484.871679688 306.959960938 484.871679688 c 0
 228.532229311 484.871679688 188.494921875 433.288816137 188.494921875 356.024023438 c 0
 188.494921875 281.983022783 228.499088845 232.551367188 306.848632812 232.551367188 c 0
 393.789547627 232.551367188 424.37 280.642512934 424.37 352.674023438 c 1xfe
 484.518632812 364.674023438 l 1
 484.518632812 234.9953125 413.767220579 147.301953125 277.7 147.301953125 c 0
 144.082541137 147.301953125 82.4212890625 235.537802031 82.4212890625 356.024023438 c 0
 82.4212890625 480.179708292 150.389466126 567.93359375 282.659960938 567.93359375 c 0
 423.905690154 567.93359375 489.518632812 492.254932545 489.518632812 386.024023438 c 1xfd
 424.37 384.024023438 l 1xfe
EndSplineSet
EndChar

StartChar: uni1E9E
Encoding: 7838 7838 220
Width: 743
Flags: W
HStem: -10 97.024<356.95 543.725> 0 21G<66.35 184.55> 323.59 88.71<488.47 539.331> 629.783 101.225<240.296 513.15>
VStem: 66.35 118.2<0 578.287> 591.315 115.335<132.374 277.038>
LayerCount: 2
Fore
SplineSet
66.35 504 m 2x7c
 66.35 663.708074726 155.862727273 731.0078125 355.95 731.0078125 c 2
 655 731.0078125 l 1
 655 648.4328125 l 1
 488.47 412.3 l 1
 573.178189801 412.3 706.65 374.731400966 706.65 207.65 c 0
 706.65 60.6407894737 617.940853659 -10 472 -10 c 0
 366.315406912 -10 306.35 26 306.35 26 c 1
 335 119.9 l 1
 335 119.9 383.130394756 87.0240234375 463.365625 87.0240234375 c 0xbc
 541.2913205 87.0240234375 591.315 127.131812166 591.315 207.65 c 0
 591.315 287.732268041 539.98712766 323.59 419 323.59 c 2
 342.35 323.59 l 1
 342.35 387.65 l 1
 513.15 629.7828125 l 1
 336.35 629.7828125 l 2
 218.103856097 629.7828125 184.55 582.141452288 184.55 471.0078125 c 2
 184.55 0 l 1
 66.35 0 l 1
 66.35 504 l 2x7c
EndSplineSet
EndChar

StartChar: germandbls
Encoding: 223 223 221
Width: 725
Flags: W
HStem: -9.99805 86.2295<348.495 555.633> 0 21G<71.345 180.355> 423.194 88.7393<427.485 553.161> 665.786 95.225<253.7 483.126>
VStem: 71.345 109.01<0 593.1> 299.554 106.608<320.957 402.906> 553.965 101.303<509.734 598.881> 574.621 104.719<96.3064 178.614>
LayerCount: 2
Fore
SplineSet
462.49581543 210.047114258 m 0xbd
 334.394879852 238.202060005 299.554101562 283.567284647 299.554101562 356.35 c 0
 299.554101562 453.267946534 376.428004324 511.93359375 487 511.93359375 c 0
 529.449104305 511.93359375 553.965 506.65 553.965 506.65 c 1
 551.174145827 610.769780272 508.966625091 665.785742188 370 665.785742188 c 0
 215.217817894 665.785742188 180.355 600.760385663 180.355 472.410742188 c 2
 180.355 0 l 1
 71.345 0 l 1
 71.345 485.410742188 l 2
 71.345 653.715713321 144.933661615 761.010742188 361 761.010742188 c 0
 611.715569431 761.010742188 655.268164062 624.872860604 655.268164062 512.84 c 0x7e
 655.268164062 446.337918576 642.294921875 394.464335938 642.294921875 394.464335938 c 1
 642.294921875 394.464335938 591.163855342 423.194296875 515.798164062 423.194296875 c 0
 440.172386547 423.194296875 406.16171875 398.95573819 406.16171875 359.868554688 c 0
 406.16171875 327.660041101 428.718171594 310.116173219 504.893168945 292.523652343 c 0
 633.109183677 262.332916629 679.339453125 218.666402652 679.339453125 142.05234375 c 0
 679.339453125 48.3454260815 608.843229704 -9.998046875 476.856445312 -9.998046875 c 0
 363.930423307 -9.998046875 292.35 26.5625 292.35 26.5625 c 1
 314.314453125 112.111328125 l 1
 314.314453125 112.111328125 381.554998645 76.2314453125 463.993164062 76.2314453125 c 0
 538.939410555 76.2314453125 574.620507812 96.8988264946 574.620507812 136.986914062 c 0
 574.620507812 170.475392825 555.423989946 189.825916651 462.49581543 210.047114258 c 0xbd
EndSplineSet
EndChar

StartChar: uni2113
Encoding: 8467 8467 222
Width: 619
Flags: W
HStem: -10 108.14<303.425 499.748> 659.917 101.085<318.903 433.688>
VStem: 455.634 116.156<482.401 637.162>
LayerCount: 2
Fore
SplineSet
117.05 307.399609375 m 0
 117.05 606.057633578 208.132541237 761.001953125 379.640390625 761.001953125 c 0
 517.375928625 761.001953125 571.789648438 663.280739057 571.789648438 572.13703125 c 0
 571.789648438 225.364798274 29.135 166.27 29.135 166.27 c 1
 16.485 270.09 l 1
 16.485 270.09 455.633554688 317.15412478 455.633554688 567.431953125 c 0
 455.633554688 625.559996381 430.316860088 659.917070312 381.640390625 659.917070312 c 0
 278.352382917 659.917070312 235.074492188 523.01783235 235.074492188 323.175 c 0
 235.074492188 177.077317852 262.386354497 98.1398828121 390.945 98.1398828121 c 0
 478.101308112 98.1398828121 537.308007812 138.704804688 537.308007812 138.704804688 c 1
 563 42 l 1
 563 42 502.909150575 -10 370.100390625 -10 c 0
 206.641999603 -10 117.05 94.511763211 117.05 307.399609375 c 0
EndSplineSet
EndChar

StartChar: uni20B8
Encoding: 8376 8376 223
Width: 614
Flags: W
HStem: 0 21G<247.9 366.1> 416.875 102.225<40 247.9 366.1 574> 416.875 72.225<247.9 366.1> 628.775 102.225<40 574>
VStem: 247.9 118.2<0 489.1>
LayerCount: 2
Fore
SplineSet
574 628.775 m 1x98
 40 628.775 l 1
 40 731 l 1
 574 731 l 1
 574 628.775 l 1x98
574 416.875 m 1xd8
 40 416.875 l 1
 40 519.1 l 1
 574 519.1 l 1
 574 416.875 l 1xd8
247.9 0 m 1
 247.9 489.1 l 1
 366.1 489.1 l 1xb8
 366.1 0 l 1
 247.9 0 l 1
EndSplineSet
EndChar

StartChar: uni20BC
Encoding: 8380 8380 224
Width: 839
Flags: W
HStem: 0 21G<66.35 184.55 360.4 478.6 651.227 769.427> 447.184 103.822<286.586 549.191> 711.008 20G<360.4 478.6>
VStem: 66.35 118.2<0 347.683> 360.4 118.2<0 731.008> 651.227 118.2<0 347.683>
LayerCount: 2
Fore
SplineSet
417.888671875 551.005859375 m 0
 680.421158633 551.005859375 769.42734375 429.134368462 769.42734375 242.396289062 c 2
 769.42734375 0 l 1
 651.22734375 0 l 1
 651.22734375 212.396289062 l 2
 651.22734375 353.187125538 619.055669271 447.183945312 417.888671875 447.183945312 c 0
 216.721674479 447.183945312 184.55 353.187125538 184.55 212.396289062 c 2
 184.55 0 l 1
 66.35 0 l 1
 66.35 242.396289062 l 2
 66.35 429.134368462 155.356185117 551.005859375 417.888671875 551.005859375 c 0
360.4 0 m 1
 360.4 731.0078125 l 1
 478.6 731.0078125 l 1
 478.6 0 l 1
 360.4 0 l 1
EndSplineSet
EndChar

StartChar: Ohorn
Encoding: 416 416 225
Width: 819
Flags: W
HStem: -9.99805 108.147<291.178 506.6> 630.974 108.147<291.178 506.6>
VStem: 46.35 119.049<234.378 494.745> 598.536 105.163<673.242 814.018> 632.379 119.049<234.378 494.745>
AnchorPoint: "Anchor-0" 359.798 731 basechar 0
AnchorPoint: "Anchor-2" 398.018 0 basechar 0
AnchorPoint: "Anchor-3" 469.558 20 basechar 0
LayerCount: 2
Fore
SplineSet
569.057617188 825.799804688 m 1xf0
 681.982421875 825.799804688 l 1
 681.982421875 825.799804688 703.69921875 795.200195312 703.69921875 738.9921875 c 0
 703.69921875 646.907226562 623.819335938 595.609375 623.819335938 595.609375 c 1
 553.112304688 641.360351562 l 1
 553.112304688 641.360351562 598.536132812 688 598.536132812 733.729492188 c 0
 598.536132812 790.55078125 569.057617188 825.799804688 569.057617188 825.799804688 c 1xf0
EndSplineSet
Refer: 1 79 N 1 0 0 1 0 0 2
EndChar

StartChar: ohorn
Encoding: 417 417 226
Width: 603
Flags: W
HStem: -9.99805 94.2269<214.185 374.48> 416.519 94.4144<212.735 375.996>
VStem: 46.35 105.534<151.615 352.395> 425.142 100.078<463.242 604.018> 437.894 105.534<151.615 349.377>
AnchorPoint: "Anchor-0" 225.418 501.011 basechar 0
AnchorPoint: "Anchor-2" 294.018 0 basechar 0
AnchorPoint: "Anchor-3" 355.758 28 basechar 0
LayerCount: 2
Fore
SplineSet
395.663085938 615.799804688 m 1xf0
 503.501953125 615.799804688 l 1
 503.501953125 615.799804688 525.219726562 585.200195312 525.219726562 528.9921875 c 0
 525.219726562 436.907226562 445.338867188 385.609375 445.338867188 385.609375 c 1
 379.71875 431.360351562 l 1
 379.71875 431.360351562 425.141601562 478 425.141601562 523.729492188 c 0
 425.141601562 580.55078125 395.663085938 615.799804688 395.663085938 615.799804688 c 1xf0
EndSplineSet
Refer: 29 111 N 1 0 0 1 0 0 2
EndChar

StartChar: Uhorn
Encoding: 431 431 227
Width: 777
Flags: W
HStem: -9.99805 108.282<256.973 458.805> 711.008 20G<66.35 184.55 531.227 649.427>
VStem: 66.35 118.2<173.075 731.008> 531.227 118.2<173.075 731.008> 625.1 110.55<737.579 815.475>
AnchorPoint: "Anchor-0" 342 731 basechar 0
AnchorPoint: "Anchor-2" 358 0.0117188 basechar 0
AnchorPoint: "Anchor-3" 451 18 basechar 0
LayerCount: 2
Fore
SplineSet
591.180078125 825.799804688 m 1xe8
 706.409765625 825.799804688 l 1
 706.409765625 825.799804688 735.65 800.471948896 735.65 753.35 c 0
 735.65 695.13021978 687.65 665.05 616.65 665.05 c 1
 552.1 731.0078125 l 1
 586.1 731.0078125 625.1 732.480474404 625.1 770 c 0
 625.1 804 591.180078125 825.799804688 591.180078125 825.799804688 c 1xe8
EndSplineSet
Refer: 6 85 N 1 0 0 1 0 0 2
EndChar

StartChar: uhorn
Encoding: 432 432 228
Width: 660
Flags: W
HStem: -9.92285 88.8994<220.552 363.784> 0 21G<421.497 530.507> 481.011 20G<66.62 175.63 421.497 530.507>
VStem: 66.62 109.01<127.367 501.011> 421.497 109.01<207.449 501.011> 508.1 110.55<508.752 596.972>
AnchorPoint: "Anchor-0" 272 501.011 basechar 0
AnchorPoint: "Anchor-2" 302 0.0117188 basechar 0
AnchorPoint: "Anchor-3" 454 0 basechar 0
LayerCount: 2
Fore
SplineSet
465.859765625 615.799804688 m 1x34
 581.089453125 615.799804688 l 1
 581.089453125 615.799804688 618.65 585.229096471 618.65 528.352929688 c 0
 618.65 466.83644617 571.73907563 435.052929688 502.35 435.052929688 c 1
 435.1 501.010742188 l 1
 469.1 501.010742188 508.1 502.672238349 508.1 545.002929688 c 0
 508.1 588.140961504 465.859765625 615.799804688 465.859765625 615.799804688 c 1x34
EndSplineSet
Refer: 50 117 N 1 0 0 1 0 0 2
EndChar

StartChar: integral
Encoding: 8747 8747 229
Width: 448
Flags: W
HStem: -190.011 96.575<-39.7673 87.3029> 671.086 89.925<310.081 439.28>
LayerCount: 2
Fore
SplineSet
119.725 31.9892578125 m 2
 169.725 570.010742188 l 2
 179.468277115 684.948850978 221.010626314 761.010742188 344.7 761.010742188 c 0
 407.330839844 761.010742188 450.65 745.010742188 450.65 745.010742188 c 1
 436.65 660.085742188 l 1
 436.65 660.085742188 409.708817138 671.085742188 372 671.085742188 c 0
 306.717077307 671.085742188 286.776589223 637.431001996 279.275 557.010742188 c 2
 229.275 20.9892578125 l 2
 218.480727597 -105.873627335 177.989224138 -190.010742188 54.3 -190.010742188 c 0
 -8.33084954983 -190.010742188 -51.65 -174.010742188 -51.65 -174.010742188 c 1
 -37.65 -82.4357421876 l 1
 -37.65 -82.4357421876 -10.7090599647 -93.4357421876 27 -93.4357421876 c 0
 92.2832897948 -93.4357421876 111.52162676 -56.2825631382 119.725 31.9892578125 c 2
EndSplineSet
EndChar

StartChar: dotlessi
Encoding: 305 305 231
Width: 269
Flags: W
HStem: 0 21G<79.995 189.005> 481.011 20G<79.995 189.005>
VStem: 79.995 109.01<0 501.011>
AnchorPoint: "Anchor-0" 134 501.011 basechar 0
AnchorPoint: "Anchor-2" 137 0 basechar 0
AnchorPoint: "Anchor-3" 141 0 basechar 0
LayerCount: 2
Fore
SplineSet
79.995 0 m 1
 79.995 501.010742188 l 1
 189.005 501.010742188 l 1
 189.005 0 l 1
 79.995 0 l 1
EndSplineSet
EndChar

StartChar: uni0237
Encoding: 567 567 232
Width: 269
Flags: W
HStem: -190 92.035<-70.9515 58.8983> 481.011 20G<79.995 189.005>
VStem: 79.995 109.01<-75.6896 501.011>
AnchorPoint: "Anchor-0" 134 501.011 basechar 0
AnchorPoint: "Anchor-2" 17 -179.988 basechar 0
LayerCount: 2
Back
SplineSet
75 -6 m 6xe8
 75 501.010742188 l 5
 194 501.010742188 l 5
 194 -9 l 6
 194 -117.943127962 145.051724138 -190 27 -190 c 4
 -38.0249499809 -190 -83 -172 -83 -172 c 5
 -69 -78 l 5
 -69 -78 -42.7466477614 -90 -6 -90 c 4
 51.0282714843 -90 75 -64.6987951807 75 -6 c 6xe8
EndSplineSet
Fore
SplineSet
79.995 -7.89 m 2
 79.995 501.010742188 l 1
 189.005 501.010742188 l 1
 189.005 -10.35 l 2
 189.005 -118.48056872 141.520775862 -190 27 -190 c 0
 -37.6259332424 -190 -82.325 -171.865 -82.325 -171.865 c 1
 -68.595 -85.02 l 1
 -68.595 -85.02 -41.3852756441 -97.965 -3.3 -97.965 c 0
 55.3440725097 -97.965 79.995 -70.8339759036 79.995 -7.89 c 2
EndSplineSet
EndChar

StartChar: uni20B3
Encoding: 8371 8371 233
Width: 824
Flags: W
HStem: 0 21G<77.5 196.173 620.361 746.5> 141.7 80.6<41.35 782.65> 271.7 80.6<71.35 752.65> 711.008 20G<336.886 477.256>
LayerCount: 2
Fore
SplineSet
469.6825 731.0078125 m 1
 746.5 0 l 1
 627.6925 0 l 1
 407.826054688 599.763476562 l 1
 196.1725 0 l 1
 77.5 0 l 1
 344.1825 731.0078125 l 1
 469.6825 731.0078125 l 1
752.65 271.7 m 1
 71.35 271.7 l 1
 71.35 352.3 l 1
 752.65 352.3 l 1
 752.65 271.7 l 1
782.65 141.7 m 1
 41.35 141.7 l 1
 41.35 222.3 l 1
 782.65 222.3 l 1
 782.65 141.7 l 1
EndSplineSet
EndChar

